<svg xmlns:inkscape="http://www.inkscape.org/namespaces/inkscape" xmlns:sodipodi="http://sodipodi.sourceforge.net/DTD/sodipodi-0.dtd" xmlns="http://www.w3.org/2000/svg" xmlns:svg="http://www.w3.org/2000/svg" viewBox="0 0 26.458333 33.07291625" version="1.1" xml:space="preserve" x="0px" y="0px"><g><path style="" d="m 15.459578,25.330265 c -0.08032,-0.0057 -0.206611,-0.01867 -0.280543,-0.02881 -0.07396,-0.01013 -0.204239,-0.03255 -0.289566,-0.0498 -0.08533,-0.01726 -0.216838,-0.04861 -0.292235,-0.06968 -0.0754,-0.02106 -0.195571,-0.05929 -0.267037,-0.08495 -0.07151,-0.02565 -0.188354,-0.07297 -0.259743,-0.105141 -0.07134,-0.03217 -0.185185,-0.0893 -0.25288,-0.126951 -0.0677,-0.03765 -0.177958,-0.106176 -0.245026,-0.152271 -0.0671,-0.04609 -0.170951,-0.123582 -0.23086,-0.172194 -0.0599,-0.04861 -0.155853,-0.134672 -0.213195,-0.191245 -0.05736,-0.05657 -0.146998,-0.152834 -0.199223,-0.213911 -0.05219,-0.06108 -0.132773,-0.163652 -0.179,-0.227943 -0.04626,-0.06429 -0.119869,-0.174825 -0.163647,-0.245629 -0.0438,-0.07081 -0.113896,-0.19179 -0.155835,-0.268855 -0.04194,-0.07707 -0.108449,-0.204536 -0.147812,-0.283269 -0.0394,-0.07874 -0.09515,-0.193142 -0.123962,-0.254243 -0.02881,-0.0611 -0.07812,-0.168957 -0.109618,-0.239676 -0.03152,-0.07072 -0.08083,-0.185131 -0.109702,-0.254245 -0.02881,-0.06911 -0.07024,-0.171686 -0.092,-0.227941 -0.02177,-0.05626 -0.05727,-0.152255 -0.07896,-0.213332 -0.02169,-0.06108 -0.05668,-0.164965 -0.07778,-0.230864 -0.0211,-0.0659 -0.05151,-0.165843 -0.06761,-0.222098 -0.0161,-0.05626 -0.04507,-0.165404 -0.06431,-0.242554 -0.01923,-0.07715 -0.04423,-0.182354 -0.05558,-0.233787 -0.01127,-0.05144 -0.02737,-0.127706 -0.03567,-0.169495 -0.0085,-0.04179 -0.02296,-0.124639 -0.03237,-0.184107 -0.0095,-0.05947 -0.0172,-0.11536 -0.01728,-0.1242 0,-0.0088 -8.47e-4,-0.01607 -0.0017,-0.01607 -8.47e-4,0 -0.06753,0.06509 -0.147711,0.144656 -0.08015,0.07956 -0.18648,0.180235 -0.236231,0.223721 -0.04973,0.04348 -0.11676,0.100272 -0.148905,0.126192 -0.0322,0.02592 -0.0905,0.06987 -0.129664,0.09768 -0.03914,0.02781 -0.108838,0.07324 -0.154836,0.10096 -0.04601,0.02772 -0.119158,0.06812 -0.162579,0.08977 -0.04346,0.02166 -0.114092,0.05314 -0.157039,0.06997 -0.04296,0.01683 -0.116599,0.04211 -0.163647,0.05618 -0.04702,0.01407 -0.1236993,0.03347 -0.1703068,0.04309 -0.046599,0.0096 -0.1202593,0.02221 -0.1636557,0.02796 -0.062189,0.0082 -0.1159637,0.01032 -0.2542441,0.0098 -0.1520822,-5.64e-4 -0.1904543,-0.0027 -0.289312,-0.01567 -0.062697,-0.0082 -0.1560473,-0.0229 -0.2074841,-0.03257 -0.051428,-0.0097 -0.1395429,-0.02837 -0.1957921,-0.04156 -0.056258,-0.01319 -0.1627745,-0.04113 -0.2367144,-0.06209 C 8.5243478,21.314143 8.3823561,21.269743 8.282702,21.236453 8.183048,21.203153 8.0305082,21.149643 7.943707,21.117525 7.856909,21.085375 7.725407,21.035565 7.6514756,21.00679 7.5775106,20.97802 7.4157863,20.91359 7.2920279,20.863625 7.1682699,20.813662 6.9986326,20.743887 6.915051,20.708577 6.8315117,20.673264 6.7026019,20.618106 6.628662,20.585995 6.5546967,20.553884 6.4350559,20.501303 6.3627343,20.469144 6.2903787,20.436991 6.1615283,20.379114 6.0763453,20.340535 5.9911539,20.301959 5.8478153,20.236213 5.757803,20.194438 5.6677992,20.15266 5.5309845,20.088234 5.4537827,20.051262 5.3765978,20.014288 5.20774,19.931226 5.078593,19.866676 4.949446,19.802123 4.785104,19.718614 4.7134009,19.681096 4.6417232,19.643579 4.5343676,19.586611 4.4748988,19.554505 4.4154215,19.522402 4.3049649,19.461875 4.2294237,19.420008 4.1538486,19.378145 4.0210584,19.303157 3.9342657,19.253375 3.8474729,19.203591 3.7120224,19.124595 3.63327,19.077822 3.5544754,19.031045 3.4230069,18.950739 3.341035,18.899357 3.2590208,18.847971 3.136762,18.769096 3.0692527,18.724074 3.0017265,18.679051 2.8991749,18.609362 2.8413159,18.569208 2.7834484,18.529057 2.6848195,18.458087 2.6221396,18.411507 2.5594428,18.364925 2.467397,18.293883 2.4175785,18.253635 2.3677599,18.213395 2.2927948,18.150179 2.2509998,18.113172 2.2092301,18.076162 2.1372389,18.008898 2.0910551,17.96369 2.0448797,17.91848 1.974583,17.843946 1.9348552,17.798057 1.895119,17.752167 1.8378784,17.679841 1.8076484,17.637329 c -0.030247,-0.04252 -0.074474,-0.110171 -0.098222,-0.150353 -0.023808,-0.04019 -0.058037,-0.10462 -0.076083,-0.143195 -0.018047,-0.03857 -0.042702,-0.101697 -0.054817,-0.140272 -0.013895,-0.04434 -0.025587,-0.09814 -0.031687,-0.146288 -0.00847,-0.06484 -0.00873,-0.08698 -0.00254,-0.149039 0.00508,-0.05072 0.012624,-0.09155 0.026011,-0.134256 0.010506,-0.03376 0.03228,-0.08767 0.048378,-0.119816 0.016098,-0.03214 0.04787,-0.08475 0.070746,-0.116894 0.022876,-0.03214 0.063968,-0.08178 0.091402,-0.110294 0.027451,-0.02852 0.073542,-0.07214 0.1024755,-0.09695 0.028891,-0.02481 0.078456,-0.06414 0.1101092,-0.0874 0.031603,-0.02327 0.086869,-0.06105 0.1227417,-0.08398 0.035924,-0.02293 0.1033651,-0.06371 0.149981,-0.09065 0.046599,-0.02693 0.1491846,-0.08109 0.2279369,-0.120345 0.078795,-0.03925 0.1800161,-0.08796 0.2250223,-0.108233 0.044989,-0.02027 0.1278507,-0.05663 0.1841084,-0.08081 0.056258,-0.02417 0.1614613,-0.06756 0.2337829,-0.09642 0.072356,-0.02886 0.1801687,-0.07091 0.2396375,-0.09345 0.059477,-0.02254 0.1725603,-0.0641 0.2513211,-0.09236 0.078795,-0.02826 0.2457631,-0.08566 0.3711313,-0.127556 0.1253683,-0.0419 0.3305225,-0.108997 0.4558907,-0.149114 0.1253683,-0.04012 0.2871176,-0.09141 0.3594478,-0.113983 0.072356,-0.02257 0.1972577,-0.06073 0.2776198,-0.08479 0.080405,-0.02406 0.2052898,-0.06091 0.2776199,-0.08188 0.072356,-0.02097 0.2077807,-0.05906 0.3010041,-0.08465 0.093223,-0.02559 0.2352487,-0.06381 0.3156108,-0.08492 0.080404,-0.02111 0.2210741,-0.05671 0.3126877,-0.07909 0.091614,-0.02238 0.2310124,-0.05548 0.3097732,-0.07353 0.078795,-0.01806 0.2220908,-0.04962 0.3185338,-0.07014 0.096434,-0.02051 0.2568706,-0.0531 0.3565247,-0.07241 0.099646,-0.01932 0.2495673,-0.04707 0.3331404,-0.06168 0.083539,-0.01461 0.2348166,-0.03959 0.336072,-0.05553 0.1012554,-0.01593 0.2603783,-0.0396 0.3536017,-0.0526 0.093223,-0.013 0.2444583,-0.03282 0.3360719,-0.04404 0.091614,-0.01123 0.2467883,-0.02828 0.3448326,-0.0379 0.098044,-0.0096 0.2505925,-0.02277 0.338995,-0.02924 0.088402,-0.0064 0.2488386,-0.01628 0.3565247,-0.02182 0.158301,-0.0081 0.3105103,-0.01011 0.794877,-0.01032 0.399379,-1.68e-4 0.658504,0.0023 0.777339,0.0073 0.09804,0.0042 0.250593,0.01145 0.338995,0.01618 0.08839,0.0047 0.218584,0.01253 0.289312,0.01733 0.07075,0.0048 0.175924,0.01267 0.233783,0.01749 0.05787,0.0048 0.15781,0.01406 0.2221,0.02055 0.06431,0.0065 0.16818,0.01833 0.23086,0.02632 0.0627,0.008 0.157369,0.02124 0.210407,0.02946 0.05304,0.0082 0.147727,0.02413 0.210415,0.03535 0.0627,0.01122 0.145533,0.02702 0.184109,0.0351 0.03855,0.008 0.114244,0.02503 0.168146,0.03763 0.05389,0.01261 0.09956,0.02293 0.10145,0.02293 0.0017,0 0.0017,-0.0041 -5.9e-5,-0.0091 -0.0017,-0.005 -0.0076,-0.04905 -0.01186,-0.0979 -0.0042,-0.04885 -0.01008,-0.127452 -0.01211,-0.174664 -0.0025,-0.06664 -0.0017,-0.09867 0.0059,-0.143195 0.0051,-0.03154 0.01847,-0.09154 0.02923,-0.133334 0.01076,-0.04179 0.02101,-0.08124 0.02279,-0.08767 0.0025,-0.0089 -0.0025,-0.01554 -0.02017,-0.0277 -0.01288,-0.0088 -0.08715,-0.05881 -0.165104,-0.111114 -0.07795,-0.05231 -0.187362,-0.12352 -0.243129,-0.158255 -0.05575,-0.03474 -0.157021,-0.09541 -0.225022,-0.134823 -0.06795,-0.03941 -0.182804,-0.104044 -0.255134,-0.143619 -0.07235,-0.03958 -0.218295,-0.116142 -0.324379,-0.170149 -0.106085,-0.054 -0.259947,-0.130238 -0.34191,-0.169401 -0.08198,-0.03913 -0.222654,-0.105281 -0.312666,-0.146961 -0.09,-0.04168 -0.268851,-0.123221 -0.397438,-0.181202 -0.12858,-0.05798 -0.314001,-0.140904 -0.412046,-0.184272 -0.09804,-0.04337 -0.229555,-0.101105 -0.292235,-0.128304 -0.0627,-0.0272 -0.167892,-0.07186 -0.233791,-0.09925 -0.06592,-0.02739 -0.165842,-0.06821 -0.222091,-0.09072 -0.056258,-0.0225 -0.1548868,-0.06062 -0.2191765,-0.0847 -0.064307,-0.02408 -0.1747547,-0.06315 -0.245475,-0.08683 -0.070746,-0.02368 -0.1732975,-0.05616 -0.2279454,-0.07219 -0.054648,-0.01602 -0.1401274,-0.03994 -0.1899544,-0.05315 -0.049819,-0.01321 -0.1300451,-0.03297 -0.1782624,-0.0439 -0.048209,-0.01094 -0.1531328,-0.03197 -0.2331475,-0.04673 -0.079981,-0.01476 -0.1538529,-0.03033 -0.1640793,-0.03461 -0.010252,-0.0042 -0.027959,-0.01602 -0.039482,-0.0261 -0.011523,-0.01008 -0.026689,-0.03068 -0.033806,-0.04576 -0.010337,-0.02193 -0.012455,-0.03524 -0.010675,-0.06638 0.00169,-0.03065 0.00593,-0.045 0.019741,-0.06732 0.010675,-0.01723 0.028468,-0.03514 0.045413,-0.0456 0.01847,-0.01144 0.038126,-0.01808 0.058376,-0.01976 0.020673,-0.0017 0.077439,0.0062 0.1765424,0.02463 0.08032,0.01494 0.1815751,0.03502 0.2249715,0.04462 0.043379,0.0096 0.1196662,0.02807 0.1694933,0.04102 0.049819,0.01295 0.1484559,0.04037 0.2191762,0.06092 0.070746,0.02055 0.1811854,0.05487 0.2454751,0.07626 0.064307,0.02139 0.1800161,0.06255 0.2571671,0.09147 0.077185,0.02892 0.1928779,0.07369 0.2571669,0.09948 0.06431,0.0258 0.193166,0.07916 0.286389,0.11858 0.09322,0.03942 0.273384,0.117649 0.400362,0.17384 0.126978,0.05619 0.337385,0.150121 0.467574,0.208733 0.13019,0.05861 0.330074,0.149874 0.444191,0.202805 0.114125,0.05293 0.328472,0.15638 0.476342,0.229888 0.147872,0.07351 0.324092,0.163553 0.391593,0.200099 0.06753,0.03654 0.159563,0.08715 0.20457,0.112463 0.04499,0.02531 0.133112,0.07619 0.195792,0.113071 0.0627,0.03688 0.149481,0.08942 0.192877,0.116752 0.04338,0.02733 0.145008,0.094 0.225802,0.148141 0.08083,0.05414 0.149184,0.09844 0.151963,0.09843 0.0025,0 0.01288,-0.01496 0.02245,-0.03324 0.0096,-0.01827 0.0427,-0.07152 0.07363,-0.11834 0.03092,-0.04682 0.06812,-0.100158 0.08252,-0.118538 l 0.02626,-0.03342 -0.187786,-0.18868 c -0.10328,-0.103774 -0.239104,-0.246541 -0.301834,-0.317262 -0.0627,-0.07072 -0.160064,-0.1825 -0.216304,-0.248399 -0.05626,-0.0659 -0.14827,-0.175048 -0.204511,-0.242554 -0.05626,-0.06751 -0.149659,-0.1806 -0.207602,-0.251321 -0.05795,-0.07072 -0.161826,-0.199596 -0.230869,-0.286389 -0.06904,-0.08679 -0.171562,-0.21698 -0.227836,-0.289307 -0.05626,-0.07233 -0.155039,-0.201203 -0.21949,-0.286389 -0.06448,-0.08519 -0.16474,-0.219737 -0.222887,-0.299002 -0.05812,-0.07926 -0.1496,-0.206824 -0.203223,-0.283466 -0.05363,-0.07664 -0.137577,-0.199842 -0.186557,-0.273778 -0.04897,-0.07393 -0.115294,-0.176508 -0.147354,-0.2279415 -0.03203,-0.051437 -0.076,-0.1234696 -0.09771,-0.1600811 -0.02169,-0.03661 -0.05778,-0.09933 -0.08023,-0.1393734 -0.02245,-0.040041 -0.06549,-0.1205533 -0.09564,-0.1789096 -0.03016,-0.058359 -0.07439,-0.1494998 -0.09831,-0.2025404 -0.02389,-0.053038 -0.0555,-0.1266832 -0.07015,-0.1636515 -0.01466,-0.036966 -0.03584,-0.097547 -0.04702,-0.1346211 -0.01118,-0.037076 -0.02338,-0.084404 -0.0272,-0.1051785 -0.0034,-0.020774 -0.0051,-0.047887 -0.0034,-0.060251 0.0017,-0.012364 0.0086,-0.03228 0.01474,-0.04426 0.0059,-0.011978 0.02169,-0.031359 0.03465,-0.043065 0.0144,-0.013038 0.03618,-0.024947 0.05609,-0.030734 0.02466,-0.00717 0.03872,-0.00813 0.05829,-0.00395 0.01415,0.00302 0.03753,0.012374 0.05185,0.020781 0.01432,0.0084 0.03397,0.027233 0.04363,0.04184 0.01127,0.017036 0.02008,0.040587 0.0244,0.065694 0.0034,0.021525 0.0172,0.07012 0.02982,0.1079886 0.01262,0.037869 0.03897,0.1063341 0.05855,0.152146 0.01957,0.045811 0.05617,0.1259927 0.08134,0.1781793 0.02516,0.052191 0.07278,0.1442417 0.105746,0.2045637 0.03296,0.060325 0.08667,0.1543893 0.119336,0.2090372 0.0327,0.054648 0.08784,0.1440714 0.122632,0.1987193 0.03482,0.054648 0.0922,0.142756 0.127579,0.195796 0.03541,0.05304 0.09728,0.143779 0.137561,0.201642 0.04033,0.05786 0.115285,0.163067 0.166663,0.233787 0.05134,0.07072 0.148642,0.202225 0.216143,0.292233 0.06753,0.09001 0.185997,0.245184 0.263335,0.344836 0.07735,0.09965 0.209127,0.266663 0.292853,0.371137 0.08371,0.104473 0.209874,0.25965 0.280314,0.344836 0.07041,0.08519 0.179347,0.215376 0.242002,0.289311 0.0627,0.07393 0.140373,0.164674 0.172696,0.201642 0.03237,0.03697 0.09418,0.106665 0.137458,0.154884 0.0433,0.04822 0.14849,0.158277 0.233808,0.244576 0.08532,0.0863 0.166977,0.166887 0.181465,0.179085 l 0.02635,0.02218 0.04482,-0.02971 c 0.03974,-0.02633 0.04372,-0.03058 0.03499,-0.03728 -0.009,-0.0069 -0.0087,-0.0084 0.0034,-0.0182 0.0076,-0.0058 0.03804,-0.02444 0.06795,-0.0413 l 0.05439,-0.03067 -0.01686,-0.06251 c -0.0092,-0.03438 -0.02847,-0.11511 -0.04262,-0.179401 -0.01415,-0.06429 -0.03262,-0.153715 -0.04092,-0.198719 -0.0085,-0.04501 -0.02288,-0.130689 -0.03228,-0.190413 -0.0095,-0.05972 -0.02389,-0.159667 -0.03203,-0.222098 -0.0085,-0.06243 -0.02008,-0.159536 -0.02644,-0.215791 -0.0068,-0.05626 -0.01822,-0.173295 -0.02626,-0.260089 -0.0085,-0.08679 -0.02,-0.226189 -0.02635,-0.309767 -0.0068,-0.08358 -0.01559,-0.215084 -0.02042,-0.292234 -0.0051,-0.07715 -0.01271,-0.21523 -0.01762,-0.306845 -0.0051,-0.09162 -0.01296,-0.279668 -0.01796,-0.417895 -0.0051,-0.14239 -0.01,-0.4565157 -0.01118,-0.7247395 -8.48e-4,-0.26038 1.61e-4,-0.5773079 0.0034,-0.7042835 0.0025,-0.1269755 0.01067,-0.3518494 0.01728,-0.4997197 0.0068,-0.1478703 0.0211,-0.3806345 0.03203,-0.5172538 0.01093,-0.1366193 0.03194,-0.3482007 0.0466,-0.4701807 0.01466,-0.1219802 0.04118,-0.3139778 0.05888,-0.4266615 0.01771,-0.1126835 0.05067,-0.3035081 0.0732,-0.4240545 0.02254,-0.1205464 0.05939,-0.3072838 0.08184,-0.414972 0.02245,-0.1076881 0.06329,-0.2944255 0.09075,-0.4149719 0.02745,-0.1205465 0.07447,-0.3178043 0.104483,-0.4383507 0.02999,-0.1205464 0.0721,-0.284928 0.0936,-0.3652923 0.02144,-0.080365 0.06261,-0.2289651 0.09145,-0.3302242 0.02881,-0.1012589 0.07591,-0.2603802 0.104526,-0.3536027 0.02864,-0.093223 0.07947,-0.2510289 0.113032,-0.3506804 0.03355,-0.099652 0.08337,-0.2416774 0.110719,-0.3156127 0.02737,-0.073936 0.07388,-0.193605 0.10345,-0.2659327 0.02957,-0.072328 0.08269,-0.195943 0.118124,-0.2747 0.03542,-0.078757 0.09728,-0.2089473 0.137425,-0.289311 0.04016,-0.080365 0.100637,-0.1960887 0.134434,-0.2571663 0.0338,-0.061077 0.0945,-0.1636509 0.134908,-0.2279418 0.04041,-0.064291 0.108305,-0.1643524 0.150888,-0.2223566 0.04262,-0.058004 0.115303,-0.1487436 0.161605,-0.201641 0.04626,-0.052898 0.118124,-0.1278749 0.159606,-0.1666147 0.04152,-0.03874 0.109618,-0.096817 0.151413,-0.1290587 0.04177,-0.032242 0.112829,-0.079941 0.157869,-0.1059978 0.04829,-0.027958 0.115481,-0.060428 0.163833,-0.079216 0.04507,-0.017512 0.113414,-0.038914 0.151888,-0.04756 0.04338,-0.00974 0.105093,-0.018142 0.162283,-0.022083 0.07854,-0.00541 0.106423,-0.00485 0.187031,0.00381 0.06058,0.00651 0.127597,0.018391 0.185973,0.032968 0.05016,0.012535 0.127884,0.03702 0.172636,0.054411 0.04473,0.017391 0.123352,0.052691 0.174662,0.078444 0.05134,0.025753 0.138416,0.075651 0.193555,0.1108856 0.05516,0.035233 0.139306,0.093836 0.187031,0.1302288 0.0477,0.036393 0.135434,0.1090244 0.194903,0.1614032 0.05948,0.052379 0.150311,0.1393546 0.201867,0.1932796 0.0516,0.053925 0.133358,0.1441498 0.181787,0.200499 0.04846,0.056349 0.133341,0.1611518 0.1887,0.2328949 0.05533,0.071742 0.14233,0.1890868 0.193267,0.2607654 0.05092,0.071679 0.137569,0.1976826 0.192514,0.280009 0.05499,0.082326 0.146253,0.2239698 0.202892,0.314763 0.05668,0.090793 0.149506,0.2439825 0.206365,0.3404197 0.05685,0.096436 0.145567,0.2502981 0.197131,0.3419128 0.0516,0.091616 0.127444,0.228381 0.168621,0.3039234 0.04118,0.075543 0.130994,0.2438691 0.199579,0.3740593 0.06863,0.1301902 0.190175,0.3682145 0.270189,0.5289431 0.07998,0.1607287 0.191497,0.3895476 0.247746,0.5084868 0.05626,0.1189392 0.136899,0.2909691 0.179237,0.3822886 0.04236,0.09132 0.104703,0.2267699 0.138585,0.3010008 0.03389,0.07423 0.09255,0.204663 0.130401,0.2898492 0.03787,0.085186 0.09965,0.2272117 0.137348,0.3156124 0.0377,0.088401 0.09355,0.2238511 0.124123,0.3010008 0.03059,0.077149 0.07659,0.1968195 0.102222,0.2659328 0.02567,0.069113 0.06998,0.1947581 0.09858,0.27921 0.02855,0.084452 0.06795,0.208067 0.08762,0.2746998 0.01966,0.066633 0.0499,0.1800142 0.06719,0.2519599 0.01728,0.071945 0.04084,0.1837245 0.05236,0.2483987 0.01144,0.064673 0.02601,0.1672162 0.0322,0.2278716 0.0076,0.070841 0.01152,0.155497 0.01169,0.2367093 1.61e-4,0.069537 -0.0025,0.1579888 -0.0059,0.1965635 -0.0034,0.038576 -0.01288,0.1095873 -0.02101,0.1578062 -0.0085,0.048217 -0.02525,0.1261249 -0.03796,0.1731263 -0.01279,0.046997 -0.03855,0.1259037 -0.05719,0.1753402 -0.01873,0.049437 -0.04101,0.1036048 -0.04957,0.1203745 -0.0086,0.016767 -0.01551,0.033204 -0.01551,0.036534 0,0.0039 0.02915,0.00602 0.081,0.00602 0.04457,0 0.114888,0.00271 0.156344,0.0061 0.04143,0.0033 0.109558,0.011328 0.151345,0.017767 0.04177,0.00644 0.11149,0.019605 0.154887,0.029264 0.04338,0.00966 0.106254,0.025536 0.139686,0.035263 0.03347,0.00973 0.09656,0.030281 0.140272,0.045667 0.04372,0.015386 0.113786,0.042566 0.155717,0.060401 0.04194,0.01784 0.106788,0.04685 0.144143,0.06448 0.03736,0.01762 0.103009,0.05124 0.14588,0.0747 0.04287,0.02346 0.106873,0.06016 0.142238,0.08154 0.03533,0.02139 0.08796,0.05419 0.116895,0.07292 0.02889,0.01872 0.08151,0.05499 0.116887,0.08062 0.03533,0.02562 0.08796,0.06524 0.116896,0.08805 0.02889,0.02281 0.08151,0.06616 0.116896,0.09635 0.03533,0.03019 0.103551,0.09205 0.151548,0.137469 0.04795,0.04542 0.125623,0.124669 0.17251,0.176102 0.04694,0.05144 0.114201,0.129021 0.149574,0.172418 0.03533,0.0434 0.08942,0.113094 0.120107,0.154883 0.03067,0.04179 0.07693,0.107543 0.102679,0.146118 0.02576,0.03857 0.07261,0.113533 0.104059,0.166572 0.03143,0.05304 0.08117,0.142465 0.110499,0.19872 0.02932,0.05626 0.07337,0.145678 0.09791,0.198719 0.02457,0.05304 0.06498,0.146409 0.08985,0.207486 0.02491,0.06108 0.06312,0.162336 0.08506,0.22502 0.02186,0.06269 0.05567,0.166573 0.07498,0.230865 0.01932,0.06429 0.04838,0.16818 0.06456,0.230864 0.01618,0.06269 0.04118,0.168445 0.05567,0.235025 0.01449,0.06658 0.03685,0.182304 0.04965,0.257166 0.01279,0.07486 0.03008,0.193678 0.0383,0.264038 0.0085,0.07036 0.01872,0.186084 0.02322,0.257165 0.0042,0.07109 0.0099,0.196308 0.01203,0.278279 0.0025,0.08451 8.47e-4,0.222434 -0.0025,0.318535 -0.0034,0.09322 -0.01296,0.243139 -0.02067,0.333147 -0.0076,0.09001 -0.02322,0.230997 -0.03457,0.31331 -0.01127,0.08231 -0.03372,0.221708 -0.04982,0.309768 -0.0161,0.08806 -0.04524,0.231121 -0.06482,0.317914 -0.01949,0.08679 -0.0549,0.230135 -0.07862,0.318535 -0.02372,0.0884 -0.06405,0.226481 -0.08965,0.306846 -0.02559,0.08036 -0.07091,0.211869 -0.100645,0.292234 -0.02974,0.08036 -0.08379,0.214499 -0.120014,0.298078 -0.03796,0.08748 -0.09802,0.211649 -0.141593,0.292624 -0.04728,0.08776 -0.108627,0.189972 -0.163249,0.271777 -0.05533,0.0829 -0.123767,0.175173 -0.186066,0.250931 -0.05422,0.0659 -0.143364,0.165438 -0.198164,0.221199 -0.05482,0.05576 -0.156183,0.150836 -0.225293,0.211279 -0.06914,0.06044 -0.17656,0.149627 -0.238774,0.198186 -0.06219,0.04856 -0.16119,0.123636 -0.219947,0.166836 -0.0588,0.0432 -0.157776,0.113337 -0.220032,0.15586 -0.06227,0.04252 -0.161859,0.107592 -0.221328,0.144598 -0.05948,0.03701 -0.161538,0.09677 -0.226819,0.132807 -0.06524,0.03604 -0.166536,0.08798 -0.225022,0.115434 -0.05846,0.02745 -0.148405,0.06619 -0.199842,0.08608 -0.05143,0.01989 -0.13823,0.05011 -0.192877,0.06713 -0.05465,0.01702 -0.144068,0.04146 -0.198716,0.05432 -0.05465,0.01285 -0.134671,0.02891 -0.177821,0.03569 -0.04313,0.0068 -0.103653,0.01497 -0.134434,0.01821 -0.03076,0.0032 -0.103297,0.0084 -0.161165,0.01143 -0.06719,0.0036 -0.149574,0.0035 -0.227945,-1.2e-4 -0.06753,-0.0031 -0.155607,-0.0097 -0.195792,-0.01464 -0.04016,-0.0049 -0.111194,-0.01555 -0.15781,-0.0236 -0.0466,-0.008 -0.115726,-0.02282 -0.15359,-0.03281 l -0.06888,-0.01816 -0.03931,0.03792 c -0.0216,0.02086 -0.04016,0.03984 -0.04126,0.04218 -8.47e-4,0.0024 0.04109,0.05467 0.09387,0.116295 0.0527,0.06162 0.126157,0.148861 0.163182,0.193864 0.03702,0.04501 0.09769,0.121277 0.134832,0.169496 0.03711,0.04822 0.09575,0.127122 0.130265,0.17534 0.03448,0.04822 0.08784,0.125719 0.118497,0.172223 0.03067,0.04651 0.07015,0.108311 0.08778,0.13735 0.01762,0.02904 0.04982,0.08444 0.07151,0.123109 0.02169,0.03867 0.05126,0.0939 0.06566,0.122737 0.01449,0.02883 0.04482,0.09451 0.06753,0.145943 0.02271,0.05144 0.05304,0.125132 0.06736,0.163776 0.01432,0.03864 0.03677,0.104397 0.04982,0.146117 0.01305,0.04172 0.03287,0.112676 0.04406,0.15768 0.01118,0.04501 0.02584,0.114265 0.03262,0.153912 0.0068,0.03965 0.0161,0.111976 0.02076,0.16073 0.0051,0.04875 0.0085,0.130722 0.0085,0.182155 0,0.05144 -0.0025,0.125077 -0.0059,0.163652 -0.0034,0.03858 -0.01118,0.104327 -0.01745,0.146117 -0.0059,0.04179 -0.01957,0.111487 -0.02949,0.154883 -0.01,0.0434 -0.03075,0.118504 -0.04626,0.166903 -0.01551,0.0484 -0.04194,0.120727 -0.05871,0.160729 -0.01677,0.04 -0.05024,0.11218 -0.0743,0.1604 -0.02406,0.04822 -0.06769,0.12712 -0.0969,0.175339 -0.02923,0.04822 -0.08218,0.128437 -0.117726,0.178263 -0.0355,0.04983 -0.09456,0.126099 -0.131147,0.169495 -0.0366,0.0434 -0.09571,0.110135 -0.131375,0.148308 -0.03567,0.03817 -0.11088,0.11191 -0.167138,0.163863 -0.05626,0.05195 -0.14305,0.128608 -0.192877,0.170345 -0.04982,0.04174 -0.135299,0.110176 -0.189946,0.152089 -0.05465,0.04191 -0.149338,0.111724 -0.210408,0.155138 -0.06109,0.04341 -0.171543,0.118408 -0.245483,0.166652 -0.07397,0.04824 -0.189658,0.120753 -0.257159,0.161134 -0.06753,0.04038 -0.173645,0.101565 -0.235859,0.135969 -0.06219,0.03441 -0.18188,0.09731 -0.265927,0.139782 -0.08405,0.04247 -0.221202,0.10789 -0.304783,0.145366 -0.08354,0.03747 -0.213771,0.09347 -0.289312,0.12444 -0.07558,0.03097 -0.200469,0.08 -0.27762,0.108949 -0.07719,0.02896 -0.21655,0.07855 -0.309765,0.110207 -0.09322,0.03166 -0.233935,0.07638 -0.312696,0.09938 -0.07879,0.023 -0.214203,0.05846 -0.300996,0.0788 -0.08679,0.02034 -0.227284,0.04922 -0.312196,0.06419 -0.08491,0.01496 -0.217736,0.03494 -0.295158,0.0444 -0.07744,0.0095 -0.218354,0.02234 -0.313188,0.02864 -0.112972,0.0075 -0.228835,0.01121 -0.336063,0.01075 -0.09013,-4.02e-4 -0.229301,-0.0053 -0.309773,-0.01107 z m 0.604923,-0.283308 c 0.07879,-0.0049 0.211576,-0.01689 0.295158,-0.02661 0.08354,-0.0097 0.219032,-0.02943 0.301004,-0.04379 0.08201,-0.01436 0.212161,-0.04075 0.289304,-0.05866 0.07719,-0.0179 0.20734,-0.05196 0.289312,-0.0757 0.08193,-0.02373 0.218744,-0.06659 0.303927,-0.09522 0.08518,-0.02864 0.218007,-0.07583 0.295158,-0.104864 0.07719,-0.02903 0.20734,-0.08029 0.289312,-0.113904 0.08201,-0.03361 0.202951,-0.08538 0.268851,-0.115042 0.06592,-0.02966 0.192149,-0.09005 0.280543,-0.134205 0.0884,-0.04415 0.214652,-0.110153 0.280551,-0.146671 0.06592,-0.03652 0.175043,-0.09968 0.242552,-0.140355 0.06753,-0.04068 0.174026,-0.107637 0.236706,-0.148801 0.0627,-0.04117 0.158682,-0.106461 0.21333,-0.145104 0.05465,-0.03864 0.14827,-0.107759 0.208044,-0.153589 0.05982,-0.04584 0.14477,-0.113625 0.188869,-0.150653 0.04414,-0.03702 0.119116,-0.103039 0.166698,-0.146695 0.04762,-0.04366 0.120556,-0.115473 0.162164,-0.159593 0.0416,-0.04412 0.101908,-0.111858 0.133994,-0.15053 0.03211,-0.03868 0.08337,-0.105739 0.11393,-0.149039 0.03059,-0.0433 0.07549,-0.111603 0.09984,-0.151785 0.02432,-0.04019 0.06134,-0.107251 0.08227,-0.149039 0.02093,-0.04179 0.04922,-0.102282 0.06295,-0.134429 0.01373,-0.03214 0.03626,-0.09218 0.05016,-0.133418 0.0139,-0.04124 0.03313,-0.109713 0.04287,-0.152176 0.0097,-0.04246 0.02313,-0.113929 0.02982,-0.158815 0.0076,-0.04898 0.01356,-0.128348 0.01559,-0.198504 0.0025,-0.07385 8.22e-4,-0.145947 -0.0034,-0.195797 -0.0042,-0.0434 -0.0133,-0.114409 -0.02084,-0.157806 -0.0076,-0.0434 -0.02169,-0.110464 -0.03152,-0.14904 -0.0098,-0.03857 -0.0294,-0.105642 -0.04355,-0.149039 -0.01415,-0.0434 -0.03821,-0.110464 -0.05355,-0.149039 -0.01525,-0.03858 -0.04592,-0.109587 -0.0682,-0.157806 -0.0222,-0.04822 -0.05914,-0.121862 -0.0821,-0.163651 -0.02296,-0.04179 -0.06261,-0.110173 -0.08808,-0.151961 -0.0255,-0.04179 -0.0732,-0.115433 -0.106042,-0.163651 -0.03279,-0.04822 -0.08176,-0.117917 -0.108762,-0.154884 -0.02703,-0.03697 -0.07668,-0.102721 -0.110381,-0.146117 -0.03372,-0.0434 -0.09821,-0.12361 -0.143364,-0.178252 -0.04516,-0.05464 -0.117438,-0.140121 -0.160639,-0.189952 -0.04321,-0.04984 -0.100705,-0.114817 -0.1278,-0.144411 -0.04592,-0.05017 -0.05109,-0.05403 -0.07634,-0.05707 -0.01491,-0.0018 -0.06126,-0.01018 -0.10306,-0.01863 -0.04177,-0.0085 -0.11953,-0.02919 -0.172763,-0.04609 -0.05321,-0.0169 -0.138713,-0.04783 -0.189955,-0.06872 -0.05126,-0.02089 -0.13656,-0.05891 -0.189598,-0.08448 -0.05304,-0.02557 -0.142466,-0.07215 -0.198724,-0.103522 -0.05626,-0.03137 -0.14699,-0.08347 -0.201638,-0.115785 -0.05465,-0.03232 -0.159852,-0.09609 -0.233791,-0.141726 -0.07397,-0.04564 -0.188345,-0.117077 -0.254236,-0.158752 -0.06592,-0.04168 -0.180313,-0.114771 -0.254244,-0.162435 -0.07397,-0.04767 -0.233063,-0.152419 -0.35361,-0.232787 -0.120539,-0.08037 -0.319119,-0.214577 -0.441267,-0.298239 -0.122158,-0.08367 -0.372013,-0.255994 -0.555249,-0.382957 -0.183227,-0.126963 -0.409418,-0.284699 -0.502642,-0.350524 -0.09322,-0.06582 -0.235249,-0.167183 -0.315611,-0.225241 -0.0804,-0.05805 -0.20135,-0.14615 -0.26885,-0.195761 -0.06753,-0.04961 -0.187176,-0.138941 -0.265937,-0.198512 -0.07879,-0.05957 -0.198427,-0.151689 -0.265936,-0.204704 -0.06753,-0.05301 -0.171391,-0.136022 -0.23086,-0.184459 -0.05948,-0.04844 -0.162961,-0.135432 -0.229979,-0.193324 -0.06702,-0.05789 -0.13046,-0.11248 -0.140991,-0.121305 l -0.01915,-0.01605 -0.04779,0.05988 c -0.02627,0.03293 -0.08278,0.112484 -0.125538,0.176775 -0.04279,0.06429 -0.119819,0.185277 -0.171205,0.268855 -0.05143,0.08358 -0.152082,0.250591 -0.223768,0.371137 -0.07168,0.120547 -0.241315,0.403282 -0.376952,0.628303 -0.135637,0.22502 -0.313239,0.522221 -0.394668,0.660448 -0.08142,0.138227 -0.180016,0.305238 -0.219083,0.371137 -0.03906,0.0659 -0.124547,0.207925 -0.189955,0.315612 -0.06541,0.107689 -0.161436,0.264179 -0.213406,0.347758 -0.05194,0.08358 -0.121573,0.194044 -0.154692,0.245477 -0.03313,0.05143 -0.09714,0.148747 -0.142262,0.216253 -0.04516,0.06751 -0.109736,0.16219 -0.143584,0.210408 -0.03389,0.04822 -0.09475,0.132382 -0.135315,0.18703 -0.04058,0.05465 -0.112787,0.148016 -0.160496,0.207486 -0.0477,0.05947 -0.08168,0.104327 -0.07558,0.09968 0.0059,-0.0047 0.02194,-0.01862 0.03516,-0.03107 l 0.02398,-0.02262 0.0042,0.07198 c 0.0025,0.03959 0.0076,0.107486 0.01279,0.150882 0.0051,0.0434 0.0139,0.11178 0.02008,0.151962 0.0059,0.04019 0.01771,0.107249 0.02567,0.149039 0.0076,0.04179 0.02254,0.114118 0.03245,0.160729 0.0099,0.04661 0.03491,0.153184 0.05558,0.236828 0.02059,0.08364 0.05228,0.203314 0.07032,0.265932 0.01805,0.06262 0.04762,0.15988 0.06558,0.216135 0.01796,0.05626 0.0505,0.152253 0.07219,0.213331 0.02169,0.06108 0.05787,0.158582 0.08032,0.216679 0.02245,0.0581 0.06236,0.156429 0.08855,0.218514 0.02618,0.06209 0.07346,0.171041 0.105059,0.242127 0.0316,0.07109 0.07973,0.176586 0.106957,0.234449 0.02728,0.05786 0.08176,0.169641 0.121183,0.248399 0.0394,0.07875 0.103255,0.201057 0.141915,0.271778 0.03864,0.07072 0.103306,0.182392 0.143635,0.248161 0.04033,0.06576 0.110542,0.171236 0.156022,0.234372 0.0455,0.06314 0.120954,0.159243 0.167723,0.213568 0.04677,0.05433 0.126732,0.139852 0.177703,0.190057 0.051,0.05021 0.137382,0.127883 0.19203,0.172615 0.05465,0.04474 0.149329,0.115663 0.210407,0.157626 0.06109,0.04196 0.159708,0.10356 0.219177,0.136883 0.05948,0.03332 0.162046,0.08513 0.227945,0.115131 0.06592,0.03 0.17772,0.07534 0.2485,0.100766 0.07075,0.02543 0.187209,0.06227 0.258734,0.08186 0.07151,0.0196 0.188523,0.04744 0.259989,0.06187 0.07151,0.01443 0.186481,0.03425 0.255591,0.04404 0.06914,0.0098 0.190099,0.02253 0.268859,0.0283 0.0788,0.0058 0.21289,0.01084 0.298073,0.01126 0.08519,4.04e-4 0.219329,-0.0032 0.298081,-0.0081 z m 1.262452,-1.561455 c -0.02093,-9.32e-4 -0.07617,-0.0058 -0.122742,-0.011 -0.0466,-0.0051 -0.124199,-0.01576 -0.172416,-0.02367 -0.04821,-0.0079 -0.132384,-0.02377 -0.187032,-0.03526 -0.05465,-0.01149 -0.140119,-0.0313 -0.189946,-0.04402 -0.04982,-0.01272 -0.140568,-0.03765 -0.201646,-0.05539 -0.06109,-0.01773 -0.184693,-0.05556 -0.274697,-0.08406 -0.09001,-0.0285 -0.213627,-0.0688 -0.274697,-0.08954 -0.06109,-0.02075 -0.188641,-0.06583 -0.283466,-0.10019 -0.09483,-0.03436 -0.214499,-0.07682 -0.265936,-0.09436 -0.05143,-0.01754 -0.16058,-0.05256 -0.242552,-0.07781 -0.08193,-0.02526 -0.20296,-0.06046 -0.26886,-0.07823 -0.06592,-0.01777 -0.177677,-0.04727 -0.248398,-0.06556 -0.07074,-0.01829 -0.160614,-0.04321 -0.199757,-0.05538 -0.03914,-0.01217 -0.09438,-0.03054 -0.122742,-0.04084 -0.02838,-0.01029 -0.07922,-0.03057 -0.11293,-0.04505 -0.03372,-0.01448 -0.0903,-0.04229 -0.125656,-0.06179 -0.03533,-0.0195 -0.0906,-0.05395 -0.122742,-0.07656 -0.03211,-0.0226 -0.0821,-0.06314 -0.11105,-0.09009 -0.02889,-0.02694 -0.07439,-0.07569 -0.101043,-0.108335 -0.02669,-0.03264 -0.06786,-0.0909 -0.09156,-0.129477 -0.02372,-0.03858 -0.05905,-0.105115 -0.07846,-0.147869 -0.0194,-0.04275 -0.04863,-0.118459 -0.06498,-0.168235 -0.01635,-0.04978 -0.03991,-0.139727 -0.05236,-0.19989 -0.01423,-0.06874 -0.0272,-0.155404 -0.03482,-0.233212 -0.0091,-0.09197 -0.01212,-0.164897 -0.01203,-0.283468 5.9e-5,-0.0878 0.0025,-0.20996 0.0059,-0.271463 0.0034,-0.0615 0.01093,-0.173283 0.01728,-0.248399 0.0068,-0.07512 0.01957,-0.202327 0.02914,-0.282692 0.0097,-0.08036 0.0255,-0.200034 0.03533,-0.265933 0.0097,-0.0659 0.02957,-0.186927 0.04397,-0.268951 0.0144,-0.08202 0.03923,-0.2109 0.05516,-0.286389 0.01593,-0.07549 0.04109,-0.188541 0.05583,-0.251226 0.01474,-0.06269 0.04143,-0.169202 0.05914,-0.236709 0.01771,-0.06751 0.04931,-0.181915 0.07024,-0.254243 0.02084,-0.07233 0.06439,-0.213038 0.09662,-0.31269 0.03228,-0.09965 0.08614,-0.257035 0.119692,-0.349742 0.03355,-0.09271 0.08312,-0.224652 0.110067,-0.293214 0.02694,-0.06856 0.06532,-0.163668 0.08524,-0.211347 0.01991,-0.04768 0.0571,-0.132717 0.08269,-0.188972 0.02559,-0.05626 0.06244,-0.132411 0.08193,-0.169235 0.01949,-0.03682 0.0499,-0.09206 0.06761,-0.122738 0.01771,-0.03068 0.04389,-0.07357 0.05821,-0.09531 0.01432,-0.02174 0.0316,-0.04344 0.03847,-0.04822 0.0068,-0.0047 0.02347,-0.0087 0.03694,-0.0087 0.01771,0 0.0294,0.0041 0.04211,0.0148 0.0097,0.0081 0.0205,0.02354 0.02398,0.03423 0.0042,0.0141 0.0042,0.02406 0,0.03634 -0.0034,0.0093 -0.01898,0.03664 -0.0344,0.06075 -0.01533,0.02411 -0.04965,0.08278 -0.07617,0.130375 -0.02652,0.0476 -0.06795,0.129131 -0.09205,0.181186 -0.02415,0.05205 -0.06185,0.136924 -0.08379,0.188601 -0.02194,0.05167 -0.05821,0.139784 -0.08057,0.195796 -0.02237,0.05601 -0.06176,0.158388 -0.08754,0.227501 -0.02576,0.06911 -0.06397,0.174317 -0.08479,0.233787 -0.02084,0.05947 -0.0577,0.169934 -0.08193,0.245476 -0.02423,0.07554 -0.0588,0.187322 -0.07685,0.248399 -0.01805,0.06108 -0.04965,0.174171 -0.07024,0.251321 -0.02059,0.07715 -0.04948,0.191559 -0.06431,0.254243 -0.01483,0.06269 -0.03999,0.175766 -0.05609,0.251292 -0.01601,0.07553 -0.04067,0.201772 -0.05482,0.280545 -0.01415,0.07877 -0.03389,0.198456 -0.04389,0.265962 -0.01,0.06751 -0.02601,0.187175 -0.03558,0.265932 -0.0096,0.07876 -0.02406,0.218152 -0.03211,0.309768 -0.01127,0.127992 -0.0155,0.221399 -0.01813,0.403283 -0.0034,0.215375 -0.0025,0.247772 0.0092,0.359447 0.0068,0.06751 0.0216,0.166218 0.03253,0.219361 0.01101,0.05314 0.03203,0.133734 0.04668,0.179095 0.01466,0.04536 0.04228,0.116821 0.06143,0.158804 0.01906,0.04198 0.05092,0.102102 0.07066,0.133596 0.01983,0.03149 0.05516,0.08113 0.07854,0.110313 0.02338,0.02918 0.06456,0.07306 0.09141,0.09752 0.02686,0.02446 0.06829,0.05815 0.09213,0.07486 0.02381,0.01672 0.06592,0.04354 0.09352,0.0596 0.02762,0.01606 0.07846,0.04186 0.11299,0.05733 0.03448,0.01548 0.09238,0.0387 0.128579,0.05161 0.03618,0.01291 0.09607,0.03253 0.133036,0.0436 0.03694,0.01107 0.125072,0.03502 0.195801,0.05324 0.07075,0.01821 0.177237,0.04635 0.236706,0.06254 0.05948,0.01618 0.155471,0.04378 0.21333,0.06132 0.05787,0.01754 0.153861,0.04781 0.21333,0.06727 0.05948,0.01946 0.202808,0.06948 0.318534,0.111174 0.115726,0.04168 0.280111,0.09913 0.365294,0.127659 0.08518,0.02853 0.202222,0.06665 0.26009,0.08473 0.05787,0.01807 0.158216,0.04834 0.223006,0.06726 0.06481,0.01892 0.159868,0.04497 0.21128,0.0579 0.05143,0.01292 0.129901,0.03126 0.174424,0.04074 0.04457,0.0095 0.113837,0.02285 0.154014,0.0297 0.04016,0.0069 0.111202,0.01733 0.157809,0.02331 0.0466,0.0059 0.126834,0.01265 0.178263,0.01484 0.05804,0.0025 0.12458,0.0014 0.175339,-0.003 0.04499,-0.0038 0.115803,-0.01332 0.157335,-0.02111 0.04152,-0.0078 0.107288,-0.02367 0.146118,-0.03526 0.0388,-0.01159 0.103483,-0.03415 0.143669,-0.05014 0.04016,-0.01599 0.105932,-0.0464 0.146117,-0.0676 0.04016,-0.0212 0.103382,-0.05877 0.140441,-0.08351 0.03702,-0.02473 0.0923,-0.06591 0.122742,-0.09151 0.03042,-0.0256 0.07981,-0.07238 0.10966,-0.103953 0.02991,-0.03157 0.07541,-0.08658 0.101272,-0.122232 0.02584,-0.03565 0.06371,-0.09639 0.08413,-0.134963 0.02042,-0.03858 0.04795,-0.09775 0.06109,-0.131505 0.01313,-0.03375 0.03296,-0.09425 0.04397,-0.134428 0.01101,-0.04018 0.02423,-0.09804 0.02923,-0.128583 0.0051,-0.03054 0.01169,-0.08183 0.015,-0.113971 0.0034,-0.03214 0.0059,-0.104755 0.0059,-0.161356 -6e-5,-0.06527 -0.0042,-0.137945 -0.01152,-0.198717 -0.0059,-0.0527 -0.01822,-0.128688 -0.02643,-0.16887 -0.0085,-0.04018 -0.02305,-0.10199 -0.03296,-0.137349 -0.0099,-0.03536 -0.03059,-0.0998 -0.04601,-0.143195 -0.01542,-0.0434 -0.0444,-0.115648 -0.06431,-0.16056 -0.01991,-0.04491 -0.04956,-0.106717 -0.06583,-0.137349 -0.01627,-0.03063 -0.05075,-0.0912 -0.07659,-0.134597 -0.02584,-0.0434 -0.07015,-0.113704 -0.09847,-0.156236 -0.02838,-0.04253 -0.07693,-0.11223 -0.107983,-0.154883 -0.03101,-0.04265 -0.08295,-0.111743 -0.115328,-0.153533 -0.03245,-0.04179 -0.08379,-0.106227 -0.1141,-0.143195 -0.03033,-0.03697 -0.08823,-0.105242 -0.128656,-0.151721 -0.04041,-0.04648 -0.120818,-0.132991 -0.178677,-0.19225 -0.05787,-0.05926 -0.145974,-0.143531 -0.195801,-0.187271 -0.04982,-0.04374 -0.15409,-0.131502 -0.231698,-0.195028 -0.07761,-0.06353 -0.159216,-0.133223 -0.181347,-0.154884 -0.02211,-0.02166 -0.04499,-0.0495 -0.05083,-0.06187 -0.0068,-0.01523 -0.0094,-0.02882 -0.0068,-0.04215 0.0017,-0.01081 0.01135,-0.02732 0.02076,-0.03669 0.0094,-0.0094 0.02406,-0.01838 0.03279,-0.02004 0.0086,-0.0017 0.02313,-9.32e-4 0.03211,0.0017 0.009,0.0026 0.03821,0.02682 0.0649,0.05385 0.02669,0.02703 0.107678,0.09742 0.180008,0.156426 0.07235,0.059 0.151226,0.124304 0.175339,0.145112 0.02415,0.02081 0.08193,0.07273 0.12858,0.115376 0.0466,0.04265 0.117768,0.112601 0.158131,0.15545 0.04033,0.04284 0.08774,0.09369 0.105297,0.112975 0.01754,0.01928 0.06227,0.07058 0.09942,0.113971 0.03711,0.0434 0.104195,0.124929 0.14904,0.181185 0.04482,0.05626 0.11327,0.145677 0.152057,0.198719 0.0388,0.05304 0.09679,0.135888 0.128884,0.184107 0.03211,0.04822 0.07947,0.123176 0.105272,0.166572 0.02584,0.0434 0.06176,0.107032 0.0799,0.141413 0.01813,0.03438 0.04906,0.09882 0.0688,0.143195 0.01966,0.04438 0.04846,0.116191 0.06397,0.159588 0.0155,0.0434 0.03753,0.111779 0.04897,0.151962 0.01144,0.04019 0.02881,0.11251 0.03855,0.160728 0.0097,0.04822 0.02322,0.133697 0.02991,0.189953 0.01042,0.08772 0.01169,0.123079 0.0088,0.248398 -0.0025,0.117998 -0.0059,0.161863 -0.01754,0.227942 -0.0076,0.04501 -0.02271,0.113387 -0.03296,0.151961 -0.01025,0.03858 -0.03313,0.107593 -0.05075,0.153372 -0.01762,0.04578 -0.05109,0.118107 -0.07422,0.160728 -0.02322,0.04263 -0.06371,0.107393 -0.09014,0.143935 -0.02635,0.03654 -0.0721,0.09258 -0.101603,0.124538 -0.02948,0.03195 -0.08405,0.08385 -0.121157,0.115333 -0.0372,0.03148 -0.100434,0.0795 -0.140611,0.106707 -0.04016,0.02721 -0.108567,0.06816 -0.151963,0.09101 -0.04338,0.02285 -0.115727,0.05652 -0.160733,0.07483 -0.04499,0.01831 -0.119963,0.04445 -0.16657,0.05811 -0.0466,0.01365 -0.122886,0.03163 -0.169493,0.03996 -0.0466,0.0083 -0.11843,0.01789 -0.159589,0.02126 -0.04118,0.0034 -0.09771,0.0056 -0.125665,0.005 -0.02796,-6.44e-4 -0.06795,-0.0019 -0.08881,-0.0028 z M 9.7218441,21.195199 c 0.044057,-0.0049 0.1141167,-0.01572 0.1557,-0.02395 0.0416,-0.0082 0.1111936,-0.02546 0.1546749,-0.0383 0.04346,-0.01284 0.111431,-0.03625 0.150981,-0.05203 0.03957,-0.01578 0.100298,-0.04293 0.135001,-0.06033 0.03474,-0.0174 0.09444,-0.05057 0.132748,-0.0737 0.0383,-0.02313 0.101222,-0.06448 0.139814,-0.0919 0.03863,-0.02742 0.09783,-0.07238 0.131629,-0.09993 0.03381,-0.02754 0.09478,-0.07977 0.135536,-0.116055 0.04075,-0.03628 0.117573,-0.10826 0.17073,-0.159948 0.05312,-0.05169 0.141178,-0.143096 0.195614,-0.203131 0.05448,-0.06004 0.123394,-0.138083 0.153235,-0.173444 0.02982,-0.03536 0.08362,-0.101113 0.119505,-0.146116 0.03592,-0.04501 0.09934,-0.127853 0.140991,-0.184108 0.04169,-0.05626 0.09684,-0.132528 0.122641,-0.169496 0.02584,-0.03696 0.07464,-0.10798 0.108474,-0.157806 0.03389,-0.04983 0.09565,-0.143194 0.137306,-0.207486 0.04168,-0.06429 0.133645,-0.210262 0.204416,-0.324379 0.07075,-0.114117 0.182719,-0.297118 0.248771,-0.406668 0.06609,-0.109551 0.202918,-0.339685 0.304148,-0.51141 0.101221,-0.171725 0.241815,-0.408225 0.312416,-0.525557 0.07058,-0.117332 0.182304,-0.302754 0.24822,-0.412049 0.06592,-0.109296 0.182482,-0.303924 0.259048,-0.432507 0.07659,-0.128583 0.174653,-0.291649 0.217965,-0.36237 0.04329,-0.07072 0.116726,-0.186206 0.163156,-0.256635 0.04643,-0.07043 0.100527,-0.149332 0.120208,-0.17534 0.01966,-0.02601 0.051,-0.06546 0.06956,-0.08767 l 0.0338,-0.04038 -0.05973,-0.0621 c -0.03287,-0.03416 -0.07981,-0.08437 -0.104221,-0.111583 -0.0244,-0.02721 -0.06854,-0.07937 -0.09808,-0.115902 -0.02948,-0.03653 -0.07947,-0.103603 -0.111084,-0.149039 -0.0316,-0.04544 -0.07591,-0.114173 -0.09847,-0.152748 -0.02254,-0.03858 -0.05939,-0.106958 -0.08193,-0.151961 -0.02245,-0.04501 -0.05533,-0.116017 -0.07303,-0.157807 -0.01771,-0.04179 -0.03931,-0.09785 -0.04812,-0.12457 -0.0087,-0.02672 -0.01686,-0.04766 -0.01796,-0.04652 -8.47e-4,0.0011 0.0017,0.02037 0.0068,0.04274 0.0051,0.02238 0.0085,0.04213 0.0085,0.04391 0,0.0018 -0.06507,-0.01312 -0.144651,-0.03311 -0.07956,-0.01999 -0.190683,-0.0459 -0.246941,-0.0576 -0.05626,-0.01169 -0.170663,-0.03277 -0.254244,-0.04685 -0.08354,-0.01408 -0.212449,-0.03359 -0.286389,-0.04335 -0.07396,-0.0098 -0.18571,-0.02299 -0.248398,-0.02938 -0.0627,-0.0064 -0.161309,-0.01566 -0.219177,-0.02059 -0.05787,-0.0049 -0.163062,-0.01289 -0.233782,-0.01767 -0.07075,-0.0047 -0.20091,-0.0126 -0.289312,-0.01735 -0.0884,-0.0047 -0.239629,-0.01201 -0.336072,-0.01612 -0.113363,-0.0048 -0.381925,-0.0075 -0.759801,-0.0075 -0.396481,-5.9e-5 -0.6361695,0.0024 -0.7452027,0.0075 -0.088402,0.0042 -0.2527784,0.01406 -0.3652938,0.02189 -0.1125069,0.0079 -0.2834659,0.02205 -0.3799004,0.03159 -0.096434,0.0095 -0.2410948,0.02539 -0.3214568,0.03524 -0.080405,0.0098 -0.2315971,0.02982 -0.336072,0.04439 -0.1044665,0.01456 -0.2649026,0.03824 -0.3565247,0.05261 -0.091614,0.01438 -0.2404847,0.03914 -0.3308275,0.05505 -0.090334,0.0159 -0.2402559,0.04362 -0.3331404,0.06158 -0.092893,0.01796 -0.2425351,0.0484 -0.3325474,0.06764 -0.090004,0.01924 -0.2215147,0.04812 -0.292235,0.06417 -0.070746,0.01606 -0.2101107,0.04902 -0.3097647,0.07325 -0.099654,0.02424 -0.2364179,0.05848 -0.3039272,0.0761 -0.067526,0.01761 -0.1858537,0.04917 -0.2630047,0.07013 -0.077185,0.02095 -0.2139148,0.05912 -0.3039271,0.08482 -0.090004,0.0257 -0.2241412,0.06475 -0.2980811,0.0868 -0.073965,0.02204 -0.2151687,0.06519 -0.3138485,0.09589 -0.098688,0.0307 -0.2854231,0.08993 -0.4149768,0.131624 -0.1295452,0.04169 -0.3328524,0.10856 -0.4517984,0.148591 -0.1189376,0.04003 -0.2688508,0.09163 -0.3331405,0.11467 -0.064307,0.02304 -0.1931655,0.07097 -0.2863889,0.106532 -0.093223,0.03556 -0.2260475,0.08815 -0.2951581,0.116866 -0.069136,0.02872 -0.1769491,0.07494 -0.239629,0.102707 -0.062697,0.02777 -0.1784148,0.0826 -0.2571671,0.121854 -0.078795,0.03925 -0.1813294,0.09341 -0.2279454,0.120342 -0.046599,0.02693 -0.1149893,0.06892 -0.1519635,0.0933 -0.03694,0.02438 -0.091283,0.06294 -0.1207084,0.08569 -0.0294,0.02275 -0.077863,0.06449 -0.1076521,0.09276 -0.029823,0.02826 -0.069729,0.07235 -0.088809,0.09796 -0.019063,0.02561 -0.043718,0.06467 -0.054902,0.08681 -0.011184,0.02214 -0.026011,0.05772 -0.033043,0.0791 -0.01076,0.03266 -0.012709,0.05189 -0.012539,0.120679 2.457e-4,0.07814 8.472e-4,0.08477 0.02169,0.147265 0.011777,0.03599 0.034568,0.09157 0.050581,0.123517 0.016013,0.03194 0.044057,0.08272 0.062273,0.112823 0.018216,0.03011 0.054902,0.08499 0.081506,0.121959 0.026604,0.03697 0.074558,0.09746 0.106644,0.134427 0.032026,0.03697 0.097434,0.105429 0.1452617,0.152134 0.04787,0.04671 0.1185225,0.112514 0.157098,0.146239 0.03855,0.03373 0.1095839,0.09301 0.1578011,0.131747 0.048209,0.03874 0.1323835,0.103378 0.1870314,0.143649 0.054648,0.04027 0.1401274,0.101749 0.1899545,0.136618 0.049819,0.03486 0.1523957,0.104527 0.2279369,0.154797 0.075575,0.05027 0.1952159,0.127829 0.2659362,0.172355 0.070746,0.04452 0.2022227,0.124726 0.2922351,0.178221 0.090004,0.05349 0.2280893,0.134151 0.3068416,0.179234 0.078795,0.04508 0.2168379,0.122731 0.3068502,0.17255 0.090004,0.04982 0.2215062,0.121683 0.2922265,0.159698 0.070746,0.03802 0.2614035,0.136246 0.4237459,0.218288 0.162334,0.08204 0.3661664,0.183083 0.4529592,0.224532 0.086793,0.04145 0.231453,0.109617 0.3214568,0.151483 0.090012,0.04186 0.2596496,0.119476 0.3769859,0.17247 0.1173278,0.053 0.3053844,0.136543 0.4178913,0.185662 0.112507,0.04912 0.2703166,0.116937 0.3506787,0.150704 0.08032,0.03377 0.2047136,0.08534 0.2763235,0.114612 0.071593,0.02927 0.2096955,0.08456 0.3068502,0.122861 0.097146,0.0383 0.2116526,0.08314 0.2544475,0.09963 0.042786,0.0165 0.1322225,0.04989 0.1987235,0.07421 0.066509,0.02432 0.1629863,0.05878 0.2144147,0.07657 0.051428,0.01779 0.1421778,0.0479 0.2016466,0.0669 0.059477,0.019 0.1580976,0.04862 0.2191762,0.0658 0.061087,0.01718 0.1570725,0.04189 0.2133302,0.0549 0.056258,0.01301 0.1469902,0.03158 0.2016381,0.04125 0.054648,0.0097 0.1335527,0.02166 0.1753393,0.02661 0.04177,0.005 0.094393,0.0098 0.1168957,0.01082 0.022537,10e-4 0.08509,0.0023 0.1390853,0.003 0.057867,6.45e-4 0.1310364,-0.0025 0.1782624,-0.0079 z M 8.3203073,19.77457 C 8.2608303,19.77067 8.1727325,19.76095 8.1245068,19.7529 8.0762978,19.7449 7.9947582,19.72759 7.9433299,19.71454 7.8919019,19.70148 7.8077268,19.67651 7.7562984,19.65903 7.7048704,19.64155 7.629905,19.61413 7.5897197,19.59807 7.5495597,19.58201 7.481161,19.55199 7.4377646,19.53133 7.3943856,19.51068 7.3286128,19.47718 7.2916471,19.4569 7.2547071,19.43662 7.1955011,19.40284 7.1601363,19.38184 7.1248053,19.36085 7.0629733,19.32258 7.0227879,19.29683 6.9826279,19.27107 6.9194821,19.22891 6.8825164,19.20313 6.8455764,19.17736 6.7797953,19.12938 6.7363989,19.096513 6.6930199,19.063643 6.5956869,18.986121 6.5201457,18.924225 6.4445707,18.862325 6.3538635,18.790236 6.3185076,18.764018 6.2831766,18.737808 6.2370866,18.704838 6.216227,18.690768 6.1953,18.676678 6.141414,18.643178 6.0964083,18.616308 6.0514191,18.589442 5.9554082,18.5377 5.8830781,18.501335 5.8107225,18.464971 5.6687227,18.398366 5.5674673,18.353327 5.4662035,18.308287 5.345224,18.253907 5.298608,18.232481 5.252009,18.211051 5.1612596,18.166501 5.09697,18.133471 5.032663,18.100431 4.946972,18.053551 4.9065156,18.029264 c -0.040499,-0.02428 -0.099637,-0.06204 -0.1315024,-0.08392 -0.031857,-0.02188 -0.078964,-0.05681 -0.1047037,-0.07763 -0.025672,-0.02082 -0.072525,-0.06306 -0.1040767,-0.09386 -0.031518,-0.03081 -0.073965,-0.07836 -0.094308,-0.105686 -0.020334,-0.02732 -0.047785,-0.07131 -0.061002,-0.09776 -0.013217,-0.02644 -0.031772,-0.0751 -0.041346,-0.108126 -0.011862,-0.04123 -0.01847,-0.0802 -0.021181,-0.12434 -0.00339,-0.05386 -0.00169,-0.07473 0.00907,-0.128583 0.00763,-0.03919 0.024147,-0.09152 0.041685,-0.134017 0.01703,-0.04125 0.047192,-0.0985 0.073965,-0.140195 0.026689,-0.04163 0.071508,-0.09956 0.1094822,-0.141566 0.035331,-0.0391 0.098485,-0.100979 0.1402714,-0.137503 0.04177,-0.03652 0.1142354,-0.09429 0.1609784,-0.128378 0.046768,-0.03409 0.1298587,-0.08971 0.1846845,-0.123607 0.054817,-0.0339 0.1546494,-0.09041 0.2218451,-0.125565 0.067187,-0.03516 0.1806262,-0.08934 0.2520752,-0.120407 0.071423,-0.03106 0.1955548,-0.08016 0.2757983,-0.109095 0.080235,-0.02894 0.2111527,-0.07242 0.2909048,-0.09664 0.079727,-0.02421 0.2253104,-0.06487 0.3234394,-0.09036 0.098129,-0.02548 0.2491352,-0.06231 0.3355721,-0.08183 0.086428,-0.01952 0.240222,-0.05254 0.341757,-0.07338 0.101535,-0.02084 0.2332661,-0.0469 0.2927349,-0.0579 0.059477,-0.01101 0.1659856,-0.03055 0.236706,-0.04345 0.070746,-0.0129 0.2206335,-0.03917 0.3331489,-0.05838 0.1125069,-0.01921 0.2782045,-0.04684 0.3682083,-0.06139 0.090012,-0.01456 0.2662328,-0.04218 0.3916011,-0.06138 0.1253682,-0.01921 0.3028934,-0.04552 0.3945155,-0.05849 0.091614,-0.01296 0.2454751,-0.03401 0.3419096,-0.04678 0.096434,-0.01277 0.2634453,-0.03382 0.3711398,-0.04678 0.1076861,-0.01296 0.2720707,-0.03144 0.3652857,-0.04108 0.09322,-0.0096 0.224734,-0.02281 0.292235,-0.02927 0.06753,-0.0064 0.180601,-0.01701 0.251321,-0.02344 0.07075,-0.0064 0.250889,-0.02217 0.400361,-0.03499 0.149482,-0.01282 0.353314,-0.0299 0.452968,-0.03794 0.09965,-0.008 0.196961,-0.01601 0.216253,-0.0177 0.01932,-0.0017 0.120539,-0.0083 0.225014,-0.01477 0.104475,-0.0064 0.239926,-0.01575 0.301004,-0.0207 0.06109,-0.0049 0.15576,-0.01374 0.210407,-0.01954 0.07617,-0.008 0.104077,-0.009 0.119599,-0.0042 0.01203,0.0038 0.02567,0.01445 0.03364,0.02628 0.0076,0.01092 0.01339,0.02749 0.01339,0.03682 0,0.0093 -0.0042,0.02467 -0.0089,0.0341 -0.0051,0.0094 -0.01695,0.02134 -0.02686,0.02647 -0.0099,0.0052 -0.05126,0.01295 -0.09195,0.01738 -0.04067,0.0044 -0.138357,0.0134 -0.217118,0.01994 -0.07879,0.0065 -0.229987,0.01727 -0.336071,0.02384 -0.106077,0.0066 -0.304648,0.02112 -0.441268,0.03231 -0.136619,0.01119 -0.354923,0.02954 -0.485112,0.04077 -0.130189,0.01123 -0.322186,0.02834 -0.42666,0.03802 -0.104475,0.0097 -0.229403,0.02139 -0.277621,0.026 -0.04821,0.0047 -0.163079,0.01635 -0.255235,0.02607 -0.09216,0.0097 -0.2433907,0.02698 -0.3360719,0.03836 -0.092673,0.01138 -0.2474067,0.03109 -0.3438413,0.04379 -0.096434,0.0127 -0.2766031,0.03771 -0.4003616,0.05556 -0.1237585,0.01786 -0.2763066,0.04035 -0.338995,0.05 -0.062697,0.0096 -0.2047051,0.03209 -0.3156107,0.04989 -0.1108972,0.0178 -0.2226839,0.03599 -0.2483981,0.04042 -0.025672,0.0044 -0.1256563,0.02147 -0.2220993,0.03787 -0.096434,0.0164 -0.2542441,0.04424 -0.3506786,0.06186 -0.096434,0.01762 -0.2687068,0.05061 -0.3828235,0.07331 -0.1141167,0.0227 -0.2942769,0.06089 -0.4003616,0.08487 -0.1060848,0.02398 -0.2441618,0.05678 -0.3068417,0.07289 -0.062697,0.01611 -0.1336968,0.03462 -0.1578096,0.04114 -0.024147,0.0065 -0.1095924,0.03154 -0.1899545,0.05561 -0.080405,0.02407 -0.2105512,0.06687 -0.289312,0.09512 -0.078795,0.02825 -0.2014178,0.07669 -0.2725787,0.107657 -0.071169,0.03097 -0.1803127,0.08279 -0.242552,0.115179 -0.062273,0.03239 -0.1565642,0.08556 -0.2096108,0.118175 -0.053038,0.03261 -0.1358826,0.08817 -0.1840999,0.123473 -0.048209,0.0353 -0.1179632,0.09117 -0.1549967,0.124166 -0.037025,0.03299 -0.09269,0.08836 -0.1237077,0.123046 -0.03101,0.03469 -0.072779,0.08805 -0.092868,0.11859 -0.02008,0.03054 -0.047446,0.08183 -0.060918,0.113971 -0.013471,0.03214 -0.029146,0.08301 -0.034992,0.11305 -0.00763,0.03969 -0.00949,0.06762 -0.00678,0.102282 0.00169,0.02622 0.00856,0.06609 0.014573,0.08859 0.00593,0.0225 0.020842,0.06064 0.033043,0.08475 0.012201,0.02411 0.034144,0.05961 0.048887,0.07891 0.014742,0.01928 0.041346,0.05053 0.059138,0.06942 0.017792,0.01889 0.05863,0.05598 0.090809,0.0824 0.032111,0.02643 0.083455,0.0652 0.1139642,0.08615 0.030501,0.02096 0.077015,0.0515 0.1032888,0.06786 0.026265,0.01636 0.072271,0.04339 0.102289,0.06006 0.029993,0.01667 0.098714,0.05236 0.1527346,0.0793 0.054055,0.02694 0.164486,0.0788 0.245475,0.115248 0.080998,0.03645 0.1959107,0.08803 0.2553795,0.11463 0.059477,0.0266 0.1580977,0.07325 0.2191763,0.103669 0.061087,0.03042 0.1281472,0.06466 0.1490405,0.07609 0.020927,0.01144 0.064307,0.03657 0.096434,0.05584 0.032111,0.01928 0.088699,0.05531 0.1256648,0.08007 0.03694,0.02477 0.1040344,0.07336 0.1490405,0.108001 0.044989,0.03464 0.1186411,0.09359 0.1636472,0.130996 0.044989,0.03741 0.094977,0.07877 0.1110497,0.09191 0.016098,0.01314 0.067187,0.05224 0.1135321,0.0869 0.046345,0.03465 0.1279015,0.09259 0.1811853,0.128736 0.053292,0.03615 0.1481679,0.09642 0.2108478,0.133944 0.062697,0.03752 0.1639437,0.09285 0.2250223,0.122958 0.061087,0.0301 0.1452364,0.06841 0.1870314,0.08514 0.04177,0.01672 0.1141167,0.0433 0.1607242,0.05908 0.046599,0.01578 0.1262409,0.03917 0.1769576,0.05198 0.050751,0.01281 0.1335697,0.0296 0.1841084,0.0373 0.050581,0.0077 0.1195137,0.01589 0.1532683,0.01821 0.033721,0.0023 0.1128797,0.0038 0.1758392,0.0034 0.078032,-5.63e-4 0.1542935,-0.0053 0.239629,-0.01506 0.068797,-0.0078 0.1711878,-0.02251 0.2274455,-0.03265 0.056258,-0.01014 0.151828,-0.02999 0.2123897,-0.04413 0.060579,-0.01413 0.1591822,-0.04008 0.2191678,-0.05768 0.059986,-0.0176 0.1577334,-0.05013 0.2172022,-0.07231 0.059477,-0.02218 0.1502097,-0.05913 0.2016381,-0.08212 0.051428,-0.02299 0.140856,-0.06769 0.1987232,-0.09934 0.05787,-0.03165 0.147304,-0.08505 0.198766,-0.118668 0.05143,-0.03362 0.13551,-0.09221 0.18676,-0.130204 0.05126,-0.038 0.122234,-0.09293 0.157751,-0.122088 0.0355,-0.02915 0.105331,-0.08858 0.155158,-0.132053 0.04982,-0.04347 0.126097,-0.111741 0.169493,-0.151699 0.04338,-0.03996 0.142161,-0.136005 0.219481,-0.213438 0.07735,-0.07743 0.174857,-0.178923 0.216762,-0.225535 0.04194,-0.04661 0.116751,-0.133405 0.166316,-0.192874 0.04956,-0.05947 0.12314,-0.150208 0.163486,-0.201642 0.04033,-0.05144 0.120675,-0.156637 0.178491,-0.233787 0.05787,-0.07715 0.134214,-0.181039 0.169756,-0.230864 0.03559,-0.04983 0.100027,-0.14188 0.143296,-0.204564 0.0433,-0.06269 0.123039,-0.179724 0.17728,-0.260088 0.05422,-0.08036 0.134095,-0.197404 0.177449,-0.260088 0.04338,-0.06269 0.131451,-0.187614 0.195766,-0.277622 0.06431,-0.09001 0.148448,-0.205733 0.186939,-0.257166 0.03847,-0.05144 0.08456,-0.110311 0.102416,-0.130841 0.01779,-0.02053 0.04075,-0.0408 0.05092,-0.04504 0.01356,-0.0057 0.02406,-0.0062 0.03931,-0.0019 0.01144,0.0031 0.02762,0.01378 0.03584,0.02357 0.01093,0.01295 0.015,0.02453 0.015,0.04245 0,0.02227 -0.0051,0.03109 -0.05329,0.0916 -0.02932,0.03683 -0.09858,0.128773 -0.153887,0.204316 -0.05532,0.07554 -0.1532,0.212307 -0.217532,0.303923 -0.06431,0.09162 -0.180957,0.261256 -0.259133,0.376981 -0.0782,0.115725 -0.175051,0.25775 -0.215253,0.315613 -0.04016,0.05786 -0.11122,0.157806 -0.15781,0.222097 -0.0466,0.06429 -0.108423,0.148455 -0.137399,0.18703 -0.02898,0.03858 -0.0843,0.110902 -0.122988,0.160728 -0.03863,0.04983 -0.09798,0.124784 -0.131799,0.166574 -0.03381,0.04179 -0.09167,0.111487 -0.128579,0.154883 -0.03694,0.0434 -0.102704,0.118264 -0.146228,0.166373 -0.04355,0.04811 -0.123877,0.132272 -0.17855,0.18703 -0.05465,0.05476 -0.14422,0.141641 -0.198986,0.193075 -0.05473,0.05144 -0.141543,0.130426 -0.192827,0.17554 -0.05126,0.04512 -0.135323,0.116319 -0.18676,0.158235 -0.05143,0.04191 -0.132968,0.105054 -0.181186,0.140309 -0.04821,0.03525 -0.129359,0.09115 -0.180312,0.124201 -0.05092,0.03305 -0.139069,0.08556 -0.195801,0.116677 -0.05677,0.03112 -0.1544374,0.07947 -0.2171173,0.107456 -0.062697,0.02799 -0.1601989,0.06783 -0.2166938,0.08854 -0.056512,0.02071 -0.1564456,0.05341 -0.2220993,0.07265 -0.065662,0.01924 -0.1660365,0.04587 -0.2230652,0.05917 -0.05702,0.0133 -0.1543443,0.03327 -0.2162532,0.04436 -0.061934,0.0111 -0.1585891,0.02556 -0.2148468,0.03214 -0.056258,0.0066 -0.145677,0.01329 -0.1987151,0.01491 -0.053038,0.0016 -0.1056442,0.0036 -0.1168957,0.0045 -0.011268,8.47e-4 -0.069136,-0.0016 -0.1285793,-0.0055 z M 19.922178,19.115052 c 0.01457,-0.0019 0.03508,-0.0088 0.04567,-0.01523 0.01051,-0.0064 0.02296,-0.02072 0.02754,-0.03179 0.0051,-0.01212 0.0085,-0.03974 0.0085,-0.06937 0,-0.02707 -0.0042,-0.0699 -0.0087,-0.09516 -0.0051,-0.02527 -0.01771,-0.07487 -0.02864,-0.110234 -0.01093,-0.03536 -0.03321,-0.09768 -0.04948,-0.138485 -0.01635,-0.0408 -0.04694,-0.111228 -0.06812,-0.15649 -0.02118,-0.04526 -0.06227,-0.126285 -0.09132,-0.180049 -0.02906,-0.05377 -0.07405,-0.133261 -0.09998,-0.176657 -0.02593,-0.0434 -0.08286,-0.134136 -0.126495,-0.201642 -0.04363,-0.06751 -0.117395,-0.17797 -0.16385,-0.245476 -0.04643,-0.06751 -0.122556,-0.17534 -0.169121,-0.239632 -0.0466,-0.06429 -0.124165,-0.169496 -0.172442,-0.233787 -0.04829,-0.06429 -0.135171,-0.17607 -0.19308,-0.248399 -0.05787,-0.07233 -0.148634,-0.182792 -0.201596,-0.245476 -0.05295,-0.06269 -0.145016,-0.169203 -0.204553,-0.236709 -0.05956,-0.06751 -0.156979,-0.176655 -0.216558,-0.242555 -0.05956,-0.0659 -0.17012,-0.186883 -0.245653,-0.268855 -0.07558,-0.08197 -0.200503,-0.216106 -0.277688,-0.298078 -0.07719,-0.08197 -0.175771,-0.185861 -0.219066,-0.230864 -0.04329,-0.04501 -0.119624,-0.123908 -0.169612,-0.175341 -0.04999,-0.05144 -0.207653,-0.213184 -0.350365,-0.359447 -0.142703,-0.146264 -0.414875,-0.421217 -0.604812,-0.611007 -0.189938,-0.189792 -0.405835,-0.400584 -0.479767,-0.468427 -0.07396,-0.06784 -0.171247,-0.155518 -0.216253,-0.194832 -0.04499,-0.03931 -0.125224,-0.106213 -0.178262,-0.148665 -0.05304,-0.04246 -0.120107,-0.09441 -0.149041,-0.115465 -0.02889,-0.02105 -0.07888,-0.05531 -0.11105,-0.07612 -0.03211,-0.02081 -0.09,-0.05578 -0.128579,-0.07771 -0.03855,-0.02193 -0.100383,-0.05417 -0.137357,-0.07166 -0.03694,-0.01748 -0.0956,-0.0422 -0.130307,-0.05494 -0.03465,-0.01273 -0.08117,-0.02815 -0.103247,-0.03427 -0.02211,-0.0061 -0.06304,-0.01512 -0.0911,-0.02001 -0.02804,-0.0049 -0.0749,-0.0088 -0.104229,-0.0088 -0.02932,5.8e-5 -0.06778,0.0035 -0.08545,0.0076 -0.01771,0.0042 -0.03652,0.01004 -0.04194,0.01306 -0.0051,0.003 -0.01745,0.01601 -0.02686,0.02887 -0.0122,0.01672 -0.03482,0.03324 -0.07939,0.05802 -0.03431,0.01905 -0.0832,0.05133 -0.108669,0.07172 -0.0255,0.02039 -0.0638,0.05609 -0.0852,0.07933 -0.02135,0.02324 -0.06092,0.07152 -0.08795,0.107289 -0.02703,0.03577 -0.0677,0.09495 -0.09041,0.131505 -0.02271,0.03656 -0.05948,0.103291 -0.08176,0.148295 -0.02228,0.04501 -0.04956,0.104799 -0.06075,0.132878 -0.0111,0.02808 -0.02694,0.07805 -0.03508,0.111049 -0.0085,0.033 -0.01847,0.08301 -0.02288,0.111137 -0.0042,0.02813 -0.0059,0.05114 -0.0042,0.05114 0.0025,0 0.0059,0.04142 0.0076,0.09205 0.0017,0.05063 0.0076,0.122299 0.01296,0.159267 0.0051,0.03697 0.01728,0.09808 0.02677,0.135811 0.0095,0.03773 0.02745,0.0969 0.03982,0.131505 0.01245,0.0346 0.03321,0.08675 0.04609,0.115889 0.01296,0.02914 0.03855,0.08306 0.05694,0.119816 0.01839,0.03676 0.05134,0.09708 0.0732,0.134049 0.02186,0.03697 0.05982,0.0961 0.08422,0.131394 0.02449,0.0353 0.07566,0.102456 0.113854,0.149237 0.03821,0.04678 0.116328,0.133377 0.17367,0.192438 0.05736,0.05906 0.155556,0.153657 0.218236,0.210213 0.0627,0.05655 0.150795,0.134477 0.195801,0.173158 0.04499,0.03868 0.118641,0.100645 0.163647,0.137698 0.04499,0.03705 0.133112,0.108027 0.195801,0.157723 0.0627,0.0497 0.153666,0.120978 0.202188,0.158404 0.04855,0.03742 0.156353,0.119067 0.239629,0.181423 0.08329,0.06236 0.232944,0.172592 0.332599,0.244967 0.09965,0.07237 0.253515,0.18285 0.341918,0.245502 0.08839,0.06265 0.268562,0.188904 0.400353,0.28056 0.131799,0.09166 0.35799,0.24821 0.502642,0.347898 0.14466,0.09969 0.326134,0.22412 0.403285,0.276515 0.07718,0.05239 0.217863,0.146637 0.312687,0.209427 0.09483,0.06279 0.221083,0.14571 0.280552,0.184269 0.05948,0.03856 0.162037,0.104255 0.227937,0.145991 0.06592,0.04174 0.184252,0.115799 0.263013,0.164582 0.07879,0.04878 0.187904,0.115134 0.242552,0.147444 0.05465,0.03231 0.144736,0.08405 0.200189,0.114968 0.05541,0.03092 0.142246,0.07616 0.192869,0.100532 0.05067,0.02437 0.130189,0.05958 0.176797,0.07824 0.0466,0.01866 0.114998,0.04368 0.151963,0.05558 0.03694,0.01191 0.09615,0.02831 0.131503,0.03646 0.03533,0.0081 0.08665,0.0167 0.113972,0.01901 0.02728,0.0023 0.05363,0.0036 0.05846,0.0027 0.0051,-8.22e-4 0.02067,-0.0031 0.03525,-0.0051 z m 1.195044,-0.06232 c 0.04177,-0.0034 0.115438,-0.01268 0.163656,-0.02061 0.04821,-0.008 0.125444,-0.02349 0.171611,-0.03458 0.04618,-0.01109 0.122411,-0.03234 0.169442,-0.04723 0.04702,-0.01489 0.127614,-0.04355 0.179068,-0.0637 0.05143,-0.02016 0.136967,-0.05749 0.190005,-0.08296 0.05304,-0.02548 0.138517,-0.06959 0.189954,-0.09803 0.05143,-0.02844 0.14217,-0.08186 0.201638,-0.11872 0.05948,-0.03686 0.152837,-0.09735 0.207485,-0.134427 0.05465,-0.03708 0.153276,-0.107064 0.219176,-0.155523 0.06592,-0.04846 0.169213,-0.12684 0.229589,-0.174181 0.06041,-0.04734 0.160317,-0.130613 0.222099,-0.18505 0.06176,-0.05444 0.150811,-0.138016 0.197851,-0.18573 0.04702,-0.04771 0.126995,-0.136724 0.177678,-0.197801 0.05821,-0.07016 0.123733,-0.15839 0.177949,-0.239632 0.05244,-0.07865 0.111727,-0.177357 0.152556,-0.25419 0.03669,-0.06909 0.09262,-0.184809 0.12425,-0.257166 0.0316,-0.07235 0.08201,-0.197442 0.111922,-0.277966 0.02991,-0.08052 0.07566,-0.213346 0.101578,-0.295156 0.02593,-0.08181 0.06439,-0.213186 0.0855,-0.291942 0.0211,-0.07876 0.05423,-0.214208 0.07363,-0.301001 0.0194,-0.08679 0.04812,-0.227504 0.06371,-0.31269 0.01567,-0.08519 0.0377,-0.224582 0.04906,-0.309768 0.01127,-0.08519 0.02593,-0.218007 0.03253,-0.295157 0.0068,-0.07715 0.01483,-0.213915 0.01838,-0.303923 0.0034,-0.09056 0.0051,-0.228912 0.0025,-0.309767 -0.0017,-0.08036 -0.0076,-0.20398 -0.01212,-0.2747 -0.0042,-0.07072 -0.01483,-0.181185 -0.02271,-0.245477 -0.0076,-0.06429 -0.02372,-0.172645 -0.03516,-0.240787 -0.01144,-0.06815 -0.0327,-0.178204 -0.04719,-0.244583 -0.01449,-0.06638 -0.03838,-0.167118 -0.05304,-0.223864 -0.01466,-0.05675 -0.04219,-0.154793 -0.06117,-0.217881 -0.01898,-0.06309 -0.05058,-0.160401 -0.07024,-0.216252 -0.01966,-0.05585 -0.05422,-0.147337 -0.07676,-0.2033 -0.02254,-0.05596 -0.06049,-0.144072 -0.08439,-0.195797 -0.02389,-0.05172 -0.06583,-0.137206 -0.09325,-0.189959 -0.02737,-0.05275 -0.07244,-0.134286 -0.100103,-0.181185 -0.02771,-0.0469 -0.07388,-0.120555 -0.102654,-0.163679 -0.02881,-0.04313 -0.07481,-0.108879 -0.102373,-0.146118 -0.02754,-0.03724 -0.0738,-0.09664 -0.10284,-0.131999 -0.02906,-0.03536 -0.0862,-0.101351 -0.127012,-0.146645 -0.04084,-0.04529 -0.115828,-0.121901 -0.166723,-0.170238 -0.05092,-0.04834 -0.118827,-0.110075 -0.150972,-0.137199 -0.03211,-0.02712 -0.08345,-0.06909 -0.113964,-0.09326 -0.03059,-0.02417 -0.08802,-0.06672 -0.127724,-0.09457 -0.03974,-0.02784 -0.108093,-0.07252 -0.151964,-0.0993 -0.04389,-0.02677 -0.114692,-0.06776 -0.157386,-0.09109 -0.0427,-0.02333 -0.105822,-0.05562 -0.140271,-0.07175 -0.03448,-0.01613 -0.09577,-0.04328 -0.136239,-0.06032 -0.0405,-0.01705 -0.112795,-0.04433 -0.160724,-0.06063 -0.04795,-0.0163 -0.118709,-0.03749 -0.157284,-0.04708 -0.03855,-0.0096 -0.108271,-0.02393 -0.154878,-0.03187 -0.0466,-0.008 -0.121573,-0.01763 -0.166579,-0.02152 -0.05151,-0.0045 -0.125105,-0.0058 -0.198715,-0.0035 -0.06431,0.0019 -0.135306,0.0065 -0.15781,0.01019 -0.02254,0.0036 -0.04389,0.0083 -0.04745,0.01039 -0.0034,0.002 -0.03101,0.03402 -0.06092,0.07098 -0.02991,0.03697 -0.07422,0.08957 -0.09847,0.116894 -0.02423,0.02732 -0.09283,0.09933 -0.152396,0.160018 -0.05956,0.06069 -0.159614,0.156684 -0.22232,0.21333 -0.0627,0.05665 -0.148184,0.132158 -0.189954,0.167807 -0.04177,0.03564 -0.130731,0.108735 -0.19769,0.162416 -0.06693,0.05368 -0.17217,0.135195 -0.233791,0.181143 -0.0616,0.04595 -0.163317,0.119784 -0.226005,0.164082 -0.0627,0.04429 -0.282297,0.192942 -0.488027,0.330317 -0.205739,0.137376 -0.466118,0.309759 -0.578624,0.383073 -0.112516,0.07331 -0.336649,0.217033 -0.498076,0.319376 -0.161427,0.102343 -0.379722,0.241754 -0.485104,0.309801 -0.105381,0.06805 -0.342833,0.223575 -0.52767,0.345617 -0.184837,0.122042 -0.392558,0.260126 -0.461593,0.306855 -0.06905,0.04673 -0.192649,0.13271 -0.274697,0.19107 -0.08201,0.05836 -0.180744,0.12711 -0.219311,0.152777 -0.03855,0.02566 -0.0946,0.06197 -0.124479,0.08067 -0.02991,0.0187 -0.05355,0.03486 -0.05261,0.03592 8.48e-4,10e-4 0.138628,0.139482 0.305936,0.307609 0.167307,0.168129 0.428998,0.433294 0.581547,0.589255 0.152539,0.155962 0.348365,0.357178 0.435158,0.447147 0.08679,0.08997 0.223556,0.233369 0.303919,0.318666 0.0804,0.0853 0.219777,0.235198 0.309798,0.333117 0.09003,0.09792 0.200613,0.218799 0.245755,0.268625 0.04516,0.04983 0.131917,0.147147 0.192843,0.216269 0.06092,0.06912 0.159589,0.183532 0.219253,0.254244 0.05965,0.07071 0.150557,0.181168 0.201994,0.245459 0.05143,0.06429 0.138306,0.176072 0.193055,0.248399 0.05473,0.07233 0.140187,0.188053 0.189862,0.257166 0.04965,0.06911 0.124715,0.175632 0.166756,0.236709 0.04202,0.06108 0.107457,0.158391 0.145372,0.216253 0.03787,0.05786 0.09907,0.155177 0.135917,0.216254 0.03685,0.06108 0.09274,0.158816 0.124207,0.217198 0.03143,0.05839 0.07608,0.146491 0.09919,0.195797 0.02305,0.0493 0.05719,0.127783 0.07583,0.174394 0.01864,0.04662 0.04558,0.124199 0.05998,0.172418 0.0144,0.04822 0.03042,0.116602 0.03575,0.151962 0.0051,0.03536 0.01025,0.07196 0.01102,0.08133 0.0017,0.01564 0.0042,0.01793 0.03948,0.0279 0.02093,0.0059 0.07608,0.01861 0.122741,0.02808 0.0466,0.0095 0.118938,0.02141 0.160725,0.02655 0.04177,0.0052 0.11543,0.01155 0.163647,0.01426 0.04821,0.0027 0.127122,0.0038 0.175348,0.0024 0.04821,-0.0014 0.12186,-0.0053 0.163647,-0.0087 z m 0.303927,-0.972675 c -0.03533,-0.0042 -0.09059,-0.01334 -0.122725,-0.0204 -0.03211,-0.007 -0.09,-0.02272 -0.128588,-0.0348 -0.03855,-0.01208 -0.100391,-0.03446 -0.137357,-0.04973 -0.03694,-0.01528 -0.09483,-0.04234 -0.128587,-0.06014 -0.03372,-0.0178 -0.08371,-0.04559 -0.11105,-0.06177 -0.02728,-0.01617 -0.08447,-0.05261 -0.127037,-0.08096 -0.04253,-0.02837 -0.113558,-0.07885 -0.157802,-0.112198 -0.04423,-0.03335 -0.115955,-0.09029 -0.159351,-0.126542 -0.04338,-0.03625 -0.118353,-0.102004 -0.166579,-0.146117 -0.04821,-0.04412 -0.140297,-0.133776 -0.20462,-0.199253 -0.06431,-0.06548 -0.153743,-0.159924 -0.198715,-0.209886 -0.04499,-0.04996 -0.129232,-0.14596 -0.187244,-0.213331 -0.05804,-0.06737 -0.151506,-0.177723 -0.207772,-0.245228 -0.05626,-0.06751 -0.165477,-0.200327 -0.242687,-0.295157 -0.07719,-0.09483 -0.17473,-0.215975 -0.216703,-0.269212 -0.04194,-0.05323 -0.08057,-0.105051 -0.08581,-0.115142 -0.0051,-0.01009 -0.0095,-0.02439 -0.0095,-0.03179 0,-0.0074 0.0051,-0.02202 0.01161,-0.03251 0.0068,-0.01049 0.02059,-0.02333 0.03143,-0.02854 0.01356,-0.0064 0.02652,-0.0082 0.04084,-0.0055 0.015,0.0028 0.02677,0.01096 0.04101,0.02853 0.01102,0.01352 0.06278,0.07851 0.115117,0.144406 0.05228,0.0659 0.141169,0.176363 0.197495,0.245476 0.05634,0.06911 0.155005,0.188784 0.219303,0.265933 0.06431,0.07715 0.156446,0.1863 0.204773,0.242555 0.04829,0.05626 0.125784,0.144363 0.172145,0.195796 0.04634,0.05144 0.118709,0.129999 0.160801,0.17459 0.04211,0.04459 0.120903,0.122958 0.175127,0.174148 0.05422,0.05119 0.135764,0.125317 0.181186,0.164725 0.04541,0.03941 0.107576,0.09134 0.138111,0.115407 0.0305,0.02406 0.08049,0.06221 0.111049,0.08478 0.0305,0.02256 0.08312,0.05945 0.116896,0.08197 0.03372,0.02252 0.08371,0.05417 0.11105,0.07034 0.02737,0.01617 0.07464,0.04268 0.105203,0.05891 0.0305,0.01624 0.08185,0.04057 0.113964,0.05406 0.0322,0.0135 0.08607,0.03337 0.119819,0.04417 0.03372,0.01079 0.08504,0.02521 0.113973,0.03204 0.02889,0.0069 0.08286,0.01606 0.119819,0.02055 0.03694,0.0045 0.100492,0.0082 0.141169,0.0083 0.04067,9.7e-5 0.109135,-0.0037 0.152125,-0.0085 0.04296,-0.0047 0.109651,-0.01513 0.148134,-0.02304 0.03846,-0.0079 0.09891,-0.02337 0.134273,-0.03439 0.03533,-0.01101 0.09059,-0.031 0.122733,-0.04443 0.03211,-0.01343 0.08999,-0.04182 0.128537,-0.06309 0.03855,-0.02127 0.102984,-0.06249 0.143194,-0.09162 0.04982,-0.03608 0.103035,-0.08279 0.167062,-0.146642 0.05999,-0.05984 0.112558,-0.118902 0.145423,-0.163448 0.0283,-0.03836 0.06803,-0.09659 0.08833,-0.129399 0.02025,-0.03281 0.05643,-0.09873 0.08032,-0.146503 0.02389,-0.04777 0.05558,-0.11788 0.07041,-0.155803 0.01483,-0.03792 0.03745,-0.104502 0.05024,-0.147955 0.01279,-0.04346 0.03101,-0.118945 0.0405,-0.16776 0.0095,-0.04882 0.02042,-0.126529 0.0244,-0.172696 0.0051,-0.05586 0.0059,-0.136026 0.0034,-0.239633 -0.0025,-0.11368 -0.0076,-0.186441 -0.01805,-0.26966 -0.0076,-0.06269 -0.01983,-0.149477 -0.02635,-0.192875 -0.0068,-0.0434 -0.02254,-0.142025 -0.03558,-0.219174 -0.01305,-0.07715 -0.03143,-0.184985 -0.04084,-0.239632 -0.0094,-0.05465 -0.02889,-0.174318 -0.0433,-0.265932 -0.0144,-0.09162 -0.03287,-0.214011 -0.04101,-0.271989 -0.0085,-0.05798 -0.02,-0.156607 -0.02635,-0.219176 -0.0059,-0.06257 -0.01466,-0.167677 -0.01839,-0.233576 -0.0042,-0.08002 -0.0051,-0.185807 -0.0025,-0.318535 0.0025,-0.109295 0.0059,-0.251321 0.0086,-0.315612 0.0025,-0.06429 0.0042,-0.264063 0.0051,-0.443938 5.68e-4,-0.185774 -0.0017,-0.366287 -0.0051,-0.417894 -0.0034,-0.04997 -0.01144,-0.127432 -0.01771,-0.172143 -0.0059,-0.04471 -0.01898,-0.110464 -0.02821,-0.146117 -0.0092,-0.03565 -0.02771,-0.09097 -0.04101,-0.122925 -0.0133,-0.03196 -0.03914,-0.08193 -0.05727,-0.111049 -0.01822,-0.02912 -0.05431,-0.07668 -0.08015,-0.105685 -0.02593,-0.029 -0.07075,-0.07228 -0.09954,-0.09617 -0.02881,-0.02388 -0.08015,-0.06047 -0.113964,-0.08129 -0.03389,-0.02083 -0.09838,-0.05401 -0.143381,-0.07375 -0.04499,-0.01974 -0.119963,-0.04679 -0.16657,-0.0601 -0.0466,-0.01331 -0.124199,-0.03079 -0.172416,-0.03885 -0.04821,-0.008 -0.13196,-0.0174 -0.186091,-0.02077 -0.05414,-0.0034 -0.142246,-0.0046 -0.195801,-0.0026 -0.05355,0.0019 -0.156556,0.01113 -0.228877,0.02045 -0.0738,0.0095 -0.1841,0.0287 -0.251321,0.04371 -0.06592,0.01472 -0.180313,0.04493 -0.254244,0.06714 -0.07397,0.02221 -0.196233,0.06304 -0.271783,0.09073 -0.07557,0.0277 -0.193767,0.07415 -0.262716,0.103229 -0.06897,0.02908 -0.178102,0.07764 -0.242552,0.107927 -0.06448,0.03028 -0.180313,0.08743 -0.257456,0.126998 -0.07719,0.03957 -0.190251,0.09955 -0.251321,0.133282 -0.06109,0.03374 -0.155768,0.08709 -0.210415,0.118575 -0.05465,0.03148 -0.154404,0.09005 -0.221693,0.130157 -0.06727,0.04011 -0.160656,0.09654 -0.207484,0.125405 -0.04685,0.02887 -0.128546,0.08046 -0.181584,0.114667 -0.05304,0.0342 -0.147727,0.09742 -0.210415,0.1405 -0.0627,0.04307 -0.170426,0.120399 -0.239435,0.171833 -0.06897,0.05144 -0.184735,0.13965 -0.257167,0.196031 -0.07244,0.05639 -0.201392,0.158108 -0.286584,0.226057 -0.08518,0.06795 -0.17855,0.144051 -0.207484,0.169118 -0.02889,0.02507 -0.06134,0.04934 -0.0721,0.05394 -0.01508,0.0064 -0.02381,0.0069 -0.03864,0.002 -0.01051,-0.0035 -0.02482,-0.01238 -0.03177,-0.01981 -0.0068,-0.0075 -0.01491,-0.02126 -0.01762,-0.03073 -0.0034,-0.01064 -0.0025,-0.02488 0.0017,-0.03724 0.0042,-0.01361 0.02245,-0.03381 0.05626,-0.06315 0.02728,-0.02373 0.119379,-0.09892 0.204562,-0.167104 0.08519,-0.06818 0.214058,-0.169988 0.286389,-0.22624 0.07235,-0.05625 0.164384,-0.127407 0.204561,-0.15812 0.04016,-0.03071 0.108567,-0.08167 0.151963,-0.113237 0.04338,-0.03157 0.120793,-0.08614 0.171984,-0.121265 0.05118,-0.03513 0.137993,-0.09292 0.192878,-0.128437 0.0549,-0.03551 0.147134,-0.09391 0.204993,-0.129774 0.05787,-0.03586 0.156496,-0.09559 0.219176,-0.132718 0.0627,-0.03713 0.166579,-0.09776 0.230869,-0.134734 0.06431,-0.03697 0.177381,-0.100166 0.251321,-0.140427 0.07397,-0.04026 0.192284,-0.102162 0.263005,-0.13756 0.07075,-0.0354 0.169357,-0.08333 0.219176,-0.106515 0.04982,-0.02319 0.149769,-0.0671 0.222099,-0.09759 0.07236,-0.03049 0.195072,-0.07869 0.272774,-0.107104 0.07769,-0.02842 0.202621,-0.07021 0.27762,-0.09288 0.07498,-0.02267 0.195537,-0.05423 0.267859,-0.07013 0.07236,-0.0159 0.182795,-0.03588 0.245484,-0.04441 0.0627,-0.0085 0.16657,-0.01788 0.23086,-0.02079 0.07617,-0.0035 0.153564,-0.0031 0.222099,8.24e-4 0.06041,0.0035 0.150032,0.0136 0.210407,0.02366 0.06058,0.01011 0.143601,0.02892 0.1958,0.0444 0.04982,0.01477 0.127411,0.04281 0.172417,0.06232 0.04499,0.0195 0.11576,0.05617 0.157233,0.08149 0.04152,0.02532 0.103281,0.06909 0.137349,0.0973 0.03406,0.0282 0.08396,0.07575 0.110914,0.105662 0.02694,0.02991 0.06558,0.08002 0.08583,0.111366 0.02025,0.03134 0.04135,0.06559 0.04677,0.07612 0.0051,0.01052 0.02144,0.0469 0.03559,0.08081 0.01415,0.03392 0.03465,0.09718 0.0455,0.140578 0.01093,0.0434 0.02533,0.120985 0.03211,0.172418 0.0068,0.05144 0.01449,0.126391 0.01728,0.166573 0.0025,0.04019 0.0051,0.200379 0.0059,0.355995 4.83e-4,0.155614 -0.0034,0.418625 -0.0086,0.584467 -0.0059,0.179859 -0.0085,0.361672 -0.0059,0.450571 0.0017,0.08197 0.0076,0.193751 0.0122,0.248399 0.0051,0.05465 0.01178,0.123031 0.01525,0.151962 0.0034,0.02893 0.01144,0.09074 0.01779,0.137349 0.0059,0.04662 0.01805,0.128145 0.02618,0.181185 0.0085,0.05304 0.0305,0.191122 0.04982,0.306845 0.01932,0.115725 0.04414,0.263603 0.05524,0.328617 0.0111,0.06501 0.02796,0.172849 0.03753,0.239632 0.0096,0.06678 0.0216,0.15693 0.02677,0.200327 0.0051,0.04443 0.01084,0.150397 0.01262,0.242554 0.0025,0.128861 8.47e-4,0.183192 -0.0068,0.255573 -0.0051,0.05056 -0.0172,0.130775 -0.02652,0.178262 -0.0092,0.04749 -0.02762,0.123162 -0.04092,0.168166 -0.01322,0.04501 -0.03745,0.116017 -0.05389,0.157807 -0.01644,0.04179 -0.05024,0.116994 -0.07515,0.167122 -0.02491,0.05013 -0.06473,0.122455 -0.08857,0.160728 -0.02381,0.03827 -0.06575,0.09983 -0.09321,0.136801 -0.02745,0.03697 -0.07769,0.09746 -0.111651,0.134428 -0.03397,0.03697 -0.08768,0.09006 -0.119361,0.117978 -0.03169,0.02792 -0.08727,0.07222 -0.12353,0.09845 -0.03626,0.02622 -0.09939,0.06661 -0.140271,0.08974 -0.04092,0.02313 -0.105992,0.05554 -0.144669,0.07201 -0.03872,0.01647 -0.105754,0.04061 -0.14904,0.05364 -0.0433,0.01302 -0.112906,0.03028 -0.154692,0.03836 -0.04177,0.008 -0.112397,0.01867 -0.156903,0.02358 -0.04448,0.0049 -0.116837,0.0086 -0.160724,0.0082 -0.04389,-3.7e-4 -0.108746,-0.0041 -0.144101,-0.0082 z M 16.13673,13.550868 c 0.05329,-0.0336 0.124571,-0.07969 0.158436,-0.102414 0.03389,-0.02272 0.139823,-0.09679 0.235452,-0.164603 0.09563,-0.06781 0.294862,-0.203677 0.442733,-0.301926 0.147871,-0.09825 0.334606,-0.221934 0.414968,-0.274856 0.08041,-0.05292 0.219761,-0.144076 0.309773,-0.202566 0.09,-0.05849 0.301725,-0.193958 0.470498,-0.301043 0.168764,-0.107085 0.358126,-0.227664 0.420814,-0.267952 0.0627,-0.04029 0.174458,-0.113075 0.248398,-0.161746 0.07397,-0.04867 0.23569,-0.155672 0.359448,-0.237776 0.123758,-0.08211 0.299894,-0.200008 0.391415,-0.262005 0.09152,-0.06199 0.207238,-0.14171 0.257167,-0.177143 0.0499,-0.03543 0.139424,-0.10116 0.198893,-0.146063 0.05948,-0.0449 0.152836,-0.11739 0.207484,-0.161084 0.05465,-0.04369 0.145389,-0.118856 0.201646,-0.167025 0.05626,-0.04817 0.144364,-0.126034 0.195793,-0.173031 0.05143,-0.047 0.146117,-0.139275 0.210407,-0.20506 0.06431,-0.06579 0.145829,-0.155272 0.181185,-0.198858 0.03533,-0.04358 0.08159,-0.1039301 0.102772,-0.1340991 0.02118,-0.030171 0.05482,-0.083175 0.07473,-0.1178023 0.02,-0.034627 0.04829,-0.088541 0.06287,-0.1198162 0.01466,-0.031272 0.03923,-0.091056 0.05473,-0.1328452 0.01542,-0.041787 0.03609,-0.1062271 0.04584,-0.1431945 0.0097,-0.036966 0.0233,-0.097943 0.02999,-0.1354997 0.0068,-0.037559 0.01491,-0.096735 0.01813,-0.131505 0.0034,-0.034771 0.0059,-0.1179073 0.0059,-0.1847475 -2.37e-4,-0.079285 -0.0042,-0.1575006 -0.01178,-0.22502 -0.0059,-0.056921 -0.01957,-0.148204 -0.02948,-0.2028517 -0.0099,-0.054648 -0.02982,-0.1493315 -0.04431,-0.2104083 -0.01449,-0.061077 -0.04321,-0.1689111 -0.0638,-0.2396317 -0.02067,-0.07072 -0.05829,-0.1903903 -0.08371,-0.2659328 -0.02542,-0.075542 -0.06888,-0.1985167 -0.0966,-0.2732759 C 21.078812,7.4543281 21.032222,7.333343 21.003005,7.260232 20.973775,7.187121 20.920905,7.0589202 20.885508,6.9753415 20.850116,6.8917584 20.783565,6.7392126 20.737635,6.6363463 20.691714,6.5334799 20.625247,6.3861941 20.58995,6.3090444 20.554619,6.2318951 20.47968,6.0701433 20.423337,5.9495969 20.366995,5.8290504 20.305899,5.6988603 20.287582,5.6602854 20.269281,5.6217107 20.206838,5.4928355 20.148861,5.3738963 20.090909,5.2549572 19.991543,5.0563843 19.9281,4.9326233 19.864641,4.8088623 19.777907,4.6418508 19.735324,4.5614864 19.692707,4.4811218 19.626317,4.3575072 19.587724,4.2867867 19.549174,4.2160663 19.476802,4.0858759 19.426983,3.9974752 19.377164,3.9090749 19.295481,3.7670489 19.245476,3.6818626 19.195488,3.5966764 19.108068,3.4520209 19.051251,3.3604054 18.994485,3.2687907 18.903651,3.1267647 18.849511,3.0447934 18.795372,2.9628216 18.705732,2.8320908 18.650339,2.7542809 18.594928,2.6764699 18.5095,2.560746 18.460469,2.4971154 18.411413,2.433484 18.333144,2.336711 18.286477,2.2820626 18.239793,2.2274155 18.156347,2.1358214 18.101021,2.078521 18.045696,2.0212203 17.961411,1.9399847 17.913727,1.8979968 17.866027,1.8560086 17.786266,1.7910125 17.736448,1.7535612 17.686629,1.7161092 17.607716,1.6614987 17.5611,1.6322026 c -0.0466,-0.029296 -0.119166,-0.070424 -0.161233,-0.091397 -0.04211,-0.020974 -0.107965,-0.050111 -0.146439,-0.06475 -0.03847,-0.01464 -0.102687,-0.034305 -0.142695,-0.043701 -0.03999,-0.0094 -0.10389,-0.020313 -0.141974,-0.024259 -0.04253,-0.00441 -0.09329,-0.0056 -0.131503,-0.0031 -0.03423,0.00224 -0.08725,0.00939 -0.117785,0.015894 -0.0305,0.0065 -0.08278,0.022409 -0.116031,0.035353 -0.0333,0.012943 -0.08851,0.039485 -0.122742,0.058982 -0.03423,0.019496 -0.08984,0.056574 -0.123598,0.082395 -0.03372,0.02582 -0.09515,0.078603 -0.136433,0.1172954 -0.04126,0.038693 -0.105949,0.1058561 -0.143694,0.1492534 -0.03779,0.043396 -0.09979,0.1209559 -0.137866,0.1723545 -0.03804,0.051399 -0.09989,0.142138 -0.137373,0.2016418 -0.03745,0.059503 -0.09588,0.1581615 -0.129791,0.2192383 -0.03389,0.061077 -0.09317,0.1741714 -0.131715,0.2513209 -0.03855,0.077149 -0.09902,0.2047094 -0.134391,0.2834664 -0.03542,0.078757 -0.08719,0.1997419 -0.115159,0.2688554 -0.02796,0.069114 -0.07659,0.1953583 -0.108016,0.2805446 -0.03143,0.085186 -0.08108,0.2272113 -0.110287,0.3156118 -0.02923,0.088401 -0.07414,0.2291116 -0.09982,0.3126906 -0.02567,0.083579 -0.06939,0.2320581 -0.09712,0.3299541 -0.0277,0.097896 -0.07151,0.2570172 -0.09727,0.3536028 -0.02576,0.096586 -0.07015,0.2702941 -0.09862,0.3860186 -0.02847,0.1157247 -0.07168,0.2977927 -0.09595,0.4045966 -0.02432,0.1068032 -0.06236,0.2817052 -0.08464,0.3886709 -0.02228,0.1069652 -0.0566,0.2799612 -0.07634,0.3844347 -0.01974,0.1044736 -0.05261,0.2951561 -0.07312,0.423739 -0.0205,0.1285829 -0.04923,0.3363611 -0.06397,0.4617293 -0.01474,0.1253684 -0.03457,0.3265713 -0.04406,0.4471178 -0.0095,0.1205464 -0.02271,0.338845 -0.02932,0.485108 -0.0068,0.146263 -0.0144,0.3645617 -0.01728,0.4851081 -0.0025,0.1205465 -0.0042,0.4387887 -0.0034,0.7072057 8.47e-4,0.2806726 0.0059,0.5910872 0.01101,0.7305842 0.0051,0.133404 0.01161,0.296471 0.015,0.362369 0.0034,0.0659 0.01008,0.185568 0.01491,0.265933 0.0051,0.08036 0.01406,0.218445 0.02042,0.306845 0.0068,0.0884 0.0183,0.234372 0.02635,0.32438 0.0085,0.09001 0.02127,0.221513 0.02923,0.292234 0.0076,0.07072 0.0211,0.178555 0.02923,0.239632 0.0085,0.06108 0.02135,0.151815 0.02932,0.201641 0.0076,0.04983 0.0211,0.126099 0.02915,0.169495 0.0085,0.0434 0.01999,0.10389 0.02652,0.134428 0.0068,0.03054 0.02381,0.105135 0.03855,0.165771 0.02194,0.09074 0.02525,0.111147 0.01864,0.115343 -0.0042,0.0028 -0.01593,0.0055 -0.02559,0.0061 -0.0097,5.49e-4 0.02457,0.003 0.076,0.0053 0.06261,0.0029 0.1182,0.0094 0.168214,0.01961 0.04109,0.0084 0.109465,0.02676 0.151963,0.04081 0.04253,0.01405 0.108822,0.03913 0.147397,0.05575 0.03855,0.01661 0.100383,0.04602 0.137349,0.06536 0.03694,0.01933 0.107084,0.05904 0.15581,0.08825 0.04872,0.0292 0.123868,0.07835 0.166968,0.109207 0.04313,0.03086 0.101866,0.07441 0.130579,0.09677 0.02872,0.02237 0.08379,0.06692 0.122344,0.099 0.03855,0.03209 0.0991,0.08375 0.13451,0.114811 0.03541,0.03106 0.09327,0.08302 0.128588,0.11547 0.03533,0.03244 0.06456,0.05914 0.06507,0.05932 4.57e-4,1.77e-4 0.0444,-0.02717 0.0977,-0.06078 z m -1.171025,-0.948295 c -0.0051,-0.0018 -0.01601,-0.01 -0.02491,-0.01826 -0.0089,-0.0083 -0.01881,-0.02504 -0.02211,-0.03722 -0.0034,-0.01218 -0.01237,-0.06492 -0.02008,-0.117172 -0.0076,-0.05226 -0.0194,-0.137096 -0.02584,-0.188529 -0.0068,-0.05144 -0.01567,-0.140857 -0.02059,-0.198719 -0.0051,-0.05786 -0.01042,-0.140711 -0.01229,-0.184107 -0.0017,-0.0434 -0.0042,-0.08811 -0.0059,-0.09936 -0.0017,-0.01125 -0.0034,-0.174317 -0.0051,-0.36237 -8.48e-4,-0.188052 -2.12e-4,-0.438094 0.0025,-0.555646 0.0025,-0.117553 0.0076,-0.305606 0.0111,-0.417894 0.0034,-0.11229 0.0076,-0.233093 0.0092,-0.268453 0.0017,-0.03536 0.0042,-0.105058 0.0059,-0.1548839 0.0017,-0.049827 0.0068,-0.1905365 0.01169,-0.3126903 0.0051,-0.1221537 0.0099,-0.2510288 0.01161,-0.2863889 0.0017,-0.035364 0.0068,-0.1471393 0.01186,-0.248399 0.0051,-0.1012587 0.01415,-0.2748457 0.02059,-0.3857484 0.0068,-0.1109027 0.01957,-0.3068455 0.02906,-0.4354283 0.0095,-0.1285829 0.02525,-0.3271557 0.03508,-0.441273 0.0098,-0.1141173 0.02813,-0.3061149 0.04075,-0.4266614 0.01262,-0.1205463 0.03482,-0.3095638 0.04931,-0.4200393 0.01457,-0.1104748 0.04245,-0.291952 0.06202,-0.4032826 0.01957,-0.1113299 0.05634,-0.2944723 0.08184,-0.4069823 0.02542,-0.11251 0.06744,-0.2820775 0.09339,-0.3768161 0.02593,-0.094739 0.07168,-0.2486004 0.101568,-0.3419136 0.02991,-0.093314 0.07956,-0.2380437 0.110254,-0.3216225 0.03067,-0.083579 0.08142,-0.213769 0.112651,-0.2893115 0.03126,-0.075543 0.08422,-0.1965272 0.117768,-0.2688551 0.03355,-0.072328 0.09156,-0.1893675 0.128969,-0.260088 0.03745,-0.07072 0.09908,-0.1779337 0.137052,-0.2382512 0.03796,-0.060318 0.09886,-0.149741 0.135307,-0.198719 0.03643,-0.048978 0.09462,-0.120612 0.129265,-0.1591867 0.03465,-0.038575 0.09225,-0.095933 0.12802,-0.1274633 0.03575,-0.031531 0.09528,-0.077386 0.132248,-0.1019009 0.03694,-0.024515 0.09866,-0.058723 0.137103,-0.076017 0.04694,-0.021128 0.09425,-0.037072 0.144135,-0.0486 0.05804,-0.013414 0.0882,-0.017156 0.138246,-0.017156 0.04185,0 0.08464,0.00421 0.123691,0.012175 0.04033,0.00822 0.07939,0.021375 0.120387,0.040517 0.03652,0.017035 0.08354,0.045645 0.117963,0.071713 0.03152,0.023854 0.07854,0.066771 0.104509,0.095372 0.02601,0.0286 0.06312,0.075804 0.08261,0.1048961 0.01949,0.029092 0.05016,0.082318 0.0682,0.118278 0.01805,0.035961 0.04584,0.101218 0.06177,0.1450159 0.01593,0.043798 0.03948,0.1155024 0.05227,0.1593436 0.01279,0.043841 0.03381,0.1217929 0.0466,0.1732261 0.01288,0.051433 0.04067,0.175048 0.06185,0.2746997 0.02118,0.099652 0.04651,0.2180065 0.05626,0.2630105 0.0097,0.045004 0.02932,0.1297687 0.04346,0.1883663 0.01415,0.058598 0.03389,0.1348705 0.0438,0.1694956 0.0099,0.034625 0.03008,0.099776 0.04482,0.1447802 0.01474,0.045004 0.03965,0.1141336 0.05524,0.1536208 0.01567,0.039488 0.0405,0.095734 0.05516,0.1249925 0.01474,0.029258 0.04007,0.074538 0.05634,0.1006225 0.01627,0.026084 0.04999,0.073726 0.07481,0.1058722 0.02482,0.032146 0.07507,0.089796 0.111651,0.1281124 0.0366,0.038316 0.09674,0.095795 0.133705,0.1277324 0.03694,0.031936 0.150066,0.1204191 0.251321,0.1966284 0.101264,0.076209 0.22093,0.1645691 0.265937,0.1963565 0.04499,0.031787 0.122589,0.086814 0.172416,0.1222812 0.04982,0.035467 0.12347,0.090602 0.163647,0.1225207 0.04016,0.031919 0.100679,0.082906 0.134434,0.1133032 0.03372,0.030398 0.08728,0.083228 0.118946,0.1174014 0.03169,0.034173 0.08337,0.096324 0.114837,0.1381137 0.03152,0.041789 0.07795,0.1114873 0.103246,0.154884 0.02525,0.043396 0.06346,0.1183546 0.08478,0.1665733 0.02135,0.048219 0.05092,0.1227159 0.06566,0.1655498 0.01474,0.042835 0.03745,0.1183096 0.0505,0.1677241 0.01296,0.049413 0.03126,0.1327225 0.04058,0.1851301 0.0093,0.052408 0.0211,0.1390086 0.0261,0.1924465 0.0051,0.053438 0.0091,0.1363878 0.0091,0.1843334 0,0.047945 -0.0042,0.1344141 -0.0088,0.1921519 -0.0051,0.057738 -0.01542,0.1483747 -0.02355,0.2014151 -0.0085,0.053041 -0.02542,0.142464 -0.03838,0.198719 -0.01296,0.056255 -0.0383,0.1509387 -0.05617,0.2104083 -0.01788,0.059469 -0.05177,0.1580985 -0.07515,0.2191754 -0.02339,0.061079 -0.06473,0.1597058 -0.09189,0.2191754 -0.02711,0.059469 -0.07235,0.151523 -0.100543,0.2045637 -0.02813,0.053038 -0.07829,0.1426412 -0.111321,0.1991124 -0.03304,0.056469 -0.08839,0.145895 -0.122962,0.198718 -0.03457,0.05283 -0.09343,0.138176 -0.130791,0.189669 -0.03736,0.0515 -0.09919,0.133026 -0.137399,0.181184 -0.03821,0.04816 -0.101527,0.124382 -0.140712,0.169386 -0.03914,0.04501 -0.107737,0.120247 -0.152353,0.167206 -0.04465,0.04696 -0.115354,0.117972 -0.1572,0.157806 -0.04185,0.03984 -0.102331,0.09627 -0.134425,0.125406 -0.03211,0.02914 -0.09386,0.0831 -0.137256,0.119915 -0.04338,0.03681 -0.114413,0.09598 -0.157809,0.131476 -0.04338,0.0355 -0.124928,0.101306 -0.181186,0.146243 -0.05626,0.04494 -0.14305,0.113412 -0.192877,0.152172 -0.04982,0.03876 -0.13662,0.104654 -0.192869,0.146436 -0.05626,0.04178 -0.148312,0.108245 -0.20457,0.147698 -0.05626,0.03945 -0.154878,0.106578 -0.219168,0.149168 -0.06431,0.04259 -0.154505,0.100206 -0.200477,0.128036 -0.04592,0.02783 -0.113684,0.06655 -0.150489,0.08605 -0.03677,0.01949 -0.138586,0.06833 -0.226192,0.108527 -0.0876,0.04019 -0.180838,0.08212 -0.207187,0.09319 -0.03516,0.01477 -0.05228,0.01904 -0.06431,0.01608 -0.009,-0.0022 -0.02203,-0.0077 -0.02906,-0.01222 -0.0068,-0.0045 -0.01711,-0.01761 -0.02262,-0.02914 -0.0085,-0.01716 -0.0088,-0.02484 -0.0034,-0.04238 0.0034,-0.01179 0.01237,-0.02688 0.01966,-0.03355 0.0076,-0.0067 0.03431,-0.02133 0.05998,-0.0326 0.02567,-0.01126 0.09672,-0.04322 0.157802,-0.07102 0.06109,-0.0278 0.143626,-0.06631 0.183447,-0.08559 0.03982,-0.01928 0.100307,-0.0511 0.134425,-0.07072 0.03415,-0.01962 0.08965,-0.05288 0.123403,-0.07392 0.03372,-0.02104 0.111338,-0.07153 0.172416,-0.112213 0.06109,-0.04068 0.157073,-0.106412 0.213331,-0.146078 0.05626,-0.03967 0.152251,-0.10938 0.21333,-0.154917 0.06109,-0.04554 0.168908,-0.128516 0.239629,-0.184396 0.07075,-0.05588 0.185133,-0.147551 0.254244,-0.203715 0.06914,-0.05616 0.162486,-0.133796 0.207493,-0.172516 0.04499,-0.03872 0.12785,-0.1127 0.184099,-0.164399 0.05626,-0.0517 0.147355,-0.14115 0.202435,-0.198782 0.05507,-0.05763 0.12758,-0.136346 0.161114,-0.17492 0.03355,-0.03858 0.09251,-0.109588 0.13107,-0.157806 0.03855,-0.04822 0.09788,-0.125807 0.13185,-0.172418 0.03397,-0.04662 0.09204,-0.130775 0.129045,-0.18703 0.03702,-0.05626 0.09355,-0.1469933 0.125657,-0.2016413 0.03211,-0.054648 0.08193,-0.1440713 0.110719,-0.1987184 0.02881,-0.054648 0.0749,-0.149332 0.102382,-0.2104089 0.02754,-0.061079 0.066,-0.1531302 0.08547,-0.2045636 0.01949,-0.051437 0.04872,-0.1367579 0.06498,-0.1896114 0.01627,-0.052852 0.04008,-0.1405434 0.05287,-0.1948665 0.01279,-0.054323 0.02991,-0.141264 0.03804,-0.1932021 0.0085,-0.051938 0.01864,-0.1403635 0.02338,-0.196501 0.0051,-0.056137 0.0086,-0.1416212 0.0086,-0.1899642 0,-0.048343 -0.0042,-0.1299779 -0.0089,-0.1814111 -0.0051,-0.051433 -0.01551,-0.1303362 -0.02364,-0.1753403 -0.0085,-0.045004 -0.02533,-0.1222005 -0.0383,-0.1715482 -0.01296,-0.049347 -0.03635,-0.1260323 -0.05194,-0.1704098 -0.01567,-0.044377 -0.04287,-0.1125287 -0.06041,-0.1514472 -0.01762,-0.038919 -0.04982,-0.1016296 -0.07168,-0.139358 -0.02186,-0.037729 -0.06659,-0.1043889 -0.09943,-0.1481334 -0.03652,-0.048595 -0.09348,-0.1134189 -0.14644,-0.1666375 -0.0477,-0.047906 -0.119556,-0.1135042 -0.159733,-0.1457726 -0.04016,-0.032269 -0.107254,-0.083655 -0.14904,-0.1141904 -0.04177,-0.030536 -0.09834,-0.071011 -0.125665,-0.089945 -0.02728,-0.018934 -0.0865,-0.06074 -0.131502,-0.092903 -0.04499,-0.032164 -0.143635,-0.1049868 -0.219177,-0.1618309 -0.07558,-0.056844 -0.160004,-0.121429 -0.1877,-0.1435225 -0.02771,-0.022094 -0.08184,-0.068485 -0.120294,-0.1030901 -0.03847,-0.034605 -0.09101,-0.085892 -0.116751,-0.1139712 -0.02576,-0.028079 -0.06897,-0.078668 -0.09609,-0.1124206 -0.02711,-0.033753 -0.06676,-0.089226 -0.08809,-0.1232747 -0.02135,-0.034048 -0.05219,-0.088594 -0.06854,-0.1212139 -0.01635,-0.03262 -0.04058,-0.086296 -0.05372,-0.1192799 -0.01313,-0.032984 -0.03542,-0.092847 -0.0494,-0.133029 -0.01398,-0.040182 -0.03592,-0.1085648 -0.04872,-0.1519615 -0.01279,-0.043396 -0.03372,-0.1209847 -0.04651,-0.1724179 -0.01279,-0.051433 -0.0327,-0.1355965 -0.04414,-0.1870296 -0.01152,-0.051433 -0.04058,-0.1860186 -0.06456,-0.299079 -0.02406,-0.1130604 -0.05312,-0.2432504 -0.06465,-0.2893115 -0.01152,-0.046061 -0.03016,-0.1153085 -0.04135,-0.1538834 -0.01118,-0.038575 -0.03253,-0.1043274 -0.04736,-0.1461169 -0.01483,-0.041789 -0.04126,-0.1046614 -0.05871,-0.1397166 -0.01745,-0.035054 -0.04643,-0.085026 -0.06431,-0.1110483 -0.01788,-0.026023 -0.0499,-0.065312 -0.07108,-0.087311 -0.02118,-0.021999 -0.05905,-0.055729 -0.08405,-0.074957 -0.02508,-0.019228 -0.06448,-0.043566 -0.08767,-0.054084 -0.02321,-0.010519 -0.06151,-0.023473 -0.08524,-0.028786 -0.02372,-0.00531 -0.06769,-0.00966 -0.09773,-0.00966 -0.03414,0 -0.07591,0.00467 -0.111202,0.012438 -0.03109,0.00684 -0.08193,0.02353 -0.112905,0.037084 -0.03101,0.013556 -0.08252,0.041701 -0.114566,0.062545 -0.03203,0.020844 -0.08715,0.063047 -0.122513,0.093784 -0.03533,0.030737 -0.09096,0.085766 -0.123538,0.1222856 -0.03262,0.03652 -0.0869,0.1037991 -0.120734,0.1495093 -0.0338,0.04571 -0.09152,0.1311841 -0.128206,0.1899418 -0.03669,0.058758 -0.09328,0.156804 -0.125758,0.2178809 -0.03245,0.061077 -0.08447,0.164966 -0.115566,0.2308647 -0.03109,0.065899 -0.08498,0.1881985 -0.119768,0.2717775 -0.03482,0.083579 -0.08854,0.2207785 -0.119437,0.3048874 -0.03092,0.08411 -0.07879,0.2235051 -0.106458,0.3097678 -0.02762,0.086263 -0.07227,0.2370355 -0.09918,0.3350501 -0.02686,0.098015 -0.06753,0.259766 -0.09032,0.3594475 -0.02279,0.099682 -0.05829,0.2759231 -0.07888,0.3916478 -0.02059,0.1157245 -0.0505,0.3103522 -0.06643,0.4325059 -0.01593,0.1221538 -0.03423,0.2720697 -0.04075,0.3331465 -0.0068,0.061077 -0.01576,0.1505004 -0.02067,0.198719 -0.0051,0.048219 -0.01686,0.1791258 -0.0266,0.2909047 -0.0097,0.1117794 -0.02406,0.2906265 -0.03194,0.3974379 -0.0076,0.106812 -0.01703,0.23497 -0.02033,0.2847959 -0.0034,0.049826 -0.01,0.1563451 -0.01483,0.2367093 -0.0051,0.080365 -0.01271,0.2289652 -0.01745,0.330224 -0.0051,0.1012596 -0.01254,0.2787916 -0.01737,0.3945156 -0.0051,0.1157248 -0.01008,0.2459147 -0.01186,0.289312 -0.0017,0.043396 -0.0068,0.1867372 -0.01169,0.3185352 -0.0042,0.131797 -0.01161,0.340891 -0.0155,0.464652 -0.0042,0.123761 -0.0068,0.419647 -0.0076,0.657525 -1.27e-4,0.275913 0.0025,0.478003 0.0068,0.558167 0.0042,0.06911 0.01127,0.169057 0.0161,0.222098 0.0051,0.05304 0.01406,0.139833 0.02042,0.192874 0.0059,0.05304 0.01847,0.139834 0.02703,0.192874 0.0085,0.05304 0.01517,0.103592 0.01474,0.112336 -4.16e-4,0.0087 -0.0051,0.02233 -0.01008,0.03018 -0.0051,0.0079 -0.01813,0.01845 -0.02889,0.02355 -0.01076,0.0051 -0.0244,0.0091 -0.03033,0.0088 -0.0059,-2.57e-4 -0.01474,-0.0019 -0.01957,-0.0036 z m -0.536253,0.146359 c -0.0042,-0.0016 -0.01059,-0.0016 -0.01457,0 -0.0042,0.0016 -7.37e-4,0.003 0.0076,0.003 0.0076,0 0.01135,-0.0014 0.0076,-0.003 z" fill="#000000" stroke-width="0.00584468"/></g><text x="0" y="41.458332999999996" fill="#000000" font-size="5px" font-weight="bold" font-family="'Helvetica Neue', Helvetica, Arial-Unicode, Arial, Sans-serif">Created by SheQueen</text><text x="0" y="46.458332999999996" fill="#000000" font-size="5px" font-weight="bold" font-family="'Helvetica Neue', Helvetica, Arial-Unicode, Arial, Sans-serif">from the Noun Project</text></svg>