<svg xmlns="http://www.w3.org/2000/svg" version="1.1" viewBox="-5.0 -10.0 110.0 135.0">
 <path d="m37.355 47.211 2.875 10.348h0.003906c0.14844 0.53516 0.57422 0.95312 1.1133 1.0938l10.398 2.6836h0.003906c0.53906 0.13672 1.1133-0.023438 1.5039-0.41797l7.5234-7.6641v-0.003906c0.39062-0.39844 0.53906-0.97656 0.39062-1.5117l-2.875-10.348v-0.003906c-0.15234-0.53516-0.57812-0.95312-1.1172-1.0938l-10.398-2.6836v0.003906c-0.54297-0.14453-1.1172 0.015625-1.5078 0.41797l-7.5234 7.6641c-0.39062 0.39844-0.53906 0.97656-0.39062 1.5156zm9.5117-6.3477 8.6562 2.2305 2.3945 8.6094-6.2578 6.3789-8.6523-2.2344-2.3945-8.6094z"/>
 <path d="m93.566 47.297c-0.89453-4.0117-4.8516-6.5547-8.8711-5.6992l-4.8828 1.0625-0.003906-0.003906c-1.9062-8.6016-7.3633-16-15.023-20.363l1.3906-7.1016h0.003907c0.48828-2.4648-0.29688-5.0156-2.0938-6.7734-1.9727-1.875-4.8086-2.5391-7.4102-1.7305-2.6016 0.80859-4.5586 2.9609-5.1211 5.625l-1.1641 5.8945h-0.003906c-4.3633-0.19531-8.7227 0.55078-12.773 2.1914-2.1406-3.25-5.6367-5.3594-9.5117-5.7383-3.875-0.375-7.7148 1.0195-10.441 3.8008-2.7266 2.7773-4.0508 6.6406-3.6016 10.508 0.44922 3.8672 2.625 7.3242 5.918 9.4062-1.5625 4.0977-2.2305 8.4844-1.957 12.863l-5.9219 1.2773h0.003906c-2.6562 0.61328-4.7695 2.6133-5.5273 5.2266-0.76172 2.6172-0.042969 5.4375 1.8711 7.375 1.7891 1.7617 4.3477 2.5039 6.8047 1.9688l7.1484-1.5391-0.003907-0.003906c1.3672 2.2969 3.0234 4.4102 4.9258 6.2891 4.3594 4.3008 9.8906 7.2188 15.902 8.3906l-0.91016 4.5664c-0.78516 4.0352 1.8438 7.9492 5.8789 8.7422 4.0391 0.78906 7.9531-1.8359 8.75-5.8711l1.6367-8.2656c2.4766-0.77734 4.8438-1.8633 7.0508-3.2344l14.918 6.0352h-0.003906c0.58594 0.21875 1.2461 0.074219 1.6836-0.37109 0.4375-0.44531 0.57422-1.1094 0.33984-1.6914l-6.3203-14.812v0.003907c1.3594-2.293 2.418-4.75 3.1484-7.3086l8.4492-1.8477c4.0195-0.89062 6.5703-4.8477 5.7227-8.8711zm-24.172 21.93c-3.1016 3.1602-6.9023 5.543-11.094 6.9531l-1.9961-7.2109 12.602-12.84 7.2695 1.6953-0.003906 0.003906c-1.3125 4.2891-3.6406 8.1992-6.7773 11.398zm-38.715 1.4141 5.2227-5.3242 17.391 4.4883 1.9961 7.2188c-8.75 1.918-17.895-0.45313-24.613-6.3789zm-9.6211-20.902c-0.015625-1.8047 0.14062-3.6094 0.46875-5.3867l7.3438 1.5195 4.7969 17.258-5.2227 5.3242c-4.6953-5.1055-7.3281-11.777-7.3867-18.715zm8.0742-20.02c3.3125-3.3828 7.4258-5.875 11.957-7.2383l1.207 7.418-12.695 12.934-7.3398-1.5195c1.3164-4.3672 3.6719-8.3438 6.8711-11.594zm32.711 6.9336 4.8125 17.309-12.582 12.82-17.395-4.4883-4.8125-17.309 12.582-12.82zm7.8164 16.445-4.8047-17.285 5.2188-5.3203h0.003906c5.9922 6.5664 8.5352 15.574 6.8633 24.305zm-15.039-40.184c0.48047-2.3203 2.7422-3.8203 5.0703-3.3633s3.8516 2.7031 3.418 5.0352l-1.2227 6.2461c-2.6641-1.168-5.4805-1.9609-8.3672-2.3516zm-5.625 8.3555c6.9414-0.074219 13.66 2.4336 18.852 7.0312l-5.2227 5.3242-17.277-4.457-1.207-7.4102c1.6016-0.30078 3.2266-0.46484 4.8555-0.48828zm-28.977 13.219c-9.5195-10.254 5.9531-23.656 14.742-12.777-5.8555 3.0469-10.594 7.875-13.531 13.785-0.42969-0.30078-0.83594-0.64062-1.2109-1.0078zm-5.4336 29.543c-1.7031 0.33984-3.4453-0.35938-4.4336-1.7891-0.98828-1.4297-1.0352-3.3086-0.11328-4.7812 0.61719-0.96875 1.5977-1.6484 2.7227-1.8906l5.5898-1.207h-0.003906c0.44922 2.875 1.2969 5.6758 2.5234 8.3125zm39.289 23.023c-0.48438 2.3203-2.7461 3.8164-5.0703 3.3594-2.3242-0.45312-3.8516-2.6953-3.4219-5.0273l0.94141-4.7266h-0.003907c2.9766 0.28125 5.9766 0.13281 8.9102-0.44141zm24.332-9.1758-9.5234-3.8555c1.0352-0.80469 2.0156-1.6797 2.9414-2.6055 0.91016-0.94141 1.7617-1.9414 2.5508-2.9883zm11.707-26.656c-0.62109 0.96875-1.6055 1.6484-2.7344 1.8906l-7.0508 1.543c0.49219-2.9492 0.5625-5.9492 0.21094-8.9141l5.0195-1.0898c1.7031-0.34375 3.4492 0.35547 4.4375 1.7852 0.99219 1.4297 1.0391 3.3086 0.11719 4.7852z"/>
 <path d="m19.387 25.82c-0.58203 0.62109-0.5625 1.5938 0.042969 2.1875 0.60937 0.59766 1.582 0.59766 2.1875 0.003907 0.58594-0.62109 0.56641-1.5938-0.039063-2.1914-0.60938-0.59375-1.582-0.59375-2.1914 0z"/>
 <path d="m26.691 20.613c-0.62109-0.58594-1.5938-0.56641-2.1875 0.039063-0.59766 0.60938-0.59766 1.582-0.003906 2.1914 0.62109 0.58203 1.5938 0.5625 2.1875-0.042969 0.59766-0.60938 0.59766-1.582 0.003906-2.1875z"/>
<text x="0.0" y="117.5" font-size="5.0" font-weight="bold" font-family="Arbeit Regular, Helvetica, Arial-Unicode, Arial, Sans-serif" fill="#000000">Created by metami septiana</text><text x="0.0" y="122.5" font-size="5.0" font-weight="bold" font-family="Arbeit Regular, Helvetica, Arial-Unicode, Arial, Sans-serif" fill="#000000">from Noun Project</text></svg>