<?xml version="1.0" encoding="UTF-8"?>
<svg width="1200pt" height="1200pt" version="1.1" viewBox="0 0 1200 1200" xmlns="http://www.w3.org/2000/svg">
 <path d="m967.2 360c0 12.594-10.207 22.801-22.801 22.801-12.59 0-22.797-10.207-22.797-22.801s10.207-22.801 22.797-22.801c12.594 0 22.801 10.207 22.801 22.801"/>
 <path d="m468 1041.6c-67.199 0-142.8-36-193.2-93.602-56.398-63.602-75.602-147.6-55.199-236.4 22.801-96 19.199-175.2-9.6016-237.6-26.398-54-104.4-55.199-104.4-55.199-7.1992 0-13.199-3.6016-18-8.3984-4.8008-4.8008-7.1992-12-6-19.199 22.801-151.2 135.6-204 228-204h3.6016c75.602 1.1992 157.2 45.602 208.8 114 51.602 69.602 68.398 153.6 44.398 237.6-1.1992 4.8008-2.3984 10.801-3.6016 15.602 18-30 42-60 72-88.801 45.602-44.398 92.398-73.199 115.2-86.398 3.6016-67.199 51.602-104.4 73.199-117.6 7.1992-20.398 26.398-66 67.199-90 28.801-16.801 61.199-19.199 97.199-9.6016 8.3984 2.3984 14.398 8.3984 16.801 15.602 2.3984 8.3984 0 16.801-4.8008 22.801 0 0-27.602 33.602-13.199 57.602 27.602 13.199 126 67.199 134.4 130.8 7.1992 52.801-49.199 79.199-124.8 115.2l-3.6016 1.1992c-74.398 34.801-61.199 72-56.398 85.199 4.8008 0 15.602-3.6016 24-4.8008 19.199-4.8008 43.199-12 70.801-9.6016 44.398 3.6016 67.199 34.801 66 63.602-1.1992 26.398-22.801 54-68.398 52.801-20.398 0-32.398 4.8008-46.801 10.801-15.602 7.1992-33.602 14.398-57.602 12-74.398-7.1992-106.8-68.398-112.8-99.602-2.3984-13.199 6-25.199 18-28.801 13.199-2.3984 25.199 4.8008 28.801 18 1.1992 2.3984 14.398 56.398 70.801 62.398 13.199 1.1992 21.602-2.3984 34.801-8.3984 15.602-7.1992 36-15.602 67.199-14.398 10.801 0 19.199-3.6016 19.199-7.1992 0-4.8008-6-12-21.602-13.199-19.199-1.1992-38.398 3.6016-54 8.3984-25.199 7.1992-66 18-81.602-24-12-33.602-19.199-98.398 80.398-145.2l3.6016-1.1992c54-25.199 100.8-46.801 98.398-66-3.6016-32.398-68.398-75.602-112.8-96-3.6016-1.1992-6-3.6016-8.3984-7.1992-22.801-28.801-20.398-61.199-9.6016-87.602-9.6016 1.1992-19.199 3.6016-26.398 8.3984-34.801 20.398-48 69.602-48 69.602-1.1992 7.1992-6 13.199-13.199 15.602-2.3984 1.1992-58.801 28.801-55.199 92.398 0 9.6016-4.8008 18-13.199 22.801-2.3984 1.1992-235.2 122.4-218.4 309.6 2.3984 21.602 0 76.801 0 84 0 12-9.6016 21.602-20.398 22.801-12 1.1992-22.801-4.8008-26.398-16.801-1.1992-4.8008-42-134.4 1.1992-290.4 19.199-69.602 6-139.2-37.199-196.8-42-56.398-109.2-93.602-170.4-94.801-25.199 0-145.2 4.8008-177.6 139.2 34.801 6 92.398 24 120 80.398 33.602 72 38.398 162 13.199 268.8-21.602 93.602 12 157.2 44.398 193.2 51.602 58.801 126 80.398 171.6 75.602h2.3984l481.2-0.007813c-3.6016-9.6016-10.801-21.602-21.602-30-14.398-12-34.801-16.801-61.199-14.398-8.3984 1.1992-18-3.6016-22.801-10.801-4.8008-7.1992-4.8008-16.801-1.1992-25.199 0 0 37.199-64.801 16.801-116.4-9.6016-25.199-34.801-44.398-72-56.398-1.1992 0-2.3984-1.1992-2.3984-1.1992-1.1992-1.1992-45.602-18-90 19.199-9.6016 8.3984-25.199 7.1992-33.602-2.3984-8.3984-9.6016-7.1992-25.199 2.3984-33.602 63.602-54 127.2-32.398 139.2-27.602 51.602 15.602 86.398 44.398 102 84 16.801 43.199 7.1992 91.199-4.8008 122.4 21.602 3.6016 40.801 12 57.602 25.199 39.602 33.602 44.398 86.398 44.398 88.801 0 7.1992-2.3984 13.199-6 18-4.8008 4.8008-10.801 7.1992-18 7.1992h-516c-4.7969 4.7969-10.797 6-16.797 6z"/>
 <path d="m864 752.4c-2.3984 0-3.6016 0-6-1.1992-13.199-3.6016-20.398-16.801-18-28.801l12-45.602c3.6016-13.199 16.801-20.398 28.801-18 13.199 3.6016 20.398 16.801 18 28.801l-12 45.602c-2.4023 12-12 19.199-22.801 19.199z"/>
</svg>
