<svg xmlns="http://www.w3.org/2000/svg" data-name="Layer 1" viewBox="0 0 100 125" x="0px" y="0px"><path d="M59.55,78a1.5,1.5,0,0,0-2,.54,3.78,3.78,0,0,1-4,2.35c-1.48-.2-1.69-2.06-1.59-5a11.88,11.88,0,0,0,3.3-5.11,1.53,1.53,0,0,0-1.05-1.85,32.08,32.08,0,0,0-7.65-.13c-1.23.1-1.92.94-1.54,1.9s2,4.26,3.3,5.23c.33,4.22-1.19,4.92-2.16,5.09a2.9,2.9,0,0,1-3.44-2.45c-.19-.77-1.42-1-2.06-.54a1.54,1.54,0,0,0-.53,2,6.82,6.82,0,0,0,2.79,3.4,5.84,5.84,0,0,0,3.27.53,5.56,5.56,0,0,0,2.65-.82,5.14,5.14,0,0,0,1.29-1.3,4.59,4.59,0,0,0,.83.94,5.09,5.09,0,0,0,2.52,1.11,6.55,6.55,0,0,0,3.23-.18,6.52,6.52,0,0,0,3.44-3.68A1.53,1.53,0,0,0,59.55,78ZM50,73.49a6.3,6.3,0,0,1-1.37-1.91,13.84,13.84,0,0,1,3,.06A6.31,6.31,0,0,1,50,73.49Z"/><path d="M57.16,59.11a5.12,5.12,0,0,1,4.56.09,1.51,1.51,0,0,0,2.05-.54,1.54,1.54,0,0,0-.54-2,6.66,6.66,0,0,0-3.65-1,8.66,8.66,0,0,0-3.94.87,1.52,1.52,0,0,0-.54,2A1.56,1.56,0,0,0,57.16,59.11Z"/><path d="M85.83,73.56A36.25,36.25,0,0,0,78,72.36c0-1.26-.06-4.3-.07-4.61,1.51-.1,3-.12,4.56-.09,1.93,0,1.93-3,0-3-1.61,0-3.21,0-4.81.11a31.9,31.9,0,0,0-3.6-11.4,45.11,45.11,0,0,0-6.2-8.85l.15-.13A62,62,0,0,0,78.21,29a50.48,50.48,0,0,0,2.72-7.93,21.59,21.59,0,0,0,.88-7.23A8.76,8.76,0,0,0,79.22,8.1a8.63,8.63,0,0,0-7.42-2C66,7.29,62.55,13.47,60.32,18.4c-2.64,5.85-3.64,12.06-4,18.41a22.94,22.94,0,0,0-11.46.12,52.88,52.88,0,0,0-3.23-16.57c-2.08-5.2-5.15-11.43-10.64-13.7a8.3,8.3,0,0,0-11.44,5.7,15.51,15.51,0,0,0,.13,6.47,49.65,49.65,0,0,0,2.44,8.33A60.69,60.69,0,0,0,32.93,44.23a42.63,42.63,0,0,0-6.12,7.87,33.55,33.55,0,0,0-4.49,12.66c-1.55-.11-3.11-.13-4.67-.1-1.93,0-1.94,3,0,3,1.46,0,2.91,0,4.36.08,0,.31-.13,3.4-.09,4.63a35.48,35.48,0,0,0-7.63,1.19,1.5,1.5,0,0,0,.79,2.89,33.85,33.85,0,0,1,7.06-1.1c.07.64.15,1.27.27,1.9a17,17,0,0,0,3.48,7.42c4,5.18,9.84,8,16.23,8.92a49.89,49.89,0,0,0,10,.34,75.79,75.79,0,0,0,10.07-1.09,19.64,19.64,0,0,0,13.23-9.21,20.12,20.12,0,0,0,2.37-8.28A33.08,33.08,0,0,1,85,76.45,1.5,1.5,0,0,0,85.83,73.56ZM78,20.31a46.3,46.3,0,0,1-2.27,6.89,58.08,58.08,0,0,1-9.87,15.06l-.12.16c-.34-.32-.69-.62-1-.92A71.93,71.93,0,0,1,69.9,24.55c2-4.29,4.71-8.64,8.83-11.15C79.53,15.32,78.54,18.3,78,20.31ZM59.21,37.77a53.37,53.37,0,0,1,2.64-15.2,40.33,40.33,0,0,1,3.33-7,15,15,0,0,1,5.15-5.69c1.93-1.11,5-1.62,7.15.73-4.62,2.64-7.77,7.38-10,12.08a72.81,72.81,0,0,0-5.4,16.81A23.59,23.59,0,0,0,59.5,38l-.31-.14A.36.36,0,0,1,59.21,37.77ZM29.15,9.2a11,11,0,0,1,5.64,4.61,40.21,40.21,0,0,1,3.76,7c2.25,5.4,3,11.17,3.32,17,0,.06,0,.11,0,.17l-.14.06a25.3,25.3,0,0,0-2.59,1.33A72.42,72.42,0,0,0,33.8,22.7C31.53,18,28.34,13.17,23.65,10.55A5.52,5.52,0,0,1,29.15,9.2ZM26.06,28.87a44.57,44.57,0,0,1-2.53-6.72c-.61-2.12-1.65-6.54-1.17-8.85,4.22,2.49,7,6.9,9,11.25a71.54,71.54,0,0,1,5.1,16.58c-.46.34-.9.7-1.34,1.07A61.29,61.29,0,0,1,26.06,28.87ZM75,72.36a35.3,35.3,0,0,0-13.26,3.1c-1.75.8-.23,3.39,1.51,2.59a31.38,31.38,0,0,1,11.51-2.7,28.45,28.45,0,0,1-.8,4.05,15.3,15.3,0,0,1-9.34,9.66A34,34,0,0,1,56,90.62a69.43,69.43,0,0,1-9.12.39c-5.71-.19-11.89-1.53-16.22-5.52a17.84,17.84,0,0,1-4.71-6.57,16.16,16.16,0,0,1-.81-3.58,31.26,31.26,0,0,1,11.77,2.71c1.74.8,3.27-1.79,1.51-2.59a35.28,35.28,0,0,0-13.48-3.11.76.76,0,0,1,0-.15c0-1.4,0-2.79.07-4.17a35.36,35.36,0,0,1,3.8.73,51,51,0,0,1,10.9,4.34c1.71.88,3.23-1.71,1.51-2.59a54.88,54.88,0,0,0-11.61-4.64,39.2,39.2,0,0,0-4.27-.82,30,30,0,0,1,3.12-9.72c3.21-6.07,8.45-12,14.84-14.74a19.84,19.84,0,0,1,13.66-.46c5.54,2.12,9.55,7,12.75,11.79a30,30,0,0,1,5,13.15,37.21,37.21,0,0,0-4.16.8,54.88,54.88,0,0,0-11.61,4.64c-1.72.88-.2,3.47,1.51,2.59a51,51,0,0,1,10.9-4.34,34.64,34.64,0,0,1,3.6-.7C75,69.48,75,70.92,75,72.36Z"/><path d="M44.76,58.57a1.51,1.51,0,0,0-.54-2,8.66,8.66,0,0,0-3.94-.87,6.66,6.66,0,0,0-3.65,1,1.54,1.54,0,0,0-.54,2,1.51,1.51,0,0,0,2.06.54,5.11,5.11,0,0,1,4.56-.09A1.55,1.55,0,0,0,44.76,58.57Z"/><text x="0" y="115" fill="#000000" font-size="5px" font-weight="bold" font-family="'Helvetica Neue', Helvetica, Arial-Unicode, Arial, Sans-serif">Created by Visual Glow</text><text x="0" y="120" fill="#000000" font-size="5px" font-weight="bold" font-family="'Helvetica Neue', Helvetica, Arial-Unicode, Arial, Sans-serif">from the Noun Project</text></svg>