<svg xmlns="http://www.w3.org/2000/svg" version="1.1" viewBox="-5.0 -10.0 110.0 135.0">
 <path d="m67.785 0.054688c-0.91016 0.22656-1.7539 0.9375-2.8281 2.3984-0.23828 0.32031-0.45312 0.58594-0.48047 0.59375-0.019531 0.007813-0.17187-0.25781-0.33594-0.59375-0.48438-1.0117-1.25-1.6406-2.3711-1.9492-0.64062-0.17188-2.0625-0.21094-2.8008-0.074218-1.8789 0.35547-3.5742 1.6523-4.2148 3.2383-0.12891 0.32031-0.15625 0.51172-0.15625 1.1055 0 0.68359 0.011719 0.74609 0.24609 1.2305 0.28516 0.60156 0.69531 1.1406 1.4062 1.832 0.28125 0.27344 0.5 0.50391 0.49219 0.51953-0.015626 0.007812-0.22656 0.10156-0.47266 0.20312-2.3828 1.0117-3.9609 3.0625-3.9609 5.1523 0 1.2773 0.56641 2.4141 1.6172 3.2188 1.168 0.90234 2.6602 1.2578 3.9297 0.92187 0.40234-0.10156 1.5117-0.52734 1.6602-0.63672 0.042969-0.027344 0.20703-0.12891 0.375-0.22656l0.30859-0.17578-0.007813 0.83203c-0.015625 0.79297-0.035156 0.89453-0.42578 2.2969-0.22656 0.80859-0.47656 1.8047-0.55469 2.2227-0.42969 2.3438-0.99609 5.8477-1.3789 8.5664l-0.082031 0.58203-0.22656-0.95703c-0.375-1.5977-0.73828-2.5-1.4492-3.5742-0.98828-1.4961-2.2539-2.2617-3.4102-2.0508-1.1836 0.21094-1.8984 1.3125-1.8789 2.8633 0.019532 1.168 0.4375 2.1875 1.3711 3.3555 1.3594 1.6875 3.5742 3.0664 4.9258 3.0664h0.29297l-0.046875 0.39062c-1.0391 8.7148-1.375 13.031-1.5508 19.852-0.097656 3.7461 0.007812 8.7188 0.24609 11.805 0.10937 1.3867 0.32812 3.6406 0.44922 4.668 0.074219 0.63672 0.125 1.168 0.10156 1.1953-0.046875 0.042969-0.67578-1.2695-1.1562-2.3828-0.88672-2.0859-3.1992-6.2617-5.5352-10.004-0.70312-1.125-2.7188-4.1602-3.5-5.2734l-0.44531-0.63672 0.52734-0.38281c0.29297-0.21875 0.64062-0.46484 0.77344-0.55859 0.62891-0.45703 1.9219-1.9258 2.5977-2.9453 0.94922-1.4297 1.4492-3.2852 1.2305-4.5664-0.17188-1.0508-0.72266-1.8047-1.625-2.2266-0.42969-0.20312-0.50391-0.21875-1.2422-0.21875-0.71875 0-0.82031 0.015625-1.1875 0.19141-1.3945 0.64844-2.3906 2.1953-2.8438 4.4219-0.17188 0.83984-0.19141 2.3242-0.042969 3.2461 0.0625 0.33594 0.097656 0.61328 0.089844 0.62891-0.011719 0.007812-0.28125-0.32812-0.59375-0.75-0.75781-1.0039-2.3711-3.0117-3.2461-4.0469-2.9805-3.5273-3.3086-3.9414-3.2578-4.1758 0.011718-0.097656 0.12109-0.23828 0.23047-0.32031 0.56641-0.41797 1.0664-1.5977 1.1289-2.6797 0.074219-1.2969-0.39453-2.3711-1.6133-3.668l-0.41797-0.44531 0.30859-0.11719c0.50781-0.19922 1.3047-0.75781 1.5938-1.125 0.60156-0.75391 0.88281-1.7617 0.80469-2.8438-0.046875-0.75781-0.17188-1.2227-0.47656-1.8438-1.0117-2.043-3.1172-2.5195-5.7383-1.3047-0.37109 0.17187-0.68359 0.3125-0.69141 0.3125-0.007813 0-0.042969-0.19141-0.0625-0.42969-0.16406-1.4492-0.78516-2.7812-1.7773-3.7734-0.59375-0.60156-1.2227-0.96484-1.9492-1.1289-0.47266-0.10938-1.4492-0.054687-1.8516 0.10938-1.1055 0.4375-1.9141 1.4414-2.3984 2.9648-0.22656 0.69141-0.23047 0.75781-0.23047 1.8086 0 1.2227 0.0625 1.5703 0.41797 2.3516 0.12891 0.28125 0.22656 0.51953 0.21094 0.52734-0.015625 0.011719-0.31641-0.007813-0.67188-0.046875-1.6211-0.18359-3.0078 0.0625-3.957 0.71094-1.4414 0.99219-2.1953 2.5156-1.8867 3.8398 0.34766 1.4844 1.8164 2.6055 4.1289 3.1523 0.40234 0.09375 0.77344 0.18359 0.8125 0.19922 0.054688 0.019531-0.015625 0.17578-0.21094 0.45703-0.80078 1.1484-1.1953 2.2539-1.2031 3.3086 0 1.3125 0.82031 2.8008 2.0508 3.7188 2.0625 1.5234 4.4219 1.4336 6.2031-0.23828 0.85547-0.80078 1.5938-1.9883 1.9336-3.1172l0.13672-0.44922 0.55859 0.28906c0.73047 0.38281 1.1602 0.47656 2.0312 0.47266 0.55859-0.007812 0.83984-0.046875 1.2969-0.18359 0.32031-0.097656 0.59375-0.14453 0.60156-0.10938 0.074218 0.21094 1.0039 1.3516 3.3945 4.1953 2.1992 2.6094 4.3125 5.4062 6.5039 8.6094 1.0391 1.5156 2.5508 3.8203 2.5508 3.8867 0 0.019531-0.4375-0.23438-0.97266-0.55469-2.082-1.2578-3.3828-1.7695-5.1445-2.0352-0.88281-0.12891-2.1406-0.12891-2.7734 0-1.3789 0.29297-2.3242 1.1875-2.5273 2.4062-0.074219 0.41016-0.066407 0.52734 0.0625 1.0312 0.48437 1.9062 2.707 3.3086 5.4141 3.4102 1.4219 0.054688 2.6719-0.21875 4.0664-0.90234 0.73047-0.35547 1.9141-1.1211 2.3984-1.5664 0.19922-0.17188 0.37109-0.31641 0.39062-0.31641 0.046875 0 1.5586 2.5625 2.5742 4.375 1.1016 1.9688 1.8242 3.4023 2.4141 4.75 0.41797 0.97656 1.1562 2.5156 1.2773 2.6641 0.027344 0.035156 0.23828 0.48438 0.47656 0.99219l0.42578 0.92188 0.32812 1.9453c0.17578 1.0742 0.33984 2.0352 0.36328 2.1523 0.019531 0.10938 0.20312 1.0312 0.41016 2.0508 1.0664 5.1914 2.1367 9.4219 3.6758 14.465 0.82812 2.7188 1.2227 4.1484 1.1836 4.2578-0.074219 0.19141 0.039063 0.4375 0.25391 0.54688 0.19141 0.10156 0.22656 0.10156 0.375 0.007812 0.35547-0.23828 0.42969 0.089844-1.3047-5.7109-1.1328-3.8047-1.9805-7.0352-2.793-10.66-0.33594-1.5156-0.92969-4.3516-0.92969-4.4688 0-0.019531 0.28906-0.027344 0.63672 0 0.74609 0.046875 2.0078-0.0625 2.8789-0.24609 1.3242-0.29297 2.5898-0.82031 3.6641-1.5391 0.67578-0.44922 1.7891-1.5312 2.2695-2.1992 1.1602-1.6055 1.6602-3.5586 1.3242-5.1523-0.29297-1.3789-1.3047-2.2148-2.543-2.082-2.207 0.22656-4.9492 2.418-6.8945 5.5156-0.51953 0.82812-1.2305 2.1992-1.5117 2.9258-0.15234 0.39063-0.20703 0.47266-0.24609 0.375-0.089843-0.21875-0.56641-3.4727-0.83984-5.6992-0.38281-3.1719-0.71875-7.8008-0.71875-10.016 0-0.64062 0.015625-0.73047 0.26562-1.332 0.91016-2.1992 1.4766-3.4766 2.0625-4.6523 0.61328-1.2305 1.4336-2.7188 1.4961-2.7188 0.027343 0 0.38281 0.19141 0.79297 0.42578 2.582 1.4609 4.1211 1.9453 5.9727 1.8789 0.8125-0.027343 0.99219-0.054687 1.4805-0.23828 0.65625-0.23828 1.0312-0.48438 1.4688-0.94922 0.99609-1.0742 1.0664-2.6875 0.14844-3.6016-0.33594-0.33594-0.94922-0.62891-1.6055-0.76562-0.74609-0.15625-2.418-0.09375-3.5273 0.12891-1.2422 0.26172-2.3711 0.64062-3.3203 1.1211l-0.32812 0.16406 0.42188-0.63672c1.2695-1.8984 2.6289-3.5195 4.5312-5.4258 1.332-1.3242 2.707-2.5547 2.8555-2.5547 0.027344 0 0.019532 0.082031-0.027343 0.18359-0.12891 0.32813-0.089844 1.1836 0.074219 1.6797 0.28516 0.85938 0.92969 1.6328 1.625 1.9609 1.1758 0.55469 2.6797-0.10156 3.7109-1.6211 0.19922-0.29297 0.375-0.54688 0.38281-0.55859 0.015624-0.015625 0.16406 0.10156 0.34766 0.25391 0.67578 0.55859 1.332 0.76562 2.4453 0.77344 1.6602 0 3.0195-0.65625 3.5312-1.707 0.22656-0.44922 0.22656-1.2695-0.007812-1.7344-0.19922-0.40234-0.78125-1.0469-1.2578-1.3945-0.19922-0.13672-0.36719-0.25781-0.38281-0.27344-0.019531-0.015625 0.17188-0.23438 0.42578-0.48438 0.83203-0.84766 1.3984-1.6875 1.6953-2.5156 0.20313-0.58203 0.15625-1.4844-0.10156-2.0156-0.62891-1.3008-2.0508-1.9688-3.4375-1.6133-0.46484 0.12109-1.082 0.41797-1.4492 0.69141l-0.23047 0.17188-0.15625-0.44922c-0.50391-1.4414-1.9805-2.3164-3.5-2.0703-0.92187 0.14844-1.6484 0.47266-2.418 1.0781-1.1289 0.88281-1.3672 2.2539-0.62891 3.5391l0.16406 0.28125-0.42969 0.11719c-0.62109 0.17187-1.25 0.55469-1.7617 1.0586-0.53516 0.53906-0.76562 0.98438-0.80078 1.543-0.019531 0.34766 0.007813 0.46484 0.17188 0.78516 0.24609 0.46484 0.75781 0.875 1.4766 1.1875l0.52734 0.22656-1.0117 0.8125c-2.0039 1.6133-4.2695 4.0117-5.9727 6.3125-2.0156 2.7383-3.5586 5.4648-5.1602 9.1562-0.32031 0.73047-0.59375 1.3477-0.61328 1.3672-0.042969 0.035156 0.027344-5.4141 0.082031-6.6289 0.14453-3.2109 0.19141-4.1016 0.3125-5.8086 0.066407-1.0742 0.14453-2.1055 0.16406-2.2891 0.019531-0.19141 0.09375-1.0312 0.17188-1.8789 0.16406-1.8398 0.17188-1.8711 0.32812-1.8047 0.60156 0.25781 3.6289 0.0625 4.9688-0.32812 1.0586-0.30859 2.043-0.91797 2.582-1.5859 1.0859-1.375 1.2422-3.4766 0.32812-4.4023-0.71094-0.71094-1.7227-0.72266-3.1172-0.039063-1.4297 0.69531-3.0273 2.2148-4.4062 4.1758-0.16406 0.23828-0.30859 0.42578-0.31641 0.41016-0.007813-0.007813 0.046874-0.50391 0.11719-1.1055 0.71094-6.1367 1.8086-13.523 2.3555-15.816 0.15625-0.64062 0.39062-1.5039 0.48047-1.7773 0.019532-0.0625 0.11719 0.046875 0.25391 0.29297 0.83203 1.4883 2.3359 2.3711 3.9141 2.2891 0.51953-0.027343 0.71094-0.074219 1.0781-0.24609 0.85547-0.40234 1.5234-1.3047 1.8945-2.5742 0.14453-0.48438 0.16406-0.69141 0.16406-1.7617v-1.2148l0.375 0.054688c0.20703 0.027344 0.86719 0.054687 1.4688 0.054687 1.1836 0 1.7266-0.097656 2.5156-0.41797 2.0781-0.83984 3.7578-3.0898 3.582-4.7852-0.13672-1.3047-1.543-2.418-3.8047-3.0117l-0.67578-0.17969 0.20703-0.40234c0.56641-1.1211 0.82812-2.4609 0.69141-3.5742-0.30078-2.4414-1.9219-4.2227-3.8047-4.1953-0.22656 0.0078125-0.5 0.027344-0.61719 0.054688zm6.1836 36.57c-0.40234 0.17578-0.52734 0.30078-0.73047 0.69531-0.35547 0.71094-0.27344 1.3867 0.24609 1.9062 0.75 0.75391 1.8984 0.65625 2.4961-0.20312 0.19141-0.28125 0.38281-0.84766 0.38281-1.1406 0-0.55859-0.42969-1.1328-0.97656-1.2969-0.48438-0.14453-1.0469-0.12891-1.4141 0.042968zm1.25 0.62891c0.32031 0.13672 0.41797 0.28516 0.41797 0.65625 0 0.99219-1.0508 1.5117-1.6953 0.83594-0.39844-0.41797-0.25391-1.2148 0.25781-1.4688 0.26562-0.12891 0.72266-0.13672 1.0195-0.019532zm-47.098-3.9766c-0.39062 0.10938-0.61719 0.21094-0.61719 0.27344 0 0.027344-0.074218 0.125-0.16406 0.21094-0.22656 0.21875-0.31641 0.53906-0.31641 1.1484 0 0.75 0.097656 1.1875 0.39062 1.7695 0.41016 0.80469 1.0234 1.1484 1.9414 1.0859 0.83984-0.0625 1.5508-0.51172 1.8867-1.2031 0.26562-0.54688 0.30859-1.4414 0.089843-2.0234-0.19922-0.51172-0.52734-0.875-1.0117-1.1055-0.34375-0.16406-0.48437-0.19141-1.1758-0.20312-0.42969-0.015625-0.89453 0.007812-1.0234 0.046875zm2.0234 0.84766c0.39844 0.25391 0.58984 0.60156 0.62891 1.1406 0.074218 1.0312-0.40234 1.6797-1.3398 1.8047-0.83984 0.10938-1.332-0.25391-1.625-1.1953-0.11719-0.375-0.13672-1.293-0.027344-1.6055 0.0625-0.20312 0.10938-0.23047 0.42969-0.30078 0.19922-0.039062 0.63672-0.0625 0.97656-0.054688 0.5625 0.015626 0.66406 0.035157 0.95703 0.21094zm32.824-26.211c-0.375 0.12109-0.75 0.36328-0.91406 0.57422-0.09375 0.12891-0.17578 0.25781-0.17578 0.29297s-0.082031 0.21094-0.17188 0.40234c-0.45703 0.92969 0.027344 2.2539 1.0117 2.7266 1.1289 0.55469 2.5703 0.039063 3.0977-1.0859 0.22656-0.47656 0.22656-1.1602 0-1.6406-0.20703-0.44531-0.75781-0.94141-1.2578-1.1328-0.41797-0.15625-1.293-0.23438-1.5859-0.13672zm1.2656 0.76563c0.68359 0.25391 1.0586 0.72266 1.0586 1.3242 0 0.42188-0.12891 0.70312-0.46484 1.0039-0.79297 0.71094-2.0078 0.53516-2.4531-0.36328-0.19922-0.39453-0.20703-0.90234-0.019531-1.1328 0.074219-0.097657 0.13672-0.23828 0.13672-0.32031 0-0.18359 0.30078-0.47656 0.58203-0.57422 0.32812-0.11719 0.75-0.09375 1.1602 0.0625zm5.1797-7.707c1.1055 0.50391 1.9492 1.9492 2.0781 3.5469 0.074218 0.94922-0.13672 1.8516-0.73047 3.0898-0.19141 0.39062-0.33984 0.75781-0.33984 0.82031 0 0.21094 0.29297 0.42969 0.65625 0.48047 0.47266 0.066406 1.4062 0.33984 1.9883 0.58203 0.92188 0.375 1.7539 1.0781 1.9414 1.625 0.042969 0.12891 0.0625 0.44531 0.046876 0.70312-0.019532 0.39063-0.074219 0.57422-0.35547 1.1367-0.28125 0.56641-0.42969 0.77344-0.95703 1.2969-0.85547 0.85938-1.707 1.3242-2.8086 1.5352-0.67578 0.13672-2.2461 0.11719-2.957-0.035156-0.3125-0.0625-0.62109-0.09375-0.69141-0.074218-0.23438 0.066406-0.28125 0.32031-0.17969 0.90234 0.37109 2.0586-0.33594 4.2031-1.5703 4.8047-0.42188 0.20312-1.1758 0.25391-1.7227 0.11719-1.2656-0.32812-2.25-1.2422-2.7422-2.5625-0.14453-0.39062-0.17187-0.58203-0.17578-1.2773-0.007812-0.75 0.007813-0.84766 0.16406-1.1133 0.13672-0.23828 0.14844-0.3125 0.082031-0.41016-0.046875-0.0625-0.10938-0.18359-0.14453-0.26562-0.14453-0.32031-0.39844-0.27344-0.96875 0.18359-0.39062 0.30859-1.375 0.8125-1.9766 1.0234-1.3945 0.48047-2.9258 0.089844-4.0312-1.0234-0.74609-0.74609-1.0195-1.375-1.0273-2.3516 0-1.25 0.68359-2.5352 1.8672-3.4844 0.53125-0.42969 1.6211-1.0469 2.1328-1.2031 0.41797-0.12891 0.5-0.23438 0.5-0.63672v-0.35547l-0.73047-0.75c-1.1289-1.1484-1.4414-1.707-1.4414-2.5273 0-1.3672 1.4219-2.8828 3.2461-3.4492 0.67578-0.21094 2.0781-0.26562 2.7734-0.10938 1.2773 0.28516 1.8867 0.83984 2.4258 2.1992 0.26172 0.67188 0.39062 0.84766 0.60938 0.84766s0.30859-0.09375 0.94922-0.99609c0.83203-1.1836 1.5664-1.9414 2.1797-2.2539 0.46484-0.23047 0.52734-0.24609 1.0039-0.21875 0.37109 0.019531 0.62891 0.082031 0.91016 0.21094zm-40.98 22.625c1.6875 0.44531 3.0938 2.6367 3.1094 4.8438 0 0.32812 0.027343 0.42188 0.17188 0.55859 0.089844 0.097656 0.19922 0.17188 0.24609 0.17188 0.039062 0 0.50391-0.21094 1.0312-0.47266 2.0508-1.0234 3.4297-1.0195 4.4688 0.027343 0.62891 0.62891 0.98437 1.5664 0.98437 2.5977 0 1.5859-0.71094 2.5703-2.2734 3.1445-0.34375 0.12891-0.59375 0.39844-0.59375 0.63672 0 0.082031 0.17969 0.30859 0.41797 0.53906 0.56641 0.53125 1.1836 1.3203 1.4336 1.8047 0.40234 0.80078 0.49219 1.4883 0.30078 2.3828-0.28125 1.3477-1.1328 2.1133-2.6094 2.3711-0.99609 0.17188-1.9805-0.066406-2.875-0.71094-0.50391-0.35547-0.76562-0.28125-0.90234 0.27344-0.47656 1.8945-1.543 3.4375-2.8633 4.1406-1.1055 0.58203-2.3359 0.58203-3.5312 0-1.5391-0.75391-2.5625-2.2148-2.5547-3.6445 0.007813-1.0391 0.46484-2.1445 1.3945-3.3633 0.28125-0.36719 0.32031-0.69141 0.11719-0.875-0.074219-0.070313-0.60156-0.23828-1.1836-0.375-1.7422-0.4375-2.6523-0.86719-3.2734-1.5664-0.97266-1.0938-0.83984-2.4453 0.34766-3.6367 1.0039-1.0039 2.2344-1.3203 4.2383-1.0938 1.2773 0.14453 1.6484 0.14844 1.7852 0.027344 0.19141-0.17188 0.16406-0.26172-0.21875-0.68359-1.543-1.707-1.1602-5.3242 0.72266-6.7578 0.50391-0.39062 1.4141-0.53906 2.1172-0.34766zm25.484 2.0234c0.67578 0.34375 1.5781 1.375 2.1055 2.4336 0.4375 0.86719 0.85547 2.3828 1.1406 4.1328 0.19141 1.1836 0.19141 1.1562-0.13672 1.1562-1.0742 0-3.1172-1.3203-4.2695-2.7461-0.5625-0.70312-0.86328-1.2305-1.0938-1.9336-0.16406-0.48047-0.18359-0.62891-0.15625-1.2305 0.054688-1.3477 0.62109-2.043 1.625-1.9961 0.30078 0.011719 0.55469 0.074219 0.78516 0.18359zm20.555 6.3828c0.76562 0.34766 1.1758 0.89453 1.4141 1.8945 0.20703 0.86719 0.42969 0.94922 1.0742 0.40234 0.21875-0.18359 0.62891-0.45703 0.91016-0.59375 0.49219-0.24609 0.53906-0.26172 1.1953-0.26172 0.62891 0 0.71094 0.015626 1.0547 0.20703 0.39062 0.21094 0.82031 0.69531 1.0117 1.1211 0.0625 0.14453 0.10938 0.4375 0.10938 0.72656 0 0.39453-0.035157 0.55859-0.21094 0.9375-0.29297 0.64844-0.80859 1.3672-1.457 2.0352-0.30859 0.32031-0.60156 0.64844-0.65625 0.72266-0.14844 0.23828-0.046875 0.44922 0.375 0.74609 0.56641 0.39453 1.2344 1.0508 1.3984 1.3672 0.41016 0.79297-0.054687 1.7031-1.0977 2.1602-0.51953 0.22656-1.3477 0.35547-2.0586 0.32031-0.875-0.046874-1.3789-0.27344-1.9414-0.86719-0.52734-0.54688-0.71875-0.56641-0.99219-0.10156-0.89453 1.5391-1.6602 2.207-2.6367 2.3242-0.32812 0.039063-0.42969 0.019531-0.75391-0.13672-0.90234-0.44531-1.5508-1.7344-1.3398-2.6719 0.12109-0.5625 0.33594-0.88281 0.88281-1.3516 0.32812-0.27344 0.12109-0.55469-0.44922-0.62891-0.21875-0.019531-0.62109-0.125-0.90234-0.21094-1.3242-0.44531-1.832-1.1016-1.4414-1.8711 0.41797-0.82031 1.707-1.5703 2.6992-1.5703 0.23828 0 0.44531-0.19141 0.44531-0.41016 0-0.0625-0.15625-0.35547-0.34375-0.64844-0.75-1.1914-0.71094-2.0234 0.14453-2.7969 0.42969-0.38281 1.3047-0.82812 1.9062-0.96484 0.56641-0.12891 1.1953-0.074218 1.6602 0.12891zm-9.9492 2.0586c0.32812 0.13672 0.48437 0.28125 0.64062 0.59375 0.29297 0.58203 0.22656 1.5586-0.17187 2.4141-0.55859 1.1953-1.7227 1.9453-3.4922 2.2461-0.83203 0.13672-3 0.28125-3.4023 0.21875-0.38281-0.0625-0.39062-0.007812 0.24609-0.96484 1.5625-2.3516 3.6211-4.1328 5.207-4.5156 0.47266-0.11719 0.67578-0.11719 0.96875 0.007812zm-15.352 9.5312c0.875 0.44531 1.2344 1.1016 1.2344 2.2227-0.007812 1.2305-0.36328 2.3047-1.2031 3.6211-0.59375 0.93359-1.8711 2.3086-2.6641 2.8711-0.25781 0.18359-0.56641 0.40234-0.66797 0.49219-0.10938 0.089844-0.21875 0.15625-0.25391 0.15625-0.097657 0-0.45313-0.94141-0.64844-1.707-0.14844-0.58594-0.19141-0.92969-0.21875-1.8516-0.054688-1.6328 0.16406-2.6992 0.82031-3.9766 0.50391-1.0039 1.0781-1.5781 1.8789-1.8984 0.44922-0.18359 1.293-0.15234 1.7227 0.074218zm19.746 6.2109c0.96875 0.30859 1.4492 1.0781 1.2305 2.0039-0.19141 0.80469-0.65625 1.3594-1.4609 1.7266-1.3047 0.60938-3.0469 0.47266-5.0586-0.39062-0.82031-0.34766-2.6367-1.3594-2.6367-1.4688 0-0.10156 0.73047-0.62109 1.1953-0.85938 0.92969-0.46484 2.5195-0.9375 3.7227-1.1133 0.9375-0.12891 2.4336-0.082031 3.0078 0.10156zm-25.965 7.6914c1.8711 0.36328 3.0625 0.91016 5.8008 2.6602l0.4375 0.27344-0.26562 0.23047c-1.1914 1.0312-3.1914 1.9766-4.7031 2.207-0.64844 0.10156-1.9141 0.035156-2.6289-0.14453-0.60156-0.14453-1.5117-0.53906-1.9609-0.84766-0.45703-0.30859-0.95703-0.84766-1.1953-1.293-0.21094-0.39062-0.23047-0.47266-0.23047-1.0391 0-0.54688 0.019531-0.64844 0.18359-0.92969 0.35547-0.60938 1.0117-1.0312 1.8594-1.1953 0.60938-0.11719 1.9062-0.082031 2.707 0.074219zm24.855 11.301c0.60938 0.42969 0.86719 1.1016 0.85938 2.2266-0.011719 1.7344-0.78516 3.3477-2.3008 4.8047-1.6406 1.5586-3.8203 2.4258-6.3672 2.5156-0.52734 0.019531-1.0938 0.007812-1.2656-0.019531-0.375-0.074219-0.375-0.097657-0.027344-1.0312 0.92969-2.4961 2.1797-4.5039 3.8398-6.1836 1.1055-1.1289 2.3047-1.9414 3.4297-2.3516 0.61328-0.22656 1.4961-0.20703 1.832 0.039063z" fill-rule="evenodd"/>
<text x="0.0" y="117.5" font-size="5.0" font-weight="bold" font-family="Arbeit Regular, Helvetica, Arial-Unicode, Arial, Sans-serif" fill="#000000">Created by Natcha Rochana</text><text x="0.0" y="122.5" font-size="5.0" font-weight="bold" font-family="Arbeit Regular, Helvetica, Arial-Unicode, Arial, Sans-serif" fill="#000000">from Noun Project</text></svg>