<svg xmlns="http://www.w3.org/2000/svg" data-name="Слой 1" viewBox="0 0 100 125" x="0px" y="0px"><title>plant-01-01-01-01-01-01-01</title><path d="M63.95274,49.46145c2.09064,1.46219,3.89523.62062,5.61195,0.646,2.16075,0.032,4.32018-.53739,6.48666-0.18521,1.15949,0.18848,1.61634.58826,1.33775,2.03274a54.02625,54.02625,0,0,1-3.09661,9.06977c-1.559,4.05691-3.4615,7.98742-5.23831,11.96276a80.35242,80.35242,0,0,0-5.01462,14.51409c-0.38108,1.63451-1.07344,2.07574-2.55169,2.11269-8.40569.21006-16.78106-.25791-25.16383-0.58953-1.75706-.06952-2.12892-0.51233-2.10322-2.49884,0.05988-4.6287-1.87849-8.86391-3.549-13.093-0.22086-.55916-0.99648-0.97525-1.04424-1.508C29.043,65.40328,25.68209,59.98562,22.98834,54.306c-0.81607-1.72059-.642-2.1688,1.37092-2.32994,2.916-.23345,5.83983-0.33936,8.75951-0.51833,0.72354-.04435,1.44392-0.16049,2.72416-0.308C33.4464,48.93954,31.49936,47.059,29.46,45.28421c-2.62338-2.28307-3.36368-5.27709-3.19482-8.58479,0.14305-2.8024.41117-5.60418,0.7329-8.39552a6.819,6.819,0,0,0-.56584-4.43923c-0.4476-.76928-0.99693-1.76776.15681-2.27429,0.89956-.39494,1.17382.71487,1.482,1.31081,2.15844,4.17431,6.49677,5.65118,9.94144,8.47642,0.6238-6.71795,4.0394-11.84221,7.68441-16.80969,1.046-1.42552,1.11758-4.03639,2.91057-4.224,1.95-.20411,1.98162,2.61121,3.3326,3.73267,2.63016,2.18329,4.22033,5.289,6.69551,7.66916a11.602,11.602,0,0,1,3.73695,9.19315,25.39214,25.39214,0,0,0,6.86813-4.58736A20.88938,20.88938,0,0,1,70.936,24.79338c0.474-.3398,1.09185-0.84059,1.63656-0.0973a1.0676,1.0676,0,0,1-.03121,1.40969c-2.12264,2.00964-1.27842,4.25259-.572,6.39976a24.93791,24.93791,0,0,1,.84584,4.87088,7.85451,7.85451,0,0,1-2.35391,6.63312A24.35715,24.35715,0,0,1,63.95274,49.46145ZM75.10757,51.814c-16.63207-.21608-33.19215,1.50232-50.00952,1.76723,0.20867,0.85716.288,1.34787,0.447,1.80985,1.19724,3.478,3.3452,6.52078,4.35288,10.10531,0.70564,2.51007,1.04729,2.65643,3.39642,1.08776,2.54989-1.7027,4.74639-1.55032,6.95042.30514,0.57923,0.48762,1.1028,1.04058,1.67242,1.54025,3.45063,3.02676,7.195,2.85866,10.43845-.45743a27.78285,27.78285,0,0,1,2.18315-2.18224,4.93,4.93,0,0,1,7.1046.69683c0.54388,0.69213.91956,1.51539,1.432,2.2355,1.15136,1.61813,3.0158,1.02617,4.57751,1.29,1.45381,0.24554,1.40069-1.26716,1.86381-2.05308,2.36166-4.0077,3.48652-8.52913,5.33872-12.75271A6.9129,6.9129,0,0,0,75.10757,51.814ZM67.60123,72.05255c-3.14443-.057-5.48611-0.33718-6.86348-3.14929-1.61589-3.29912-3.49589-3.33611-6.18185-.58091-1.33125,1.36558-2.42756,2.95433-4.39157,3.61123-4.47043,1.4951-7.92425.00563-10.95585-3.19338-1.64618-1.7371-3.21644-1.83342-5.044-.60291-1.9346,1.30259-2.09785,2.31162-1.35563,4.85778,1.18916,4.07941,3.42038,7.9278,2.59515,12.48838-0.24465,1.352.70885,1.67825,1.91074,1.65224,2.15581-.04667,4.29769.00271,6.46138,0.1616a113.96434,113.96434,0,0,0,16.00923.09987,3.162,3.162,0,0,0,3.2716-2.57058A90.73995,90.73995,0,0,1,67.60123,72.05255Zm-16.593-43.165,0.77293,0.03851c-0.16005,1.58692-.32322,3.17358-0.47958,4.76079a63.87142,63.87142,0,0,0,.60085,14.43487c0.24,1.87127,1.90551,2.60935,4.10893,2.08683,1.858-.44059,1.01533-1.81591.84662-2.78673A16.73174,16.73174,0,0,1,59.6008,34.33507c0.36925-.52117,1.04148-1.01041.89709-1.6325-0.62376-2.68737-.09657-5.82826-2.09648-7.97559-3.31738-3.56192-5.8915-7.79114-9.74379-11.112-2.95942,4.10564-5.98967,7.91447-7.42309,12.70012-1.00259,3.34732-1.005,6.47177,1.00539,9.42877a11.46907,11.46907,0,0,1,2.29877,8.24554c-0.38141,2.48162.91114,4.09724,2.08729,5.86287a2.08377,2.08377,0,0,0,2.68319.77237c1.13331-.41265.909-1.3698,0.87018-2.26137-0.11064-2.54307-.31967-5.08876-0.25777-7.63177C50.01812,36.76553,49.98163,32.76692,51.00824,28.88755ZM39.12934,50.12874c-0.07931-5.17527-4.15561-7.69425-5.67947-11.575,3.71038,2.363,5.59414,6.18752,8.08195,10.25145,1.03848-4.64288,1.74791-8.61539-1.12224-12.14107-3.05954-3.75834-7.326-5.971-11.5678-9.0799-0.36915,3.36955-.502,6.26049-1.05508,9.07569a6.98455,6.98455,0,0,0,1.13568,5.411A20.45028,20.45028,0,0,0,39.12934,50.12874ZM59.5879,48.87991c2.90454-8.13435,4.92893-11.91275,7.64785-13.7326A65.30526,65.30526,0,0,1,64.55769,41.299c-0.993,2.071-2.4341,4.00489-2.4091,6.67717,9.41128-4.87272,10.96288-10.902,6.38654-18.12085C59.38543,34.497,56.46647,41.99065,59.5879,48.87991Z"/><text x="0" y="115" fill="#000000" font-size="5px" font-weight="bold" font-family="'Helvetica Neue', Helvetica, Arial-Unicode, Arial, Sans-serif">Created by Alex Muravev</text><text x="0" y="120" fill="#000000" font-size="5px" font-weight="bold" font-family="'Helvetica Neue', Helvetica, Arial-Unicode, Arial, Sans-serif">from the Noun Project</text></svg>