<svg xmlns:inkscape="http://www.inkscape.org/namespaces/inkscape" xmlns:sodipodi="http://sodipodi.sourceforge.net/DTD/sodipodi-0.dtd" xmlns="http://www.w3.org/2000/svg" xmlns:svg="http://www.w3.org/2000/svg" viewBox="0 0 26.458333 33.07291625" version="1.1" xml:space="preserve" x="0px" y="0px"><g><path style="" d="M 10.815768,24.85684 C 10.537908,24.8332 10.233697,24.715391 9.8968152,24.500981 9.5175352,24.25959 9.2439322,23.949467 8.8816712,23.350354 8.7529172,23.137427 8.6607452,22.960004 8.5024032,22.620265 8.4263632,22.457153 8.2597442,22.126719 8.1718892,21.96486 8.0607072,21.759961 7.9351918,21.516501 7.8764821,21.391694 7.8306661,21.294324 7.7550568,21.113783 7.7420316,21.070651 c -0.0024,-0.0061 -0.023748,0.0161 -0.056851,0.05775 C 7.409407,21.474793 7.107307,21.64964 6.7193794,21.687366 6.5495831,21.703886 6.3675291,21.691966 6.1967613,21.653056 6.0469829,21.618954 5.7968161,21.538475 5.5274832,21.437743 4.960512,21.22569 4.5600628,20.956284 4.2213817,20.559069 4.1701681,20.498992 4.0750452,20.375005 3.9531162,20.209376 3.7911518,19.989352 3.719189,19.903795 3.4961282,19.666063 3.2168284,19.368402 3.1180954,19.229143 2.9248992,18.860353 2.7193493,18.46798 2.5525275,18.067151 2.3854897,17.564282 2.2537738,17.167775 2.2021404,16.95845 2.0527096,16.215327 1.9229486,15.569988 1.8907452,15.42381 1.7998442,15.067501 1.7317194,14.800285 1.6945386,14.669787 1.60654,14.387822 1.4699545,13.950373 1.4347047,13.809075 1.403245,13.5729 1.389692,13.470797 1.391251,13.16582 1.406845,13.063142 1.438149,12.849421 1.488643,12.693464 1.5854808,12.51072 1.6802318,12.332 1.7490643,12.245148 2.005216,11.981204 2.3333767,11.643061 2.3545817,11.61393 2.588377,11.179877 2.7312112,10.914694 2.7753364,10.839129 2.8620516,10.711207 3.1127582,10.34136 3.4390377,10.053993 3.8674924,9.8256874 4.17812,9.6601621 4.6171053,9.5236042 4.9969132,9.4743552 c 0.1768127,-0.022932 0.2692609,-0.028857 0.5132269,-0.032887 0.3044988,-0.00504 0.6045718,0.013997 0.9039972,0.057354 0.041379,0.006 0.076281,0.00983 0.07772,0.0084 C 6.4966547,9.5026606 6.2768922,9.2709144 6.1646781,9.1617821 6.0278648,9.0287301 5.8911594,8.9138747 5.6896274,8.7626559 5.3774047,8.528376 5.2254192,8.3992183 5.0172667,8.1912775 4.7274363,7.9017453 4.5832468,7.6778145 4.4766698,7.3517427 4.3375177,6.9260022 4.3496914,6.5719185 4.5211669,6.0580567 4.6994668,5.5237183 4.8685914,5.2358861 5.2153324,4.8766344 5.2998887,4.7890077 5.4207983,4.6840978 5.6315534,4.5154349 5.8983077,4.3019632 5.9522438,4.2561169 6.4395402,3.828582 6.9696904,3.3634598 7.135085,3.2224427 7.2787348,3.1130915 7.6495953,2.8307861 7.9922463,2.6447658 8.5483152,2.4238399 8.8842612,2.2903704 9.2345292,2.1843523 9.9766462,1.9915183 10.296988,1.9082813 11.147541,1.6969612 11.247857,1.6756878 c 0.408329,-0.086595 0.715059,-0.1011917 1.098945,-0.052341 0.580488,0.073882 1.145576,0.3159084 1.683642,0.7210904 0.304187,0.2290553 0.692415,0.5824516 0.891944,0.8119147 0.263767,0.3033413 0.54928,0.7176386 0.789684,1.1459146 0.03166,0.056491 0.05997,0.1001843 0.06285,0.097102 0.0024,-0.00312 0.0096,-0.018099 0.01379,-0.033355 0.02878,-0.092484 0.109504,-0.2661965 0.178936,-0.3849196 0.246616,-0.4219289 0.550264,-0.7088855 0.909922,-0.8599151 0.308903,-0.1297191 0.801827,-0.1962259 1.29581,-0.1748362 0.255847,0.011034 0.622025,0.048083 0.871546,0.088071 0.407949,0.065378 1.134528,0.2398377 1.463377,0.3513753 0.466885,0.1583566 0.81794,0.3328965 1.224115,0.6086113 0.385877,0.2619351 0.600861,0.4517048 0.833487,0.7357313 0.193785,0.2366042 0.356711,0.4819183 0.660989,0.9952448 0.409627,0.6910519 0.370771,0.6288807 0.745571,1.1929061 0.299934,0.451359 0.364313,0.5510276 0.560267,0.8673726 0.323687,0.5225574 0.421657,0.7301007 0.489571,1.0371221 0.03548,0.16041 0.04208,0.2261356 0.042,0.4188982 -6.9e-5,0.2005439 -0.01,0.2947708 -0.05479,0.5202304 -0.117923,0.5935323 -0.319384,1.0905343 -0.695594,1.7160183 -0.414408,0.688993 -0.794925,1.240215 -1.008697,1.461207 l -0.03435,0.03551 0.05436,0.02243 c 0.0771,0.03181 0.24732,0.118271 0.323011,0.164063 0.392326,0.237343 0.680329,0.569063 0.91431,1.05309 0.240948,0.498443 0.372746,1.110118 0.340016,1.57803 -0.02172,0.310517 -0.08263,0.53825 -0.238363,0.891212 -0.101192,0.229348 -0.330568,0.730558 -0.414203,0.905083 -0.226372,0.472379 -0.264406,0.572103 -0.374528,0.981971 -0.151587,0.56421 -0.238638,0.826986 -0.383496,1.157631 -0.179604,0.409958 -0.515836,0.960977 -0.801972,1.314278 -0.349022,0.430947 -0.778839,0.780392 -1.260618,1.024893 -0.55092,0.279591 -0.999435,0.365275 -1.846987,0.35285 -0.353362,-0.0052 -0.504944,-0.01273 -0.721291,-0.03591 -0.175703,-0.01883 -0.208823,-0.02697 -0.239393,-0.05889 -0.01092,-0.01139 -0.02266,-0.02068 -0.02612,-0.02068 -0.0035,0 -0.03644,0.02744 -0.07326,0.06099 -0.354987,0.323342 -0.872801,0.648961 -1.37684,0.865799 -0.247347,0.106409 -0.443086,0.17149 -1.184159,0.393723 -0.299042,0.08968 -0.638898,0.192952 -0.755238,0.229503 -1.020421,0.320585 -1.486332,0.457198 -2.222824,0.651772 -0.693578,0.183232 -1.290821,0.303223 -1.72694,0.346954 -0.107465,0.0108 -0.333332,0.01252 -0.440413,0.0034 z m 0.443867,-0.356747 c 0.383946,-0.0415 0.927265,-0.149953 1.515405,-0.30249 0.703281,-0.182396 1.259494,-0.343336 2.111858,-0.611061 0.396959,-0.124681 0.523326,-0.16336 0.950173,-0.290829 0.637015,-0.190235 0.749049,-0.225608 0.946695,-0.298904 0.359178,-0.133204 0.685617,-0.300518 1.022319,-0.52398 0.345635,-0.229394 0.603977,-0.457327 0.795839,-0.702163 0.109348,-0.139539 0.179701,-0.285091 0.217953,-0.450911 0.02099,-0.09097 0.026,-0.275672 0.01067,-0.391753 -0.05313,-0.401585 -0.265377,-0.822446 -0.634825,-1.258773 -0.09062,-0.107033 -0.388916,-0.407368 -0.538067,-0.541757 -0.419278,-0.377783 -0.721547,-0.610594 -1.407905,-1.08438 -0.651599,-0.449796 -0.819573,-0.584014 -1.188286,-0.949518 -0.214629,-0.212769 -0.423082,-0.437306 -0.587781,-0.633153 -0.122996,-0.146265 -0.306825,-0.397575 -0.381523,-0.521566 l -0.02351,-0.03909 -0.185568,-7.36e-4 c -0.244757,-9.63e-4 -0.413618,-0.02071 -0.622502,-0.07283 -0.372516,-0.09293 -0.695497,-0.252742 -0.998713,-0.494182 -0.086,-0.06851 -0.296678,-0.27929 -0.357175,-0.357408 -0.02483,-0.03202 -0.05025,-0.06477 -0.05661,-0.07278 l -0.01199,-0.01457 -0.03274,0.01588 c -0.08516,0.0414 -0.323101,0.203852 -0.443675,0.302979 -0.207684,0.170748 -0.508489,0.50463 -0.821731,0.912114 -0.6665798,0.867127 -0.9535078,1.286472 -1.2361898,1.806697 -0.15081,0.277544 -0.242011,0.470366 -0.574036,1.213714 -0.302855,0.67802 -0.503823,1.100822 -0.659011,1.386407 l -0.063688,0.117215 0.0048,0.03884 c 0.014153,0.119399 0.05733,0.270241 0.119974,0.419924 0.04486,0.107128 0.181298,0.380274 0.30673,0.614158 0.160885,0.300012 0.270868,0.517874 0.407885,0.807986 0.172543,0.365312 0.259366,0.525719 0.432137,0.798337 0.345698,0.545491 0.609298,0.800082 1.0638028,1.027449 0.305218,0.152684 0.542947,0.191784 0.918953,0.15114 z m 2.458562,-3.563839 c -0.01739,-0.01738 -0.02411,-0.03128 -0.02758,-0.05722 -0.01199,-0.08547 -0.04258,-0.255675 -0.09031,-0.49547 -0.120082,-0.603324 -0.124244,-0.630885 -0.22841,-1.515408 -0.0728,-0.617904 -0.102547,-0.883734 -0.152681,-1.362825 -0.05625,-0.537972 -0.08719,-1.0424 -0.07676,-1.251475 0.0048,-0.102679 0.0048,-0.102859 0.02687,-0.126402 0.02747,-0.02972 0.06153,-0.03652 0.09751,-0.01945 0.04378,0.0208 0.0457,0.03006 0.0457,0.226617 0,0.449975 0.05157,1.009402 0.243222,2.637568 0.08204,0.697591 0.09523,0.78452 0.191002,1.269197 0.07172,0.363108 0.113581,0.594522 0.113581,0.629741 1.32e-4,0.05518 -0.03178,0.08808 -0.0854,0.08808 -0.02903,0 -0.03706,-0.0032 -0.05673,-0.02296 z m 3.168668,-0.278971 c -0.06453,-0.03365 -0.146456,-0.09667 -0.321566,-0.247432 -0.258502,-0.222566 -0.437738,-0.392495 -0.615834,-0.583848 -0.339461,-0.364749 -0.447321,-0.503013 -0.770842,-0.988128 -0.819249,-1.228457 -1.396175,-2.252711 -1.532472,-2.720677 -0.02879,-0.09885 -0.02843,-0.125197 0.0024,-0.155707 0.02051,-0.02052 0.02807,-0.02358 0.05817,-0.02358 0.04905,0 0.0716,0.02239 0.09115,0.09057 0.04534,0.157968 0.109504,0.314814 0.222725,0.544032 0.256212,0.51882 0.630359,1.148672 1.192724,2.007828 0.41489,0.633843 0.615678,0.888254 1.015372,1.286538 0.264128,0.2632 0.609525,0.563707 0.727448,0.632916 0.05913,0.03472 0.07412,0.05439 0.07412,0.0975 0,0.03264 -0.02027,0.06126 -0.05301,0.07494 -0.03214,0.01343 -0.0373,0.01257 -0.09019,-0.01494 z m -4.891398,-0.358779 c -0.03142,-0.01614 -0.04222,-0.03944 -0.04558,-0.09873 -0.0012,-0.03051 -0.0084,-0.108532 -0.01535,-0.173385 -0.01703,-0.165314 -0.01703,-0.542267 1.31e-4,-0.707421 0.0337,-0.324166 0.158223,-1.239448 0.230809,-1.69573 0.0752,-0.473136 0.114661,-0.661803 0.258611,-1.239334 0.04546,-0.182358 0.08959,-0.362629 0.09811,-0.400607 0.01199,-0.05348 0.01967,-0.07331 0.0343,-0.08791 0.0409,-0.04096 0.108784,-0.0287 0.134643,0.02434 0.01619,0.03326 0.01775,0.02553 -0.08252,0.427542 -0.134126,0.537719 -0.173274,0.711313 -0.221261,0.981218 -0.0866,0.486829 -0.255073,1.697438 -0.289147,2.077182 -0.01355,0.151068 -0.01079,0.429467 0.0072,0.606496 0.01763,0.180918 0.01835,0.226513 0.0048,0.253734 -0.01895,0.03659 -0.07472,0.05262 -0.113701,0.03261 z M 9.4782072,19.554546 c -0.0319,-0.02681 -0.03754,-0.05286 -0.02914,-0.134437 0.03478,-0.339447 0.207457,-0.746882 0.5581198,-1.317356 0.08875,-0.144464 0.441624,-0.703917 0.569226,-0.902581 0.212518,-0.330889 0.412467,-0.618454 0.571421,-0.821858 0.280811,-0.359301 0.624697,-0.73535 0.777402,-0.850083 0.03011,-0.02267 0.04174,-0.02726 0.06873,-0.02726 0.0367,0 0.05853,0.01232 0.07376,0.04169 0.02231,0.04309 0.0084,0.08766 -0.03706,0.118139 -0.03802,0.02552 -0.284637,0.273537 -0.385529,0.387696 -0.275534,0.311771 -0.511152,0.618281 -0.744024,0.967878 -0.244038,0.366376 -0.759364,1.185178 -0.894822,1.421776 -0.2325718,0.406256 -0.3713518,0.767431 -0.3877228,1.009116 -0.0024,0.03623 -0.0084,0.07442 -0.01403,0.08484 -0.02087,0.04149 -0.08911,0.05363 -0.126235,0.02243 z m 10.6137888,2.506956 c 0.46246,-0.02705 0.761879,-0.103158 1.144358,-0.290884 0.444757,-0.218294 0.837928,-0.532752 1.166263,-0.932777 0.227475,-0.277143 0.491594,-0.690393 0.672747,-1.052606 0.181577,-0.36306 0.286489,-0.65895 0.453032,-1.277722 0.115716,-0.429949 0.164288,-0.564629 0.327641,-0.908551 0.153395,-0.322961 0.196037,-0.414745 0.338323,-0.728227 0.226943,-0.500006 0.263268,-0.591384 0.307923,-0.774653 0.04281,-0.175677 0.04917,-0.23523 0.04879,-0.456398 -3.81e-4,-0.208552 -0.0058,-0.268194 -0.04165,-0.463065 -0.09693,-0.525594 -0.332722,-1.042783 -0.620482,-1.360972 -0.123137,-0.13616 -0.218476,-0.219346 -0.35522,-0.309938 -0.25113,-0.166376 -0.556972,-0.284191 -0.889456,-0.342632 -0.32518,-0.05716 -0.775169,-0.05162 -1.127018,0.01385 -0.214074,0.03984 -0.343516,0.07636 -0.779734,0.219991 -0.644753,0.212294 -1.185772,0.369435 -1.741321,0.505772 -0.628135,0.154151 -1.065034,0.207608 -1.813634,0.221907 -0.27103,0.0052 -0.49559,-0.0034 -0.736653,-0.02796 -0.09259,-0.0095 -0.19454,-0.01803 -0.226443,-0.01906 l -0.05805,-0.0018 -0.01559,0.07629 c -0.04762,0.233969 -0.145353,0.479045 -0.271696,0.681407 -0.251858,0.403424 -0.626376,0.712642 -1.084408,0.895314 -0.0848,0.03382 -0.230869,0.08099 -0.303431,0.09799 -0.02003,0.0047 -0.03646,0.0114 -0.03646,0.01493 0,0.0084 0.110822,0.16273 0.192548,0.268323 0.197142,0.254598 0.624482,0.710281 0.889389,0.948376 0.263732,0.237032 0.396923,0.336868 1.054195,0.790174 0.561711,0.387393 0.922781,0.669557 1.33509,1.043324 0.158243,0.14345 0.421704,0.409393 0.526199,0.531154 0.429347,0.500293 0.668737,0.981569 0.733062,1.473773 0.05109,0.390982 -0.04861,0.76352 -0.286312,1.069675 -0.04402,0.0567 -0.04602,0.06078 -0.03143,0.06415 0.06108,0.01409 0.343567,0.03042 0.709133,0.04097 0.110595,0.0032 0.38357,-0.0022 0.520163,-0.01008 z M 19.766821,19.93908 c -0.01043,-0.0082 -0.03833,-0.05433 -0.06405,-0.105762 -0.102739,-0.20549 -0.222941,-0.385489 -0.429156,-0.642653 -0.297457,-0.370949 -0.604635,-0.667705 -1.418316,-1.370191 -0.728152,-0.628645 -1.636733,-1.309031 -2.156952,-1.615225 -0.121294,-0.0714 -0.175805,-0.101959 -0.233675,-0.131021 -0.07448,-0.03739 -0.09223,-0.05658 -0.09223,-0.0992 0,-0.0246 0.0048,-0.03506 0.02255,-0.05498 0.03634,-0.0396 0.06285,-0.03916 0.147379,0.0025 0.40334,0.198786 1.225695,0.779246 2.000895,1.412339 0.469254,0.383234 1.141639,0.978478 1.422139,1.25898 0.372543,0.372547 0.681198,0.768135 0.857989,1.099639 0.0883,0.165584 0.09328,0.190649 0.04702,0.23691 -0.01936,0.01936 -0.02827,0.02317 -0.05414,0.02317 -0.02091,0 -0.03695,-0.0047 -0.04938,-0.01449 z m 0.113642,-2.160797 c -0.154157,-0.09458 -0.394892,-0.236311 -0.693546,-0.408321 -0.556119,-0.320297 -1.612702,-0.884474 -2.95453,-1.577608 -0.291905,-0.150791 -0.303755,-0.157567 -0.315749,-0.180768 -0.006,-0.01091 -0.01079,-0.03271 -0.01079,-0.04854 0,-0.02348 0.0048,-0.03312 0.02363,-0.05236 0.02039,-0.02038 0.02819,-0.02357 0.05721,-0.0235 0.02327,7e-5 0.04318,0.0055 0.06489,0.01794 0.01715,0.0098 0.137318,0.07266 0.267007,0.139621 1.489442,0.769082 2.425804,1.271778 3.154369,1.693449 0.250099,0.144748 0.308968,0.179675 0.490245,0.290859 0.167377,0.102655 0.179434,0.111051 0.190626,0.132691 0.02147,0.04153 0.0071,0.09488 -0.03088,0.114517 -0.04278,0.02213 -0.05571,0.01691 -0.242973,-0.09798 z m 0.390116,-1.382849 c -0.0086,-0.0035 -0.122502,-0.03268 -0.253145,-0.06495 -0.225444,-0.05569 -0.507736,-0.133444 -0.736888,-0.202973 -0.914502,-0.277481 -1.865146,-0.591422 -2.621095,-0.865583 -0.439585,-0.159432 -0.424869,-0.152679 -0.441265,-0.202381 -0.01595,-0.04824 0.02471,-0.106481 0.07436,-0.106481 0.01343,0 0.08576,0.0231 0.160729,0.05132 1.017856,0.383155 2.890253,0.98686 3.576352,1.1531 0.10299,0.02496 0.218452,0.0552 0.256579,0.06721 0.06009,0.01893 0.0714,0.02497 0.08497,0.04541 0.0086,0.01297 0.01563,0.03325 0.01561,0.04509 -6.9e-5,0.05731 -0.06376,0.101311 -0.11616,0.08025 z m -1.655841,-1.641253 c -0.732144,-0.01245 -1.303502,-0.04452 -1.832939,-0.102859 -0.261932,-0.02887 -0.526732,-0.07121 -0.563157,-0.09004 -0.04426,-0.02288 -0.05673,-0.08866 -0.02423,-0.127376 0.02627,-0.03127 0.05577,-0.03857 0.104945,-0.02603 0.08911,0.02274 0.397715,0.06504 0.661195,0.09064 0.620558,0.06028 1.142728,0.0818 2.208963,0.091 0.956001,0.0083 1.267335,-0.01321 1.922152,-0.132487 0.310594,-0.05657 0.654619,-0.138478 0.799151,-0.190253 0.04308,-0.01544 0.08462,-0.02805 0.0923,-0.02805 0.02412,0 0.06135,0.02187 0.07187,0.04221 0.02068,0.04 0.0077,0.09864 -0.02573,0.115668 -0.09292,0.04745 -0.489969,0.150312 -0.820716,0.212626 -0.453318,0.08541 -0.745867,0.122542 -1.123551,0.142624 -0.112046,0.006 -1.159634,0.0077 -1.470325,0.0023 z M 6.6579354,21.340556 c 0.3240487,-0.02988 0.5378742,-0.155477 0.7672558,-0.450699 0.053252,-0.06851 0.1552598,-0.220309 0.2051181,-0.305162 0.01907,-0.03242 0.041139,-0.06988 0.049055,-0.08322 0.1664741,-0.281167 0.3746139,-0.71349 0.7679989,-1.595165 0.271372,-0.608193 0.380875,-0.840814 0.507062,-1.077056 0.30198,-0.56535 0.580477,-0.978208 1.2477398,-1.849725 0.240416,-0.314014 0.359371,-0.459306 0.530942,-0.64847 0.119698,-0.13193 0.334303,-0.341536 0.420323,-0.410437 0.123944,-0.09927 0.340168,-0.247247 0.449564,-0.307652 0.02291,-0.01264 0.04234,-0.02342 0.0433,-0.02396 9e-4,-5.41e-4 -0.02063,-0.05071 -0.04786,-0.111482 -0.08444,-0.188653 -0.138756,-0.371941 -0.172903,-0.58309 -0.02087,-0.128851 -0.02591,-0.39243 -0.01079,-0.529588 0.01991,-0.174334 0.06057,-0.346794 0.118619,-0.504025 0.05505,-0.148952 0.164039,-0.353574 0.259786,-0.487762 l 0.03658,-0.05132 -0.02351,-0.01974 C 11.361846,11.929015 10.412968,11.355704 9.4731822,10.892376 8.3283012,10.327933 7.6195148,10.072621 6.7405967,9.908074 6.3048138,9.8264922 5.9685434,9.7928975 5.585833,9.7927176 5.0725461,9.7924789 4.7236823,9.8526627 4.2992934,10.014701 3.9331585,10.154499 3.5425202,10.424381 3.3150697,10.694676 3.1593301,10.879764 3.0863358,10.99381 2.8914844,11.35653 2.6530596,11.800351 2.5955253,11.880091 2.288088,12.192744 c -0.2624724,0.266924 -0.3301774,0.352934 -0.4163649,0.528994 -0.092592,0.189144 -0.1281539,0.359365 -0.1281539,0.61362 0,0.247594 0.035142,0.425154 0.170492,0.859857 0.2107192,0.677068 0.2926129,1.007073 0.4737553,1.909152 0.1258391,0.626649 0.1643152,0.79601 0.2437742,1.07302 0.056971,0.198435 0.1593257,0.497191 0.2643195,0.771126 0.1511219,0.394301 0.3916337,0.878622 0.5559728,1.119544 0.074362,0.109024 0.1494549,0.198208 0.3154491,0.374636 0.2427307,0.257981 0.2719716,0.293382 0.5369987,0.649948 0.2090881,0.281326 0.3317367,0.414915 0.515134,0.561086 0.2745862,0.218862 0.5187921,0.345251 0.9923675,0.513615 0.3579792,0.127264 0.5214907,0.167873 0.706831,0.175538 0.026746,0.0011 0.051693,0.0026 0.055531,0.0034 0.0036,7.46e-4 0.041259,-0.0018 0.083237,-0.0056 z m 0.2213697,-2.815134 c -0.0084,-0.0034 -0.022788,-0.01609 -0.032983,-0.02819 -0.035382,-0.04207 -0.030944,-0.05529 0.089954,-0.269353 C 7.3049057,17.5757 7.633464,17.107596 7.9886366,16.728556 8.1090062,16.600104 8.6407632,16.068652 8.8737312,15.843981 9.4103102,15.3265 10.067607,14.76376 10.48276,14.466427 c 0.192333,-0.137747 0.354249,-0.238669 0.506295,-0.315566 0.121173,-0.06129 0.144609,-0.06471 0.185628,-0.02712 0.02327,0.02135 0.02591,0.02724 0.02591,0.0584 0,0.04728 -0.01535,0.0619 -0.11778,0.112046 -0.3249,0.159181 -0.779873,0.49762 -1.4111548,1.049722 -0.513479,0.449077 -1.357747,1.270521 -1.6584913,1.61365 -0.319515,0.364558 -0.5946649,0.764842 -0.9128605,1.328023 -0.062488,0.110619 -0.1223848,0.209944 -0.1330833,0.220716 -0.020989,0.02116 -0.062368,0.03015 -0.088035,0.01913 z M 6.4498668,16.222584 c -0.044617,-0.01847 -0.064766,-0.08175 -0.0391,-0.122741 0.0072,-0.01232 0.031424,-0.03129 0.054092,-0.04347 0.043777,-0.02339 0.083477,-0.05189 0.3837059,-0.274744 0.445342,-0.33063 0.532441,-0.383189 1.5396815,-0.929093 0.919757,-0.498495 1.602408,-0.844641 1.9635178,-0.995633 0.181442,-0.07586 0.49616,-0.186869 0.52979,-0.186859 0.05229,0 0.09511,0.05535 0.0806,0.10407 -0.0036,0.01376 -0.01451,0.03164 -0.02327,0.03972 -0.0084,0.0083 -0.083,0.03813 -0.168297,0.06778 -0.278161,0.09674 -0.459819,0.17358 -0.7831718,0.331253 -0.466859,0.227653 -0.968428,0.49041 -1.796936,0.941367 -0.684643,0.372648 -0.8523164,0.475157 -1.1858761,0.724984 -0.4441906,0.332694 -0.4988584,0.366521 -0.5548335,0.343367 z m -0.1161,-2.306826 c -0.022069,-0.01199 -0.039939,-0.04297 -0.039939,-0.06924 0,-0.02582 0.01859,-0.06207 0.036701,-0.0715 0.0084,-0.0044 0.1166997,-0.04249 0.2406917,-0.08469 0.6905314,-0.235063 0.7218472,-0.240073 2.1846837,-0.349425 0.666136,-0.0498 0.86389,-0.05912 1.2565068,-0.05921 0.393733,-9.8e-5 0.5888,0.01468 0.826373,0.06258 0.118499,0.02389 0.137329,0.03187 0.152885,0.06466 0.01415,0.02971 0.01427,0.04814 8.28e-4,0.07653 -0.02099,0.04427 -0.06045,0.05425 -0.140076,0.03545 -0.361253,-0.08518 -0.9166618,-0.0935 -1.8468298,-0.02765 -0.288067,0.02039 -0.777487,0.05857 -1.0680723,0.08331 -0.5998582,0.05108 -0.7606952,0.08536 -1.3453093,0.286773 -0.189658,0.06534 -0.2223651,0.07198 -0.2584425,0.0524 z M 11.107901,13.13543 c -0.0096,-0.0036 -0.04186,-0.03046 -0.0728,-0.05964 C 10.648385,12.711718 9.7114412,12.120855 8.9119692,11.736888 8.4344462,11.507538 7.5622564,11.134696 7.1018022,10.963077 6.6348953,10.78905 6.2208931,10.690758 5.8965206,10.676918 c -0.050374,-0.0022 -0.1056654,-0.0049 -0.1228645,-0.0064 -0.054572,-0.0042 -0.2466767,0.0096 -0.34481,0.02478 -0.1140611,0.01761 -0.1439017,0.0151 -0.1701561,-0.01428 -0.026386,-0.02952 -0.026986,-0.07996 -0.0012,-0.110379 0.021469,-0.02558 0.01955,-0.02496 0.1349423,-0.04217 0.1364416,-0.02035 0.2327398,-0.02807 0.350591,-0.02808 0.4193634,0 0.8793858,0.09968 1.4491636,0.314078 0.3879037,0.14596 1.1177263,0.454128 1.5882313,0.670634 0.673333,0.309832 1.4282708,0.747082 1.9681118,1.139897 0.205682,0.149666 0.438266,0.345318 0.459639,0.386665 0.02423,0.04692 0.0048,0.101588 -0.04282,0.121584 -0.02627,0.01091 -0.0343,0.01127 -0.05721,0.002 z m 2.986806,2.403454 c 0.26005,-0.02709 0.493725,-0.09455 0.722831,-0.208646 0.496219,-0.247145 0.842721,-0.672028 0.970359,-1.189877 0.03658,-0.148559 0.04546,-0.227597 0.04534,-0.404472 -1.68e-4,-0.208019 -0.01763,-0.327365 -0.07616,-0.520582 -0.194156,-0.640658 -0.744276,-1.160894 -1.433584,-1.355703 -0.205298,-0.05803 -0.386513,-0.08297 -0.602713,-0.08299 -0.164027,0 -0.245597,0.0067 -0.387388,0.0322 -0.609933,0.109383 -1.116683,0.46869 -1.382658,0.980376 -0.09499,0.182716 -0.151566,0.360465 -0.18215,0.572179 -0.01463,0.101359 -0.01643,0.328175 -0.0036,0.43 0.07148,0.559136 0.387748,1.056759 0.881665,1.387008 0.302244,0.202087 0.661302,0.329108 1.026454,0.363119 0.108424,0.01007 0.311611,0.0089 0.421534,-0.0026 z m -0.02339,-0.262621 c -0.02075,-0.02077 -0.02363,-0.02787 -0.02363,-0.05964 0,-0.03177 0.0024,-0.03887 0.02363,-0.05964 0.01931,-0.01924 0.02891,-0.02358 0.05241,-0.02358 0.05385,0 0.09055,0.03373 0.09055,0.08323 0,0.0495 -0.0367,0.08323 -0.09055,0.08323 -0.02351,0 -0.0331,-0.0043 -0.05241,-0.02358 z m -0.998566,-0.155948 c -0.04462,-0.02723 -0.05001,-0.09865 -0.0096,-0.134303 0.01739,-0.01551 0.02794,-0.01907 0.05661,-0.01907 0.03083,0 0.03826,0.003 0.05889,0.02358 0.01919,0.01924 0.02363,0.02888 0.02363,0.05236 0,0.01583 -0.0048,0.03794 -0.01079,0.04913 -0.02051,0.03957 -0.07748,0.05322 -0.118378,0.0283 z m 1.465763,-0.08754 c -0.05289,-0.02984 -0.05205,-0.117803 0.0012,-0.145473 0.01079,-0.0058 0.03334,-0.01055 0.04905,-0.01055 0.02351,0 0.0331,0.0043 0.05241,0.02358 0.02063,0.02063 0.02363,0.02799 0.02363,0.05884 0,0.02885 -0.0036,0.03923 -0.01943,0.05707 -0.01583,0.01771 -0.02591,0.02231 -0.05373,0.0245 -0.02243,0.0018 -0.04078,-9.88e-4 -0.05325,-0.008 z m -0.474127,-0.214251 c -0.02075,-0.02077 -0.02363,-0.02787 -0.02363,-0.05964 0,-0.03177 0.0024,-0.03887 0.02363,-0.05965 0.01919,-0.01924 0.02891,-0.02358 0.05241,-0.02358 0.05385,0 0.09055,0.03373 0.09055,0.08323 0,0.0495 -0.0367,0.08322 -0.09055,0.08322 -0.02351,0 -0.0331,-0.0043 -0.05241,-0.02358 z m 0.971102,-0.01781 c -0.0084,-0.0032 -0.02315,-0.01613 -0.0337,-0.02872 -0.01667,-0.01985 -0.01883,-0.02732 -0.01607,-0.05637 0.0072,-0.07881 0.09619,-0.106469 0.147164,-0.04591 0.03166,0.03765 0.01907,0.105017 -0.02387,0.127194 -0.02219,0.01151 -0.05097,0.01295 -0.07364,0.0038 z m -1.598774,-0.03686 c -0.03322,-0.0223 -0.04702,-0.06315 -0.03346,-0.09879 0.01355,-0.03573 0.04162,-0.05529 0.07928,-0.05529 0.03766,0 0.06573,0.01957 0.07928,0.05529 0.0084,0.0226 0.0084,0.02984 1.2e-5,0.05451 -0.01199,0.03367 -0.04666,0.06011 -0.07928,0.06011 -0.01223,0 -0.03286,-0.0071 -0.04582,-0.01583 z m -1.084696,-0.06014 c -0.04534,-0.01872 -0.06477,-0.08173 -0.03838,-0.123842 0.01991,-0.03176 0.05733,-0.04673 0.09127,-0.03655 0.07256,0.02175 0.08504,0.122946 0.01919,0.156956 -0.02123,0.01103 -0.05049,0.01239 -0.07208,0.0035 z m 0.515038,-0.246982 c -0.05289,-0.02873 -0.05205,-0.117408 0.0012,-0.145075 0.01079,-0.0058 0.03334,-0.01056 0.04917,-0.01056 0.02351,0 0.0331,0.0043 0.05229,0.02358 0.02075,0.02077 0.02363,0.02787 0.02363,0.05964 0,0.03177 -0.0024,0.03887 -0.02363,0.05965 -0.01979,0.01974 -0.02855,0.02353 -0.05373,0.0233 -0.01655,-1.54e-4 -0.03874,-0.0049 -0.04917,-0.01056 z m 2.473459,-0.04047 c -0.01919,-0.01924 -0.02363,-0.02888 -0.02363,-0.05236 0,-0.05383 0.0337,-0.09051 0.08324,-0.09051 0.05277,0 0.08744,0.04111 0.0812,0.09629 -0.0048,0.04549 -0.03394,0.07016 -0.08204,0.07016 -0.03082,0 -0.03814,-0.003 -0.05889,-0.02358 z M 14.51936,14.29592 c -0.05061,-0.02531 -0.06153,-0.09381 -0.02135,-0.134031 0.05193,-0.05195 0.14612,-0.0136 0.14612,0.05949 0,0.02961 -0.02399,0.06504 -0.05193,0.07671 -0.03094,0.01294 -0.04342,0.01258 -0.07292,-0.0022 z m -0.920357,-0.008 c -0.04246,-0.02667 -0.05493,-0.07577 -0.02963,-0.117263 0.02843,-0.04654 0.09175,-0.05398 0.130385,-0.01534 0.02459,0.02459 0.03142,0.05428 0.02015,0.0879 -0.01643,0.04917 -0.0776,0.07179 -0.120862,0.04469 z m -1.148071,-0.03194 c -0.04174,-0.02352 -0.05349,-0.09028 -0.02243,-0.12725 0.05121,-0.06084 0.139596,-0.0329 0.147224,0.04655 0.0036,0.03128 0.0012,0.03627 -0.02027,0.05986 -0.01895,0.02074 -0.02963,0.0263 -0.05457,0.02864 -0.01991,0.0018 -0.03778,-9.31e-4 -0.04989,-0.0078 z m 1.66907,-0.127674 c -0.02878,-0.01237 -0.05145,-0.04799 -0.05145,-0.08096 0,-0.02538 0.0036,-0.03533 0.02375,-0.05668 0.02159,-0.0235 0.02711,-0.02591 0.05949,-0.02591 0.03238,0 0.0379,0.0024 0.05949,0.02591 0.01967,0.02153 0.02375,0.03122 0.02375,0.05732 0,0.02577 -0.0036,0.03584 -0.02255,0.05601 -0.02411,0.02629 -0.06369,0.03669 -0.09247,0.02431 z m -1.984195,-0.0173 c -0.06033,-0.02713 -0.06489,-0.114781 -0.0084,-0.14955 0.04606,-0.02809 0.103147,-0.0076 0.122793,0.04408 0.02627,0.06887 -0.04702,0.136043 -0.114901,0.105474 z m 3.031434,-0.06942 c -0.06549,-0.0285 -0.07004,-0.122466 -0.0072,-0.152192 0.02974,-0.01409 0.04809,-0.0143 0.07652,-8.23e-4 0.06453,0.03062 0.06009,0.125203 -0.0072,0.15331 -0.02783,0.01163 -0.03478,0.01163 -0.06201,-2.99e-4 z m -2.25438,-0.107477 c -0.03094,-0.01888 -0.04414,-0.04098 -0.04414,-0.074 0,-0.0436 0.04126,-0.08609 0.0836,-0.08609 0.02495,0 0.06213,0.02155 0.0728,0.04221 0.02279,0.04415 0.0072,0.10046 -0.03394,0.119842 -0.03118,0.0148 -0.05157,0.01429 -0.0782,-0.0019 z m 1.670042,-0.02032 c -0.05433,-0.05071 -0.02531,-0.136882 0.04857,-0.144408 0.05937,-0.006 0.106025,0.04751 0.08947,0.102631 -0.01811,0.06035 -0.09379,0.08324 -0.138133,0.04177 z m -1.47621,-0.139421 c -0.02866,-0.01749 -0.03682,-0.03378 -0.03682,-0.0734 0,-0.02755 0.0036,-0.03586 0.02363,-0.05594 0.02039,-0.02037 0.02819,-0.02358 0.05745,-0.02358 0.05325,0 0.08552,0.03284 0.08552,0.08716 0,0.02029 -0.006,0.03087 -0.02699,0.05236 -0.02195,0.02201 -0.03178,0.02693 -0.05373,0.0269 -0.01475,0 -0.03682,-0.0061 -0.04894,-0.01351 z m 0.979199,-0.02083 c -0.04534,-0.01872 -0.06477,-0.08173 -0.03838,-0.123843 0.01991,-0.03176 0.05733,-0.04673 0.09127,-0.03655 0.07256,0.02176 0.08504,0.122946 0.01919,0.156956 -0.02123,0.01103 -0.05049,0.01239 -0.07208,0.0035 z m -1.980909,-0.01079 c -0.01967,-0.01067 -0.04078,-0.04837 -0.04078,-0.0728 0,-0.02472 0.01955,-0.05867 0.04102,-0.07139 0.04738,-0.02797 0.108185,-0.005 0.125468,0.04734 0.01703,0.05157 -0.02411,0.107513 -0.07868,0.106997 -0.01595,-1.54e-4 -0.03706,-0.0047 -0.04713,-0.0102 z m 3.447019,-0.06238 c -0.02711,-0.01472 -0.0409,-0.04063 -0.0409,-0.07676 0,-0.02731 0.0036,-0.03569 0.02363,-0.05572 0.02039,-0.02038 0.02819,-0.02358 0.05745,-0.02358 0.03826,0 0.05973,0.01199 0.07508,0.04169 0.03862,0.07464 -0.04174,0.154346 -0.115261,0.114385 z m -1.98116,-0.01734 c -0.08168,-0.04976 -0.03202,-0.173587 0.06201,-0.154785 0.02735,0.0055 0.05961,0.03896 0.06501,0.06721 0.0096,0.04862 -0.0343,0.101359 -0.08348,0.101359 -0.01199,0 -0.03094,-0.0062 -0.04342,-0.01379 z m -0.892508,-0.111926 c -0.06165,-0.05647 -0.02639,-0.144715 0.05769,-0.144715 0.05277,0 0.09403,0.05656 0.07748,0.106481 -0.01199,0.03568 -0.03622,0.05452 -0.07556,0.0583 -0.03118,0.003 -0.03634,0.0013 -0.05961,-0.02008 z m 1.911369,-0.113737 c -0.01199,-0.0097 -0.02447,-0.02839 -0.02878,-0.04162 -0.01079,-0.03155 6.48e-4,-0.06601 0.02878,-0.0897 0.0391,-0.03294 0.105066,-0.01829 0.127207,0.02826 0.01343,0.02839 0.01331,0.04684 -8.28e-4,0.07653 -0.02171,0.0457 -0.08719,0.05945 -0.126379,0.02652 z m 0.583463,-0.09675 c -0.02699,-0.01175 -0.05037,-0.04757 -0.05037,-0.07712 -6e-5,-0.05313 0.05877,-0.09552 0.110823,-0.0799 0.07256,0.02172 0.0788,0.128812 0.0096,0.157848 -0.02807,0.01175 -0.04126,0.01151 -0.0698,-8.25e-4 z m -3.038631,-0.01421 c -0.02819,-0.02369 -0.03922,-0.05816 -0.02879,-0.08971 0.0048,-0.01323 0.01739,-0.03195 0.02879,-0.04161 0.0391,-0.03293 0.105066,-0.01829 0.127207,0.02826 0.01343,0.02839 0.01331,0.04684 -8.28e-4,0.07653 -0.02171,0.0457 -0.0872,0.05945 -0.126379,0.02652 z m 0.483674,-0.182748 c -0.02147,-0.02149 -0.02687,-0.03206 -0.02687,-0.05236 0,-0.05433 0.03214,-0.08717 0.08552,-0.08717 0.02927,0 0.03706,0.0032 0.05745,0.02358 0.02039,0.02038 0.02363,0.02818 0.02363,0.05741 0,0.05326 -0.03286,0.08547 -0.08719,0.08547 -0.02027,0 -0.03082,-0.0054 -0.05241,-0.02693 z m 1.105362,-0.01955 c -0.02303,-0.0046 -0.05613,-0.04098 -0.06105,-0.06714 -0.0084,-0.04795 0.03418,-0.101323 0.08216,-0.101395 0.04186,-7e-5 0.08803,0.04277 0.08803,0.08169 7.2e-5,0.02489 -0.01811,0.06186 -0.03586,0.07311 -0.01895,0.01201 -0.05133,0.01806 -0.07328,0.01373 z m -0.490211,-0.02384 c -0.03154,-0.02909 -0.03862,-0.0623 -0.02111,-0.09903 0.02351,-0.04952 0.08839,-0.06186 0.1306,-0.02484 0.02867,0.02514 0.03706,0.05842 0.02303,0.09148 -0.01439,0.03413 -0.0349,0.04879 -0.07316,0.05246 -0.03106,0.003 -0.0361,0.0012 -0.05925,-0.02009 z m 1.638018,-0.267858 c -0.02075,-0.01287 -0.03994,-0.04697 -0.03994,-0.07105 0,-0.02525 0.02147,-0.06239 0.04222,-0.07313 0.04893,-0.02531 0.107344,-0.0023 0.124328,0.04908 0.01703,0.05153 -0.02399,0.107441 -0.07868,0.107093 -0.01595,-1.04e-4 -0.03754,-0.0055 -0.04798,-0.01199 z m -2.47834,-0.0393 c -0.06549,-0.0285 -0.07004,-0.122464 -0.0072,-0.152192 0.02975,-0.01409 0.04822,-0.0143 0.07652,-8.22e-4 0.06453,0.03062 0.06009,0.125204 -0.0072,0.15331 -0.02783,0.01163 -0.03478,0.01163 -0.06201,-2.99e-4 z m 1.747042,-0.01056 c -0.02867,-0.01749 -0.03682,-0.03377 -0.03682,-0.0734 0,-0.02755 0.0036,-0.03586 0.02363,-0.05594 0.02003,-0.02003 0.02843,-0.02358 0.05577,-0.02358 0.03682,0 0.06249,0.01408 0.07712,0.0423 0.0397,0.07686 -0.04558,0.155761 -0.119579,0.110631 z m 0.420155,-0.176787 c -0.02687,-0.01519 -0.0409,-0.04122 -0.0409,-0.07593 0,-0.05951 0.05925,-0.100556 0.112861,-0.07816 0.08084,0.03376 0.06333,0.153384 -0.02363,0.161484 -0.01871,0.0018 -0.03718,-0.0011 -0.04846,-0.0074 z m -1.744104,-0.02447 c -0.0084,-0.0032 -0.02315,-0.01613 -0.0337,-0.02872 -0.01667,-0.01981 -0.01883,-0.02735 -0.01607,-0.05621 0.0072,-0.07712 0.09367,-0.106781 0.14389,-0.04952 0.03646,0.04153 0.02471,0.107068 -0.02327,0.129835 -0.02591,0.01231 -0.04833,0.01377 -0.07088,0.0046 z m 0.655966,-0.206225 c -0.02111,-0.0077 -0.04846,-0.03982 -0.05265,-0.06177 -0.0096,-0.05358 0.02699,-0.0998 0.08,-0.0998 0.03838,0 0.06537,0.01504 0.07916,0.04409 0.01391,0.02931 0.01415,0.03988 0.0012,0.07042 -0.01631,0.03903 -0.06801,0.06159 -0.107944,0.04706 z m 0.580932,-0.0129 c -0.05289,-0.02872 -0.05205,-0.117408 0.0012,-0.145076 0.06153,-0.03182 0.125059,0.0088 0.125059,0.07999 0,0.02348 -0.0048,0.03313 -0.02363,0.05236 -0.01979,0.01974 -0.02855,0.02353 -0.05373,0.0233 -0.01655,-1.53e-4 -0.03874,-0.0049 -0.04917,-0.01056 z m 3.549162,1.398253 c 0.538068,-0.03518 0.829193,-0.07987 1.33309,-0.204628 0.579089,-0.143376 1.064503,-0.285158 1.746272,-0.510062 0.321477,-0.106049 0.365383,-0.119566 0.504845,-0.15541 0.200819,-0.05162 0.401739,-0.08583 0.615239,-0.104766 0.117611,-0.01043 0.482095,-0.01493 0.568711,-0.0071 0.02098,0.0019 0.07716,0.0068 0.124839,0.01103 0.0938,0.0082 0.270894,0.03574 0.333904,0.05193 0.06763,0.01738 0.06574,0.01829 0.1555,-0.07482 0.22093,-0.229154 0.460734,-0.559205 0.807576,-1.111503 0.359498,-0.572449 0.513066,-0.857561 0.657475,-1.220648 0.08354,-0.210049 0.185221,-0.5673098 0.226012,-0.7941151 0.07575,-0.4212165 0.0427,-0.7444455 -0.111027,-1.0856916 C 24.461468,8.3257879 24.18255,7.870133 23.717849,7.1714349 23.397123,6.6892122 23.30461,6.5452285 23.169734,6.3183682 22.684328,5.5019315 22.649592,5.4449154 22.538037,5.2815105 22.260321,4.8747094 22.038486,4.643109 21.680267,4.3859774 21.095963,3.9665624 20.628604,3.7569958 19.849294,3.5649606 c -0.658571,-0.1622834 -1.081296,-0.231965 -1.6021,-0.2640868 -0.165941,-0.010195 -0.506735,-0.00468 -0.634598,0.010435 -0.450298,0.053073 -0.679639,0.134658 -0.915497,0.3257098 -0.07808,0.063267 -0.09979,0.084244 -0.169376,0.1637574 -0.262869,0.3004197 -0.416725,0.6137555 -0.509365,1.0373203 -0.08156,0.3730926 -0.108304,0.9460343 -0.07724,1.6605894 0.03598,0.829465 -0.05337,1.5955321 -0.302147,2.588876 -0.120634,0.4817357 -0.202696,0.7553324 -0.391538,1.3054073 -0.06021,0.175469 -0.133467,0.389255 -0.162732,0.475082 -0.157383,0.461485 -0.18937,0.548555 -0.269213,0.732721 l -0.02447,0.05651 0.07748,0.03854 c 0.402153,0.2001 0.750753,0.514274 0.982881,0.885824 0.05877,0.09404 0.162276,0.302236 0.19629,0.394794 0.07892,0.214664 0.124928,0.429091 0.133947,0.624195 0.006,0.122674 0.006,0.12484 0.05097,0.12484 0.01931,0 0.112262,0.0079 0.206509,0.01762 0.09427,0.0097 0.208848,0.02039 0.254617,0.02377 0.105665,0.0078 0.761701,0.0031 0.908559,-0.0065 z m -0.973445,-0.572657 c -0.04282,-0.03603 -0.04318,-0.09499 -8.15e-4,-0.130634 0.01751,-0.01475 0.02951,-0.01745 0.09487,-0.02146 0.681704,-0.04173 1.331359,-0.158419 2.146349,-0.385533 0.413145,-0.115128 1.731414,-0.513228 2.093259,-0.632128 0.638444,-0.209795 1.012962,-0.376282 1.366079,-0.607278 0.192471,-0.125906 0.37473,-0.279699 0.37473,-0.316202 0,-0.02552 0.02865,-0.06192 0.05733,-0.07285 0.02305,-0.0088 0.02935,-0.0085 0.05726,0.0022 0.03976,0.01518 0.05475,0.04136 0.05437,0.09491 -3.82e-4,0.05143 -0.02093,0.08626 -0.09088,0.15396 -0.202623,0.196129 -0.514068,0.397934 -0.873924,0.566271 -0.419976,0.196462 -0.843242,0.338496 -2.335537,0.78373 -1.108481,0.330722 -1.606721,0.446809 -2.274844,0.530026 -0.247733,0.03086 -0.49315,0.05259 -0.594186,0.05262 -0.0469,0 -0.05577,-0.002 -0.07412,-0.01755 z m -0.437929,-0.826842 c -0.03118,-0.01559 -0.05169,-0.05544 -0.04558,-0.08844 0.006,-0.03171 0.03958,-0.06425 0.07184,-0.06958 0.05313,-0.0088 0.202204,-0.05151 0.287264,-0.08236 0.223696,-0.08113 0.602432,-0.25753 0.972992,-0.453202 0.357413,-0.188728 0.618018,-0.344246 1.46686,-0.875352 0.791551,-0.495263 1.005076,-0.634726 1.231051,-0.8040554 0.323284,-0.2422473 0.679712,-0.5754424 0.804064,-0.7516521 0.01825,-0.025867 0.04205,-0.051615 0.05289,-0.057218 0.05735,-0.029662 0.124421,0.010902 0.124421,0.075262 0,0.085411 -0.329298,0.4283782 -0.706668,0.7360026 -0.26369,0.2149539 -0.487381,0.3654489 -1.294224,0.8707309 -1.148581,0.719293 -1.401667,0.866554 -1.955811,1.138014 -0.417273,0.204413 -0.681952,0.311465 -0.882657,0.356992 -0.08899,0.0202 -0.09523,0.02044 -0.12645,0.0049 z m -0.373859,-0.366354 c -0.01199,-0.0098 -0.02471,-0.02947 -0.0289,-0.04368 -0.01331,-0.04453 0.0012,-0.06629 0.09859,-0.143538 0.233471,-0.185885 0.824142,-0.705657 1.184967,-1.042743 0.218477,-0.204105 1.44674,-1.3806541 1.623301,-1.554956 0.203399,-0.2007944 0.46049,-0.4735108 0.633421,-0.6719182 0.163434,-0.1875103 0.245824,-0.2763956 0.277526,-0.2994027 0.05002,-0.036299 0.118679,-0.019901 0.135963,0.03247 0.01434,0.043467 0.0052,0.06257 -0.06448,0.1345591 -0.03539,0.036568 -0.129765,0.14139 -0.209722,0.2329386 -0.07996,0.091549 -0.190506,0.214827 -0.245665,0.2739523 -0.152892,0.163885 -0.627243,0.6363746 -0.895003,0.8914936 -0.131601,0.1253869 -0.279848,0.2673413 -0.329436,0.3154523 -0.04958,0.04811 -0.163505,0.157389 -0.253147,0.242838 -0.08964,0.08544 -0.194194,0.185227 -0.232339,0.221731 -0.09066,0.08676 -0.260481,0.247146 -0.367701,0.347268 -0.366392,0.34213 -1.04325,0.932797 -1.202228,1.049111 -0.05409,0.03953 -0.09031,0.04372 -0.125143,0.01443 z m -0.420851,-0.179266 c -0.05445,-0.02372 -0.06752,-0.08269 -0.03022,-0.136478 0.165442,-0.238663 0.291437,-0.454548 0.456964,-0.78302 0.392665,-0.779184 0.742584,-1.6672065 1.287366,-3.2671544 0.179422,-0.5269379 0.253302,-0.7842845 0.307466,-1.0710023 0.05552,-0.2939184 0.06973,-0.4885491 0.05542,-0.7594376 -0.01358,-0.2572 -0.0132,-0.2724429 0.0073,-0.294316 0.0094,-0.00995 0.02851,-0.021481 0.04267,-0.025727 0.02165,-0.00648 0.02992,-0.00564 0.05198,0.00528 0.058,0.028809 0.06221,0.052461 0.0696,0.3910172 0.0061,0.2823582 -0.0078,0.4509826 -0.05957,0.7178239 -0.06213,0.3203986 -0.132951,0.5637577 -0.342139,1.1755674 -0.294832,0.8622999 -0.478073,1.3667099 -0.701673,1.9315374 -0.199254,0.5033344 -0.33711,0.8141484 -0.549089,1.2379864 -0.158426,0.316733 -0.273375,0.520907 -0.408125,0.724918 -0.0782,0.118319 -0.09691,0.14117 -0.126127,0.153365 -0.02759,0.01151 -0.03454,0.01151 -0.06177,-3.91e-4 z M 12.223709,11.9249 c 0.54302,-0.427103 1.28678,-0.594313 2.000891,-0.449835 0.06489,0.01312 0.144333,0.03156 0.176645,0.04096 0.03226,0.0094 0.05949,0.01641 0.06033,0.01554 8.63e-4,-8.6e-4 0.02171,-0.04829 0.04618,-0.105402 0.06141,-0.142732 0.101467,-0.251694 0.209112,-0.567536 0.05085,-0.149307 0.133827,-0.391624 0.184368,-0.538483 0.231001,-0.6712361 0.365872,-1.143203 0.494529,-1.7304075 0.15165,-0.6922421 0.219691,-1.3522582 0.198378,-1.9246014 -0.01223,-0.330349 -0.01643,-0.9791854 -0.0072,-1.1584604 0.01199,-0.2363476 0.03418,-0.449709 0.06717,-0.6451409 0.0036,-0.02346 0.0024,-0.025247 -0.02363,-0.037193 C 15.584662,4.8036638 15.563912,4.7749138 15.484769,4.622557 15.267365,4.2037615 14.958225,3.7391898 14.679489,3.4123838 14.434539,3.1252101 13.943777,2.6953629 13.614427,2.4795451 13.354617,2.3092846 13.072775,2.1708737 12.817067,2.0879485 12.539134,1.9978151 12.296464,1.9574703 11.993548,1.9510188 11.63347,1.9433428 11.534869,1.960494 10.628701,2.1889268 9.2890642,2.5265632 8.9718882,2.6214234 8.4836922,2.8304683 8.0631422,3.0105421 7.8164171,3.1495359 7.5111868,3.3783118 7.3710991,3.4833056 7.0955054,3.7189095 6.5020759,4.2409807 6.1903089,4.5152574 6.0944904,4.5959949 5.8228427,4.8133431 5.6255805,4.9711684 5.5557526,5.0326846 5.4478803,5.1436825 5.2922247,5.3038286 5.1577861,5.4822317 5.0718265,5.6426692 4.9331781,5.9014512 4.7953333,6.3019628 4.7461707,6.5888426 c -0.011994,0.06952 -0.011994,0.3267641 1.679e-4,0.3953235 0.028905,0.1656628 0.085156,0.3420034 0.1514338,0.4750818 0.1502704,0.3016208 0.4516747,0.6094626 0.9939747,1.0152034 0.2969906,0.2222092 0.4708408,0.3765629 0.7107289,0.6310417 0.2074329,0.2200517 0.2656748,0.2885493 0.3403483,0.4003424 l 0.065246,0.097713 0.091992,0.01913 c 0.2549043,0.053001 0.6256329,0.1566967 0.9035054,0.2527071 0.7288515,0.2518245 1.7897635,0.7514925 2.6597343,1.2526825 0.610929,0.351952 0.977963,0.592775 1.334899,0.875893 l 0.0692,0.05486 0.05565,-0.04925 c 0.03058,-0.02708 0.07592,-0.0652 0.100748,-0.0847 z m -0.268733,-0.05926 c -0.0084,-0.0043 -0.0355,-0.03473 -0.05985,-0.06754 -0.118858,-0.160078 -0.45947,-0.537716 -0.829383,-0.919638 C 10.550225,10.346232 10.158052,9.965883 9.4424292,9.3041025 8.6102152,8.5345059 8.3957542,8.3425529 7.9965521,8.0099242 7.5664302,7.6515328 7.2425855,7.4041976 6.9281199,7.1939361 6.7545815,7.0778973 6.7446986,7.0686144 6.7446986,7.0216486 c 0,-0.047978 0.03802,-0.086023 0.085876,-0.086023 0.026386,0 0.3539013,0.2210767 0.5877085,0.3967633 0.5510435,0.4140654 1.0979491,0.8798973 1.8301221,1.5588016 0.0439,0.040676 0.145294,0.1345446 0.2254,0.208597 0.6468138,0.5979418 0.8696108,0.8100066 1.2490948,1.1889355 0.643204,0.642264 1.134147,1.170167 1.314689,1.413657 0.03646,0.04913 0.04054,0.05804 0.04054,0.08859 0,0.04867 -0.02555,0.0766 -0.07328,0.08007 -0.01883,0.0013 -0.04126,-0.0011 -0.04989,-0.0054 z m 0.478685,-0.584391 c -0.01079,-0.0092 -0.04462,-0.06153 -0.07472,-0.116172 C 12.007761,10.527397 11.60339,9.8487946 11.229351,9.2694221 10.741263,8.5133575 10.11575,7.6315883 9.7582982,7.1957074 9.3510842,6.6991402 8.9978432,6.3386356 8.6895782,6.1050029 c -0.04606,-0.03489 -0.08743,-0.071531 -0.09187,-0.081414 -0.02255,-0.049403 0.0024,-0.1070087 0.05133,-0.1206265 0.03466,-0.0096 0.05709,-5.925e-4 0.122157,0.048587 0.305794,0.231309 0.616566,0.5389531 0.989417,0.9794595 0.2947598,0.348255 0.5887038,0.7423655 1.0845758,1.4541357 0.132867,0.190718 0.459339,0.6832911 0.641261,0.9675024 0.255924,0.3998447 0.704036,1.153423 0.927949,1.560488 0.03358,0.06104 0.0824,0.14879 0.108544,0.195019 0.05001,0.08845 0.05601,0.111866 0.03742,0.147603 -0.02291,0.04427 -0.08875,0.0575 -0.126774,0.02549 z m 1.234882,-0.173628 c -0.02507,-0.01091 -0.04174,-0.03308 -0.04786,-0.06346 -0.0036,-0.01562 0.0036,-0.03954 0.0277,-0.09548 0.243535,-0.570191 0.447393,-1.6121725 0.558528,-2.8548186 0.03706,-0.4137866 0.08348,-1.1851475 0.09415,-1.5604877 0.01751,-0.6193686 -0.103146,-1.369604 -0.305878,-1.90234 -0.01751,-0.04608 0.006,-0.095891 0.05229,-0.1096954 0.077,-0.023052 0.107465,0.021373 0.183937,0.267715 0.11682,0.3761473 0.206726,0.8818601 0.233148,1.3108462 0.0096,0.1612315 0.0048,0.6063194 -0.01079,0.8738737 -0.0397,0.7004336 -0.06045,0.9842044 -0.101468,1.3905678 -0.08348,0.8246137 -0.21259,1.5752744 -0.3646,2.118795 -0.05229,0.187154 -0.141839,0.445111 -0.192332,0.554408 -0.03394,0.07355 -0.07136,0.09421 -0.126919,0.07007 z m -0.622598,-0.137259 c -0.02063,-0.02071 -0.02351,-0.029 -0.03442,-0.102295 -0.06249,-0.417894 -0.136276,-0.752311 -0.25625,-1.1617024 C 12.605568,9.1954329 12.289843,8.2710305 11.853976,7.0674063 11.585999,6.3273884 11.457809,6.0414777 11.220343,5.6541425 11.041732,5.3628285 10.999741,5.2922318 10.928558,5.1636102 10.88634,5.0873176 10.840404,5.0061747 10.826371,4.9832881 c -0.03274,-0.053528 -0.03106,-0.085468 0.006,-0.1196382 0.02854,-0.026171 0.06824,-0.030452 0.101227,-0.010914 0.02015,0.011874 0.06441,0.082229 0.145629,0.2311338 0.05721,0.1049098 0.106505,0.1880653 0.240548,0.4057265 0.339389,0.5509942 0.424473,0.751695 0.967276,2.2817805 0.597064,1.6829887 0.784911,2.3235593 0.883824,3.0138143 0.01715,0.120075 0.01835,0.138216 0.0096,0.158603 -0.01247,0.03002 -0.04438,0.04907 -0.0824,0.0491 -0.02483,0 -0.03418,-0.004 -0.05265,-0.02251 z" fill="#000000" stroke-width="0.0069355"/></g><text x="0" y="41.458332999999996" fill="#000000" font-size="5px" font-weight="bold" font-family="'Helvetica Neue', Helvetica, Arial-Unicode, Arial, Sans-serif">Created by SheQueen</text><text x="0" y="46.458332999999996" fill="#000000" font-size="5px" font-weight="bold" font-family="'Helvetica Neue', Helvetica, Arial-Unicode, Arial, Sans-serif">from the Noun Project</text></svg>