<svg xmlns="http://www.w3.org/2000/svg" xmlns:xlink="http://www.w3.org/1999/xlink" xml:space="preserve" version="1.1" style="shape-rendering:geometricPrecision;text-rendering:geometricPrecision;image-rendering:optimizeQuality;" viewBox="0 0 267.04 655.8375" x="0px" y="0px" fill-rule="evenodd" clip-rule="evenodd"><defs><style type="text/css">
   
    .fil0 {fill:black}
   
  </style></defs><g><path class="fil0" d="M149.6 0.29c-1.62,0.63 -3.43,4.57 -5.68,12.21 -1.84,6.21 -2.73,11.61 -2.92,17.86l-0.19 5.52 -1.31 -1.52c-3.57,-4.25 -7.35,-8.15 -8.56,-8.85 -0.75,-0.45 -1.77,-0.8 -2.32,-0.8 -1.1,0 -2.44,0.96 -3.1,2.19 -0.83,1.62 -1.25,7.52 -1.27,17.8 0,9.14 0.06,10.31 0.73,13.8 0.4,2.07 1.08,4.83 1.49,6.1 0.92,2.72 3.67,8.34 4.85,9.89 0.46,0.6 0.7,1.15 0.51,1.21 -0.79,0.26 -7.1,4.41 -9.71,6.38 -8.97,6.76 -15.99,13.96 -21.1,21.7 -6.91,10.5 -13.1,30.02 -15.39,48.48 -0.54,4.47 -0.54,23.44 0,29.35 0.23,2.44 0.92,8.85 1.5,14.27 0.6,5.39 1.24,11.56 1.42,13.65 0.19,2.1 0.57,5.77 0.83,8.18 0.26,2.44 0.44,4.45 0.38,4.51 -0.16,0.15 -4.67,-5.62 -7.46,-9.61 -6.06,-8.6 -11.11,-18.19 -17.55,-33.23 -8.21,-19.13 -12.18,-25.73 -18.49,-30.77 -3.14,-2.51 -6.79,-4.39 -10.37,-5.27 -3.53,-0.89 -9.43,-0.72 -12.85,0.36 -12.86,4.08 -20.88,16.4 -22.69,34.87 -2.18,22.17 6.07,43.48 24.94,64.46 10.27,11.46 24.56,21.96 35.85,26.43 11.58,4.56 26.05,5.15 40.17,1.59 1.68,-0.41 3.2,-0.77 3.36,-0.77 0.16,0 0.38,0.77 0.51,1.66 0.22,1.55 1.81,8.97 2.28,10.69 0.2,0.66 0.06,0.63 -1.64,-0.54 -3.59,-2.44 -7.14,-3.56 -11.4,-3.56 -3.39,0 -5.93,0.64 -9.07,2.26 -7.83,4.06 -13.13,12.59 -15.04,24.14 -0.16,1.05 -0.32,1.21 -1.04,1.21 -0.48,0 -1.68,0.35 -2.7,0.76 -5.49,2.28 -11.36,7.62 -13.93,12.69 -1.05,2.06 -2.79,6.95 -2.79,7.8 0,0.3 -0.86,1.25 -1.94,2.09 -2.26,1.82 -3.77,3.78 -5.01,6.54 -0.51,1.11 -1.78,3.46 -2.85,5.24 -8.07,13.58 -13.17,30.3 -15.43,50.54 -2.28,20.37 0.63,44.01 7.65,62.51 7.2,18.88 24.4,45.24 36.43,55.8 9.13,8 17.38,10.73 37.93,12.54 23.99,2.13 45.41,2.6 58.71,1.29 6.78,-0.62 15.73,-2.11 21.38,-3.54 10.02,-2.48 15.55,-5.56 24.11,-13.3 7.59,-6.83 13.26,-14.87 19.83,-28.08 5.94,-11.83 11.11,-26.49 15.27,-43.11 3.1,-12.31 4.15,-19.6 4.34,-30.47 0.35,-17.89 -1.87,-27.26 -16.24,-68.84 -1.75,-4.98 -2.19,-6.76 -2.42,-9.08 -0.51,-5.78 -2.5,-9.71 -7.39,-14.59 -4.63,-4.6 -8.47,-6.95 -15.16,-9.2 -4.48,-1.49 -11.81,-2.98 -15.7,-3.21 -1.82,-0.09 -3.27,-0.22 -3.27,-0.25 0,-0.03 1.2,-2.6 2.69,-5.68 3.36,-6.95 4.56,-9.83 8.05,-19.23 3.6,-9.52 4.83,-13.29 6.32,-19.19l1.24 -4.76 3.78 -0.23c4.15,-0.22 6.15,-0.66 10.44,-2.38 12.65,-5.01 27.22,-17.35 35.72,-30.29 3.72,-5.61 6.47,-12.37 7.93,-19.3 0.96,-4.53 1.05,-13.48 0.18,-17.28 -1.64,-7.04 -4.78,-11.8 -9.35,-14.03 -2.32,-1.14 -6.35,-1.4 -9.1,-0.57 -3.97,1.14 -7.75,3.59 -11.65,7.57 -5.58,5.69 -8.88,11.53 -17.03,30.31 -2.96,6.8 -4.51,10.09 -4,8.43 5.9,-18.74 7.62,-28.48 7.99,-45.67 0.42,-18.98 -1.74,-33.79 -6.95,-48.07 -3.04,-8.38 -9.32,-19.42 -15.67,-27.6 -5.49,-7.08 -14.34,-15.21 -20.27,-18.63 -1.15,-0.66 -2.06,-1.27 -2.06,-1.4 0,-0.09 0.66,-1.17 1.45,-2.38 5.36,-7.99 8.61,-19.64 9.24,-33.15 0.22,-5.21 -0.13,-7.2 -1.56,-8.38 -1.49,-1.26 -3.23,-1.11 -5.71,0.57 -2.6,1.72 -7.42,5.62 -10.31,8.28l-2.25 2.1 -0.2 -2.76c-0.34,-4.6 -1.07,-8.48 -2.08,-11.11 -2.04,-5.1 -9.37,-19.04 -11.98,-22.75 -1.64,-2.35 -3.5,-3.17 -5.35,-2.4l0 0zm49.79 481.67c-0.39,0.43 -1.26,1.66 -1.91,2.81 -0.7,1.14 -1.94,3.07 -2.76,4.33 -2.61,4.01 -3.91,7.34 -3.12,7.84 0.93,0.57 5.5,-3.51 8,-7.14 1.88,-2.71 2.96,-6.43 2.35,-8.02 -0.28,-0.76 -1.81,-0.63 -2.56,0.18zm22.52 -98.47c-0.86,0.54 -0.95,1.87 -0.48,6.73 0.25,2.86 0.48,8.56 0.48,13.64 0.03,17.25 -1.81,31.09 -5.71,43.32 -1.88,5.79 -2,6.11 -6.96,16.33 -4.06,8.47 -5.51,11.99 -5.51,13.54 0,0.39 0.15,0.74 0.34,0.74 1.52,0 9.49,-11.2 12.92,-18.15 4.59,-9.43 8.32,-22.03 9.71,-33.25 1.27,-10.07 1.42,-22.25 0.34,-29.51 -1,-6.85 -2.75,-12.69 -3.99,-13.33 -0.67,-0.38 -0.67,-0.38 -1.14,-0.06l0 0zm-131.71 -87.76c-0.53,0.7 -1.04,3.81 -1.24,7.61l-0.18 3.75 -0.99 -0.6c-2.82,-1.72 -3.23,-0.86 -0.69,1.46 1.61,1.49 1.7,1.65 2.09,3.93 0.31,1.94 1.42,5.93 2.13,7.8 0.09,0.23 -0.45,0.08 -1.31,-0.41 -0.8,-0.44 -1.68,-0.76 -2,-0.69 -0.44,0.06 -0.34,0.31 0.58,1.33 0.6,0.69 1.93,1.93 2.95,2.79 1.23,1.04 2.47,2.51 3.59,4.31 0.95,1.53 2.24,3.4 2.88,4.19 2.22,2.7 2.26,2.47 -0.1,2.32 -1.33,-0.12 -2.06,-0.07 -2.06,0.15 0,0.35 3.68,1.97 6.03,2.63 0.79,0.23 2.07,0.93 2.83,1.53 0.75,0.65 2.81,1.87 4.59,2.83 2.55,1.33 2.98,1.65 2.09,1.56 -1.42,-0.2 -3.83,0.15 -3.83,0.53 0,0.44 2.06,0.98 5.46,1.47 3.8,0.5 4.85,0.37 4.98,-0.58 0.06,-0.41 -0.09,-0.79 -0.38,-0.89 -0.29,-0.1 -0.5,-0.41 -0.5,-0.63 0,-0.26 -0.49,-1.43 -1.09,-2.6 -1.7,-3.42 -2.87,-3.97 -1.97,-0.99 0.27,0.93 0.45,1.72 0.41,1.74 -0.02,0.04 -1.87,-1.14 -4.08,-2.58 -3.25,-2.11 -4.09,-2.84 -4.23,-3.54 -0.38,-1.65 -1.42,-5 -1.71,-5.48 -0.53,-0.79 -0.82,-0.03 -0.76,1.99l0.09 1.97 -1.9 -1.97c-1.04,-1.1 -2.57,-2.97 -3.42,-4.18l-1.56 -2.23 -0.19 -4.62c-0.13,-2.55 -0.32,-4.8 -0.45,-5.02 -0.38,-0.61 -0.66,0.96 -0.7,3.81 -0.02,1.45 -0.15,2.63 -0.32,2.63 -0.34,0 -1.99,-3.75 -2.85,-6.47 -0.69,-2.32 -0.85,-3.68 -0.37,-3.68 0.44,0 1.2,-2.61 1.77,-5.84 0.79,-4.57 -0.19,-4.22 -1.93,0.74l-0.7 2.01 -0.25 -1.2c-0.13,-0.7 -0.13,-3.48 0,-6.25 0.18,-4.76 0.06,-5.55 -0.71,-4.63l0 0zm164.32 -105.68c-0.82,2.13 -1.65,4.12 -2.51,5.96l-0.91 2.04 -0.45 -0.9c-1.02,-2.06 -1.65,-0.82 -0.89,1.85 0.32,1.14 0.23,1.39 -2.29,6.24l-2.6 5.08 -0.72 -1.58c-1.15,-2.48 -1.53,-2.1 -1.34,1.45l0.16 3.04 -1.52 2.29c-1.97,2.86 -5.62,7.49 -5.93,7.49 -0.13,0 -0.42,-0.6 -0.6,-1.37 -0.23,-0.72 -0.57,-1.61 -0.86,-1.97 -0.45,-0.59 -0.49,-0.59 -0.82,0.32 -0.27,0.61 -0.32,1.85 -0.2,3.43l0.23 2.51 -1.25 1.46c-1.64,2 -2.91,3.93 -2.91,4.45 0,0.63 0.96,0 3.61,-2.45 2.03,-1.9 2.58,-2.22 3.91,-2.41 2.31,-0.32 3.9,-0.79 3.9,-1.15 0,-0.38 -1.4,-0.92 -2.48,-0.92l-0.82 0 1.11 -1.2c1.27,-1.34 3.34,-4.04 5.26,-6.89 1.22,-1.77 1.44,-1.92 3.31,-2.48 5.96,-1.7 6.16,-3.08 0.25,-1.9 -0.86,0.17 -0.82,0.09 1.81,-5.16 2.56,-5.11 2.79,-5.43 4.63,-6.83 2.13,-1.58 2.83,-2.5 2,-2.5 -0.28,0 -0.94,0.22 -1.46,0.51 -0.54,0.25 -1.05,0.43 -1.11,0.34 -0.06,-0.06 0.29,-1.23 0.79,-2.63 1.31,-3.55 1.81,-6.09 1.36,-6.53 -0.25,-0.26 -0.43,-0.16 -0.66,0.41l0 0zm-13.73 -0.89c-0.49,1.78 -1.09,3.81 -1.37,4.5l-0.53 1.24 -0.42 -1.2c-1.05,-2.99 -1.58,-2.04 -1.34,2.28l0.2 3.05 -1.94 4.06 -1.93 4.06 -0.68 -1.15c-1.36,-2.4 -1.92,-1.23 -0.97,1.94l0.44 1.55 -1.77 3.18c-2.9,5.21 -7.84,12.5 -8.13,12.03 -0.06,-0.13 -0.26,-0.7 -0.35,-1.22 -0.29,-1.3 -1.4,-3.07 -1.77,-2.85 -0.42,0.26 -0.38,4.03 0,5.81 0.31,1.27 0.25,1.46 -0.9,3.17 -1.68,2.44 -3.23,5.27 -3.23,5.77 0,0.58 2.07,-1.42 4.29,-4.12 1.64,-2 1.77,-2.1 4.34,-2.82 3.46,-1.02 5.2,-1.88 4.73,-2.35 -0.25,-0.26 -0.98,-0.26 -2.63,0 -1.28,0.15 -2.36,0.29 -2.38,0.29 -0.04,-0.04 0.95,-1.4 2.15,-3.06 2.31,-3.1 4.67,-6.84 6.32,-10.15 0.75,-1.48 1.14,-1.91 2.03,-2.22 1.59,-0.5 3.84,-2.18 3.42,-2.59 -0.19,-0.2 -0.74,-0.2 -1.53,0.02 -1.77,0.5 -1.77,0.49 -1.07,-0.91 0.35,-0.7 1.3,-2.86 2.09,-4.83 1.12,-2.73 1.84,-4 3.03,-5.27 0.85,-0.95 1.55,-1.83 1.55,-1.99 0,-0.38 -0.55,-0.35 -1.31,0.02 -0.32,0.2 -0.6,0.3 -0.6,0.27 0,-0.07 0.36,-1.69 0.79,-3.6 0.76,-3.42 1.02,-6.18 0.57,-6.18 -0.15,0 -0.62,1.46 -1.1,3.27l0 0zm-225.85 -14.16c0,0.74 1.37,4.96 2.42,7.53 0.19,0.5 0.12,0.57 -0.38,0.38 -2.04,-0.86 -3.81,-1.4 -4.03,-1.24 -0.48,0.29 1.29,1.87 3.55,3.14 1.71,0.99 2.25,1.46 2.57,2.35 1.27,3.49 4.82,11.61 6.98,15.93l2.51 4.98 -1.17 -0.45c-1.72,-0.66 -3.84,-1.07 -4.04,-0.79 -0.25,0.42 2.28,2.34 5.02,3.81l2.48 1.32 3.1 4.67c5.2,7.78 10.89,15.14 15.55,20.12 1.08,1.11 1.93,2.12 1.93,2.25 0,0.1 -0.63,0.19 -1.39,0.19 -1.55,0 -2.42,0.23 -2.42,0.67 0,0.48 2.32,1.46 4.89,2.07 2.23,0.5 2.7,0.75 4.45,2.34 2.22,2 4.88,4.06 7.74,5.99 2.69,1.85 11.95,7.4 14.4,8.67l1.99 1.04 -3 0.2c-3.44,0.18 -4.76,0.5 -4.76,1.04 0,0.7 2.25,1.18 6.27,1.36 3.31,0.16 3.97,0.14 4.45,-0.32 0.35,-0.31 0.86,-0.44 1.27,-0.31 1.04,0.25 0.85,-0.29 -0.41,-1.14 -0.93,-0.63 -1.21,-1.14 -1.94,-3.49 -0.99,-3.29 -2,-5.75 -2.38,-5.75 -0.41,0 -0.35,0.77 0.29,3.85l0.57 2.72 -6.82 -4.62c-7.08,-4.76 -11.84,-8.22 -14.31,-10.41l-1.43 -1.27 -0.03 -5.21c0,-4.98 -0.2,-6.32 -0.79,-6.32 -0.42,0 -0.99,2.43 -1.37,5.85l-0.35 3.11 -2.7 -2.79c-5.07,-5.27 -11.51,-13.43 -16.62,-20.97l-2.19 -3.25 0.4 -1.51c0.52,-2.04 0.84,-8.04 0.42,-8.04 -0.37,0 -1.54,3.47 -1.87,5.39 -0.13,0.7 -0.32,1.27 -0.47,1.27 -0.67,0 -5.71,-9.57 -9.17,-17.41l-2.61 -5.84 0.52 -1.14c1.17,-2.67 2.18,-8.28 1.49,-8.28 -0.32,0 -1.65,2.96 -2.45,5.36l-0.54 1.72 -0.73 -1.59c-2.53,-5.81 -3.74,-8.03 -4.31,-8.03 -0.42,0 -0.58,0.22 -0.58,0.85l0 0zm23.48 -5.86c0,1.65 1.15,6.16 2.7,10.69 0.61,1.84 1.11,3.42 1.11,3.55 0,0.16 -0.6,-0.03 -1.34,-0.35 -1.74,-0.76 -3.74,-1.14 -3.74,-0.69 0,0.53 2,2.07 4.22,3.23l2.1 1.12 1.02 2.69c1.45,3.91 5.35,12.95 7.32,16.97 0.93,1.91 1.72,3.6 1.78,3.69 0.06,0.11 -1.42,-0.55 -3.27,-1.49 -3.17,-1.62 -4.59,-2.06 -4.59,-1.44 0,0.93 7.16,5.74 8.56,5.74 0.66,0 1.05,0.48 2.53,3.08 4.16,7.3 10.48,16.09 13.58,18.85 1.25,1.12 1.37,1.3 0.7,1.14 -3.8,-0.88 -6.66,-0.95 -6.66,-0.18 0,1.04 8.03,3.45 9.3,2.75 0.48,-0.25 1.04,0.07 3.08,1.63 2.47,1.92 7.04,4.79 7.62,4.79 0.81,0 -0.08,-1.05 -4.64,-5.56l-4.96 -4.88 0.23 -1.91c0.26,-2.12 -0.03,-3.93 -0.57,-3.78 -0.32,0.1 -1.3,1.75 -1.94,3.24 -0.29,0.64 -5.2,-5.3 -8.69,-10.47 -1.56,-2.35 -5.55,-8.91 -6.41,-10.56l-0.6 -1.21 0.79 -2.44c0.42,-1.34 0.76,-2.63 0.76,-2.89 0,-0.95 -0.66,-0.42 -1.61,1.31 -0.57,0.94 -1.11,1.64 -1.24,1.49 -0.44,-0.46 -4.57,-9.59 -7.26,-16.06l-2.65 -6.29 0.74 -1.65c0.37,-0.91 0.89,-2.25 1.12,-3 0.37,-1.24 0.37,-1.38 -0.1,-1.28 -0.29,0.07 -0.96,0.77 -1.49,1.58 -0.55,0.84 -1.08,1.5 -1.18,1.5 -0.13,0.03 -0.73,-1.3 -1.34,-2.95 -3.3,-8.6 -4.4,-11.3 -4.69,-11.3 -0.16,0 -0.29,0.61 -0.29,1.34l0 0zm125.87 -81.38c-0.48,0.48 -0.13,1.99 1.84,7.81 3.27,9.76 6.5,20.74 6.5,22.2 0,0.44 -0.45,0.19 -1.96,-1.08 -2,-1.65 -4.58,-3.04 -4.95,-2.7 -0.67,0.7 4.57,7.21 7.04,8.73l1.05 0.67 0.51 4.49c0.28,2.52 0.66,6.39 0.85,8.68 0.16,2.24 0.38,5.04 0.51,6.18l0.19 2.03 -2.28 -2.13c-2.26,-2.16 -4.22,-3.38 -4.67,-2.98 -0.7,0.7 2.88,6.44 5.74,9.17l1.56 1.49 0.73 10.09c0.98,13.58 1.14,12.41 -1.24,9.9 -3.14,-3.35 -6.09,-5.42 -5.49,-3.87 0.45,1.11 3.14,4.82 5.46,7.52l2.47 2.85 0.13 12.06 0.16 12.08 -2.63 -2.47c-2.54,-2.38 -3.18,-2.81 -3.18,-2.09 0,0.57 1.78,3.34 3.84,6l1.81 2.38 -0.09 2.7c-0.07,1.49 -0.2,5.33 -0.32,8.55 -0.09,3.24 -0.25,6.71 -0.38,7.69l-0.17 1.78 -2.37 -1.87c-2,-1.59 -3.27,-2.26 -3.27,-1.75 0,0.48 1.93,3.33 3.52,5.26l1.97 2.33 -0.22 4.31c-0.12,2.38 -0.58,8.37 -1.02,13.35 -0.41,4.99 -0.76,9.17 -0.76,9.3 0,0.13 -1.14,-1.17 -2.54,-2.91 -3.8,-4.76 -7.45,-7.78 -6.79,-5.69 0.6,1.97 3.62,6.69 7.21,11.34l1.55 2.01 -0.19 2.26c-0.55,5.4 -3.27,22.95 -3.88,24.63 -0.09,0.24 -0.73,-0.98 -1.39,-2.77 -1.36,-3.58 -2.79,-6.44 -3.27,-6.44 -0.41,0 -0.03,2.35 0.92,5.94 1.05,3.93 1.88,5.84 2.67,6.03 0.41,0.13 0.6,0.33 0.51,0.7 -0.1,0.27 -0.89,4.5 -1.77,9.38 -0.93,4.9 -1.68,8.92 -1.76,8.98 -0.03,0.04 -0.47,-0.44 -0.95,-1.11 -2.34,-3.17 -4.28,-4.54 -3.81,-2.73 0.32,1.3 2.57,5.27 3.5,6.22l0.82 0.79 -0.47 3.63c-1.05,7.76 -0.64,8.18 1.55,1.51l1.55 -4.76 1.49 -0.91c3.56,-2.23 8.86,-6.86 8.86,-7.78 0,-0.76 -3.3,0.6 -6.7,2.83 -1.23,0.79 -2.31,1.42 -2.34,1.36 -0.07,-0.06 0.38,-2.1 0.98,-4.54 0.57,-2.45 1.58,-6.62 2.19,-9.29l1.14 -4.83 3.49 -3.58c4.7,-4.76 7.49,-8.47 6.38,-8.47 -0.51,0 -4,2.6 -6.22,4.63 -1.21,1.11 -2.25,1.96 -2.35,1.91 -0.06,-0.06 0.26,-2.1 0.7,-4.55 0.44,-2.41 1.17,-7.23 1.62,-10.72 1.11,-8.5 1.07,-8.41 1.59,-8.63 0.24,-0.1 2.12,-1.96 4.15,-4.16 5.05,-5.46 7.08,-8.62 4.8,-7.38 -1.15,0.6 -4.39,3.13 -6.89,5.39l-2.29 2.03 0.19 -1.08c0.16,-0.93 0.92,-10.25 1.62,-19.8l0.19 -2.54 3.33 -3.49c3.31,-3.43 6.43,-7.61 6.03,-8.02 -0.48,-0.45 -3.24,1.46 -6.13,4.19l-3.04 2.88 0.22 -3.33c0.1,-1.84 0.35,-7.1 0.51,-11.74 0.32,-7.4 0.42,-8.47 0.92,-9.04 0.31,-0.36 1.68,-1.85 3.01,-3.33 2.29,-2.55 4.39,-5.36 4.82,-6.47 0.58,-1.53 -2.88,0.47 -6.25,3.58l-2.11 1.93 -0.13 -11.36 -0.14 -11.32 1.15 -1.31c1.39,-1.65 5.49,-8.12 6.31,-9.99 0.99,-2.24 1.08,-2.82 0.57,-2.82 -0.57,0 -4.27,3.9 -6.56,6.92 -0.96,1.27 -1.78,2.12 -1.81,1.91 -0.03,-0.23 -0.45,-5.63 -0.89,-12l-0.85 -11.58 1.83 -3.02c2.44,-4.07 4.38,-8.24 4.03,-8.6 -0.38,-0.38 -3.64,3.05 -5.01,5.21 -0.54,0.82 -1.01,1.49 -1.11,1.49 -0.09,0 -0.45,-2.88 -0.76,-6.44 -0.32,-3.53 -0.82,-8.29 -1.18,-10.59l-0.57 -4.19 2 -4.54c2.16,-4.8 3.36,-8.12 3.36,-9.04 -0.03,-0.99 -2.05,1.71 -4.18,5.51 -1.08,1.97 -2,3.55 -2.04,3.49 -0.03,-0.03 -0.63,-2.22 -1.36,-4.88 -2.13,-7.84 -4.95,-15.36 -8.27,-22.02 -1.53,-2.98 -2.27,-3.97 -2.64,-3.55l0 0zm-27 0.8c-1.53,2.02 -6,11.19 -7.94,16.27 -0.18,0.47 -0.44,-0.2 -1.01,-2.48 -0.79,-3.29 -1.52,-4.98 -2.1,-4.98 -0.47,0 -0.09,3.97 0.78,8.09 0.34,1.75 0.62,3.3 0.62,3.5 0,0.15 -0.67,2.31 -1.49,4.75 -0.82,2.44 -2.19,7.14 -3.01,10.4l-1.53 5.97 -1.68 -3.4c-2.91,-5.86 -3.27,-4.5 -0.7,2.89 0.76,2.26 1.44,4.34 1.44,4.61 0.02,0.25 -0.36,2.89 -0.84,5.83 -0.47,2.95 -1.11,7.61 -1.39,10.41l-0.53 5.04 -1.85 -2.51c-2,-2.75 -3.89,-4.72 -4.21,-4.4 -0.46,0.44 3.39,7.9 5.28,10.34 0.49,0.57 0.59,1.05 0.42,1.84 -0.13,0.61 -0.28,6.66 -0.42,13.48l-0.18 12.38 -2.44 -3.58c-2.66,-3.95 -4.22,-5.79 -4.72,-5.63 -0.59,0.2 3.28,7.36 6.4,11.88 0.89,1.29 0.89,1.33 1.23,8.88 0.2,4.19 0.49,9.14 0.64,11.07 0.13,1.91 0.25,3.52 0.23,3.55 -0.04,0.04 -0.89,-0.95 -1.91,-2.15 -1.81,-2.15 -3.08,-3.21 -3.08,-2.52 0,0.58 1.27,2.84 3.33,6.01l2.04 3.04 0.51 5.71c0.28,3.15 0.85,8.99 1.26,12.98 0.44,4.03 0.74,7.37 0.66,7.42 -0.09,0.07 -1.11,-0.69 -2.28,-1.68 -2.12,-1.81 -4.79,-3.65 -5.26,-3.65 -0.73,0 0.06,1.18 2.88,4.31 1.71,1.91 3.62,3.87 4.23,4.33l1.11 0.85 0.69 5.17c0.39,2.85 1.18,8.03 1.75,11.52 0.6,3.48 1.02,6.41 0.95,6.47 -0.1,0.1 -0.82,-0.51 -1.65,-1.27 -2.06,-2 -4.12,-3.52 -4.53,-3.39 -0.42,0.13 1.32,2.44 4.69,6.18 1.46,1.62 2.64,3.21 2.64,3.52 0,1.25 2.34,10.07 4.18,15.62 3.05,9.29 6.15,16.81 6.98,16.81 0.89,0 -0.19,-5.7 -3.56,-18.72 -1.58,-6.02 -2.85,-11.17 -2.85,-11.42 0,-0.22 0.29,-0.76 0.66,-1.14 1.63,-1.71 5.56,-14.09 4.51,-14.09 -0.48,0 -2.57,3.65 -3.97,6.82 -2.08,4.76 -2.12,4.8 -2.12,4.38 -0.03,-0.22 -0.51,-3.07 -1.11,-6.35 -0.6,-3.27 -1.46,-8.34 -1.91,-11.29l-0.85 -5.3 0.66 -0.88c0.35,-0.49 1.47,-3.08 2.51,-5.78 1.87,-4.85 2.89,-8.69 2.42,-9.14 -0.51,-0.51 -2.96,3.49 -5.12,8.44 -0.72,1.72 -1.04,2.19 -1.17,1.78 -0.25,-0.83 -1.36,-10.13 -2.29,-18.97l-0.76 -7.3 1.08 -1.75c1.74,-2.92 5.24,-10.69 5.24,-11.67 0,-0.23 -0.13,-0.42 -0.29,-0.42 -0.37,0 -2.57,3.23 -4.6,6.82 -0.98,1.75 -1.78,2.89 -1.78,2.55 0,-0.36 -0.15,-2.28 -0.31,-4.29 -0.16,-2 -0.45,-7.1 -0.64,-11.36l-0.35 -7.71 1.39 -1.65c3.11,-3.71 6.9,-9.26 6.9,-10.12 0,-1.01 -3.72,2.16 -6.99,5.93l-1.36 1.58 0.23 -10.3c0.13,-5.67 0.34,-11.96 0.47,-13.99l0.22 -3.72 1.87 -1.68c4.03,-3.59 6.67,-6.63 5.71,-6.63 -0.44,0 -3.04,1.49 -4.85,2.76 -1.11,0.79 -2.1,1.34 -2.21,1.24 -0.37,-0.38 1.35,-13.9 2.49,-19.42 0.32,-1.62 0.32,-1.62 3.37,-3.49 3.14,-1.92 5.77,-4.06 5.45,-4.38 -0.28,-0.29 -3.68,0.96 -5.86,2.19 -1.11,0.65 -2.04,1.01 -2.04,0.83 0,-0.83 3.34,-13.42 4.61,-17.32l1.42 -4.44 2.38 -1.43c2.48,-1.47 4.25,-3.01 3.88,-3.4 -0.14,-0.13 -1.31,0.23 -2.61,0.76 -1.3,0.54 -2.38,0.86 -2.38,0.7 0,-0.16 1.28,-3.52 2.83,-7.52 2.95,-7.51 3.61,-9.51 3.33,-9.97 -0.35,-0.53 -1.08,-0.21 -1.84,0.78l0 0zm17.65 -74.95c5.55,9.77 7.41,13.99 9.44,21.45 0.83,2.95 1.68,5.7 1.87,6.08 0.32,0.61 0.29,0.87 -0.34,1.62 -3.72,4.51 -5.11,6.35 -6.96,9.2 -1.2,1.82 -2.62,4.2 -3.2,5.31 -0.57,1.1 -1.1,2.03 -1.23,2.03 -0.1,0 -0.48,-0.99 -0.86,-2.2 -1.08,-3.36 -3.85,-8.65 -6.56,-12.71l-2.45 -3.65 0.38 -3.81c0.95,-9.58 2.35,-16.56 4.83,-24.24l1.59 -4.85 0.69 1.03c0.42,0.61 1.68,2.75 2.8,4.74l0 0zm-19.52 24.62c5.83,6.59 8.57,9.96 10.97,13.61 1.82,2.76 6.26,11.2 6.26,11.93 0,0.19 -0.29,1.31 -0.67,2.51l-0.64 2.15 -1.96 0.39c-3.12,0.63 -8.99,2.63 -12.35,4.21l-3.11 1.46 0 -1.17c0,-0.63 -0.72,-4.03 -1.58,-7.52 -1.97,-7.84 -2.54,-12.02 -2.54,-18.84 0,-6.89 0.34,-13.99 0.67,-13.99 0.15,0 2.38,2.37 4.95,5.26l0 0zm47.05 2.95c-0.48,4.7 -1.65,11.21 -2.63,14.47 -0.45,1.39 -1.81,4.99 -3.05,7.96 -1.24,3.01 -2.25,5.59 -2.25,5.71 -0.04,1.05 -0.57,1.11 -3.05,0.29 -3.67,-1.2 -7.33,-1.74 -11.77,-1.74l-3.97 0 1.49 -2.79c1.97,-3.63 6.22,-9.99 8.95,-13.39 3.02,-3.74 8.47,-9.18 12.79,-12.7 4.25,-3.46 4.09,-3.55 3.49,2.19l0 0zm-14.75 33.79c4.03,1.05 9.83,3.94 13.64,6.76 9.83,7.33 20.14,20.46 26.66,33.89 4.91,10.17 7.67,20.08 9.25,33.31 0.7,6.03 0.79,25.76 0.16,31.72 -1.39,12.89 -2.69,18.53 -9.08,40.24 -1.9,6.34 -2.06,7.74 -1.17,8.69 0.38,0.41 1.02,0.72 1.4,0.72 1.36,0 3.97,-1.83 5.71,-4.01 3.65,-4.58 5.81,-8.58 11.96,-22.47 6,-13.46 9.27,-19.14 13.67,-23.61 2.64,-2.66 6.2,-5.11 8.58,-5.9 2.47,-0.82 5.32,-0.54 6.85,0.67 4.06,3.23 6.44,10.72 6.02,19 -0.63,12.57 -6.56,24.11 -18.01,35.21 -6.26,6.07 -12.45,10.52 -19.1,13.78 -6.61,3.23 -11.24,4.15 -16.13,3.13 -1.59,-0.3 -1.89,-0.28 -2.63,0.17 -0.88,0.6 -0.85,0.47 -2.88,8.69 -1.65,6.79 -2.8,10.38 -6.38,20.28 -4.88,13.52 -8.76,21.57 -19.55,40.66 -4.25,7.53 -10.5,19.56 -12.12,23.33 -3.33,7.77 -5.17,15.36 -5.56,22.75l-0.18 3.96 -2.53 0.23c-21.99,1.83 -35.89,0.57 -58.7,-5.31 -12.56,-3.23 -22.37,-6.27 -25.86,-8.08l-1.11 -0.57 1.43 -0.64c0.79,-0.35 4.25,-2 7.67,-3.65l6.22 -3.01 3.62 2.34c9.07,6 20.05,10.22 29.28,11.27 2.99,0.35 3.33,0.35 4.48,-0.22 2.53,-1.24 1.52,-2.92 -3.14,-5.17 -1.94,-0.96 -4.95,-2.03 -7.52,-2.7 -7.93,-2.12 -14.66,-5.27 -21.8,-10.09 -7.87,-5.33 -11.84,-10.59 -13.96,-18.6 -0.76,-2.78 -0.86,-3.64 -0.86,-9.1 -0.02,-4.73 0.1,-6.6 0.55,-8.66 2.05,-9.36 6.21,-15.51 12.46,-18.53 4.39,-2.12 8.56,-2 13.23,0.32 2.89,1.42 7.46,5.87 8.25,8.03 1.88,5.07 9.58,27.94 10.79,32 0.83,2.7 2.06,7.33 2.76,10.32 1.49,6.28 1.97,7.61 3.11,8.79 2.29,2.41 4.5,-0.45 4.06,-5.24 -0.47,-5.2 -4.22,-17.42 -10.18,-33.06 -5.78,-15.16 -13.2,-36.23 -13.17,-37.34 0,-0.22 0.22,-0.7 0.48,-1.01 1.08,-1.47 0.25,-3.46 -1.66,-3.97 -0.95,-0.28 -2.02,-0.1 -6.73,1.05 -7.32,1.81 -11.13,2.22 -18.97,2 -4.69,-0.14 -7.08,-0.35 -9.46,-0.86 -12.87,-2.76 -26.35,-10.95 -39.18,-23.76 -13.86,-13.87 -22.74,-29 -25.66,-43.66 -2.41,-12.12 -1.17,-25.76 3.14,-34.96 7.54,-16.13 24.15,-19.89 35.69,-8.16 4.33,4.35 7.2,9.46 13.9,24.55 2.51,5.69 5.68,12.53 7.05,15.23 5.96,11.9 12.75,21.57 20.59,29.35l3.83 3.81 0.77 3.33c1.27,5.68 2.75,8.57 4.4,8.57 1.88,0 2.11,-2.76 0.73,-8.94 -1.23,-5.5 -1.77,-9.21 -2.72,-19.01 -0.45,-4.45 -1.21,-12.21 -1.74,-17.27 -0.51,-5.07 -1.12,-11.06 -1.34,-13.32 -0.64,-6.63 -0.54,-25.66 0.16,-30.93 1.2,-9.15 3.8,-20.12 6.75,-28.62 4.03,-11.52 8.09,-18.09 16.29,-26.31 11.99,-12.01 26.36,-20.2 38.89,-22.14 1.04,-0.19 4.06,-0.25 6.67,-0.19 3.83,0.06 5.35,0.25 7.93,0.92l0 0zm20.71 230.98c0.7,0.25 2.89,0.7 4.89,0.98 14.79,2.15 24.59,7.07 29.63,14.94 4.95,7.71 1.88,15.83 -9.52,25.29l-2.5 2.06 -1.84 -1.23c-7.18,-4.86 -22.72,-10.47 -33.12,-11.94 -2.11,-0.27 -3.85,-0.56 -3.9,-0.59 -0.07,-0.04 0.91,-2.52 2.11,-5.5 1.56,-3.77 3.44,-7.52 6.16,-12.33 2.2,-3.78 4.58,-8.06 5.33,-9.5 0.76,-1.45 1.43,-2.62 1.43,-2.62 0.03,0 0.63,0.19 1.33,0.44l0 0zm-117.84 15.17c1.49,7.86 4.83,14.08 10.49,19.57 1.32,1.27 2.39,2.38 2.39,2.44 0,0.06 -0.21,0.13 -0.5,0.13 -0.95,0 -7.02,2.15 -9.4,3.36 -1.26,0.63 -3.13,1.78 -4.15,2.54 -0.98,0.76 -1.93,1.4 -2.1,1.4 -0.79,0 -5.26,-3.43 -7.39,-5.65 -5.8,-6.1 -6.62,-12.59 -2.75,-22.02 1.87,-4.53 4.02,-6.94 9.16,-10.22l3.34 -2.12 0.19 3.9c0.12,2.15 0.44,5.14 0.72,6.67l0 0zm-20.77 17.54c0.22,0.86 0.95,2.67 1.65,3.99 3.01,5.78 8.05,10.19 15.92,13.94 6.92,3.26 15.23,5.93 30.37,9.68 18.58,4.59 32.2,6.15 48.32,5.51 21.28,-0.85 39.05,-3.9 51.15,-8.75 11.26,-4.51 23.44,-13.49 29.11,-21.45 0.74,-1.02 1.37,-1.72 1.4,-1.59 0.07,0.12 0.74,2.25 1.49,4.7 0.73,2.44 3.17,10.09 5.37,16.97 2.15,6.89 4.41,14.09 4.94,16.03 5.05,18.14 4.92,32.79 -0.47,54.56 -6.44,25.96 -15.7,48.2 -25.44,61.14 -4.67,6.22 -12.64,13.36 -18.03,16.19 -5.64,2.98 -16.21,5.26 -31.22,6.79 -16.08,1.61 -54.76,0.32 -70.59,-2.42 -9.49,-1.61 -15.55,-4.57 -21.99,-10.62 -10.72,-10.09 -25.83,-32.94 -32.39,-49 -10.89,-26.51 -12.16,-60.24 -3.46,-90.6 1.72,-5.94 3.64,-10.89 6.25,-15.9 2.44,-4.67 6.7,-11.36 7.05,-11.01 0.09,0.17 0.37,0.96 0.57,1.84l0 0zm125.73 1.27c5.77,0.79 11.43,2.29 18.66,4.98 4.85,1.81 13.54,5.58 13.81,5.99 0.27,0.42 -7.22,4.67 -11.4,6.48 -7.33,3.17 -16.69,5.71 -26.37,7.11 -2.43,0.37 -4.91,0.72 -5.51,0.85 -0.98,0.16 -1.06,0.13 -0.87,-0.57 0.1,-0.41 0.54,-2.73 1.02,-5.17 1.05,-5.84 2.04,-9.74 3.96,-15.64 1.59,-4.83 1.63,-4.86 2.45,-4.69 0.48,0.09 2.38,0.4 4.25,0.66z"/></g><text x="0" y="539.67" fill="#000000" font-size="5px" font-weight="bold" font-family="'Helvetica Neue', Helvetica, Arial-Unicode, Arial, Sans-serif">Created by Natcha Rochana</text><text x="0" y="544.67" fill="#000000" font-size="5px" font-weight="bold" font-family="'Helvetica Neue', Helvetica, Arial-Unicode, Arial, Sans-serif">from the Noun Project</text></svg>