<svg xmlns="http://www.w3.org/2000/svg" data-name="Слой 1" viewBox="0 0 100 125" x="0px" y="0px"><title>plant-01-01-01-01-01-01-01-01-01</title><g><path d="M50.65545,86.71875a0.71277,0.71277,0,0,1-.37221-0.97991c0.21645-2.7134.49956-5.42344,0.63333-8.14086a30.277,30.277,0,0,0-.74008-6.746c-0.8699-4.91563-1.794-9.82269-2.58067-14.75164-0.39225-2.45761-.56625-4.95275-0.77357-7.43637-0.18836-2.2564-.39221-4.51993-0.39813-6.78079-0.00611-2.33589.19423-4.67393,0.348-7.00815a28.86616,28.86616,0,0,1,1.63663-7.27714,3.97962,3.97962,0,0,1,.284-0.55534c0.54138,0.12174.40489,0.40762,0.319,0.721-0.41618,1.51784-.8823,3.0266-1.20167,4.56536a37.9199,37.9199,0,0,0-.7257,9.16233c0.097,2.57313.09484,5.1562,0.33615,7.71607,0.28809,3.05619.7315,6.10142,1.21174,9.1349,0.59985,3.789,1.31131,7.56024,1.96325,11.34109,0.27414,1.5899.49444,3.18934,0.78426,4.77622a22.46606,22.46606,0,0,1,.1209,5.2814c-0.10511,1.95433-.29937,3.90448-0.48865,5.85317A5.6097,5.6097,0,0,1,50.65545,86.71875Z"/><path d="M48.51827,24.21749a3.28074,3.28074,0,0,1,2.01519-3.15508,2.87869,2.87869,0,0,1,3.64741,4.27586,5.53083,5.53083,0,0,1-1.5759,1.44479A2.77,2.77,0,0,1,48.51827,24.21749ZM51.22,26.29505a2.92275,2.92275,0,0,0,2.796-2.9076,1.92871,1.92871,0,0,0-.44169-1.13915,5.53,5.53,0,0,0-1.41039-.92769c-0.52758-.27457-0.79228.348-1.19594,0.43823-1.37688.30762-1.6885,1.31084-1.73393,2.49613A1.89583,1.89583,0,0,0,51.22,26.29505Z"/><path d="M54.36172,40.56154a8.35058,8.35058,0,0,1-.45255,1.6477c-0.64449,1.27474-1.883,1.68483-3.46114,1.24415a2.87511,2.87511,0,0,1-2.05864-2.85792,2.99805,2.99805,0,0,1,2.56835-2.45569,2.54158,2.54158,0,0,1,3.00852,1.07767A6.77987,6.77987,0,0,1,54.36172,40.56154Zm-3.07055,2.46932a2.00737,2.00737,0,0,0,1.91836-1.04272,2.63822,2.63822,0,0,0,.14091-2.441,1.57813,1.57813,0,0,0-.76573-0.64827,3.4,3.4,0,0,0-2.8779.68421,1.709,1.709,0,0,0,.10037,2.70778A6.73817,6.73817,0,0,0,51.29116,43.03086Z"/><path d="M44.598,47.287c0.00707,1.345-1.05281,2.67988-2.20135,2.6231a2.60027,2.60027,0,0,1-2.74406-2.86432,2.94105,2.94105,0,0,1,2.34369-2.69448A2.77165,2.77165,0,0,1,44.598,47.287Zm-2.42377-2.25331c-0.83294-.06442-1.13877.67224-1.52744,1.19462a1.90448,1.90448,0,0,0,.01784,2.078,1.833,1.833,0,0,0,1.73658.93614c0.73559,0.01268,1.53464-1.14858,1.49632-2.05631A2.11525,2.11525,0,0,0,42.17426,45.03373Z"/><path d="M57.62766,74.96726A2.06333,2.06333,0,0,1,59.912,76.989a2.73273,2.73273,0,0,1-2.73746,3.02027,2.78382,2.78382,0,0,1-2.46-2.46754C54.67989,76.091,55.85112,75.05593,57.62766,74.96726Zm1.635,2.36692c0.00762-1.07134-.43327-1.62873-1.30579-1.65307-1.124-.03139-2.70495.7999-2.56939,1.89081A2.42984,2.42984,0,0,0,56.985,79.2994,2.41751,2.41751,0,0,0,59.26262,77.33418Z"/><path d="M47.38,68.62509a2.56,2.56,0,0,1-2.34342,2.65261,2.36767,2.36767,0,0,1-2.64837-2.50434c-0.024-1.1831.97486-2.64824,1.8795-2.52391a3.85949,3.85949,0,0,1,2.37753.67412A2.18973,2.18973,0,0,1,47.38,68.62509Zm-0.57714.02241c0.00737-1.0154-.76742-1.559-2.21635-1.555a1.75261,1.75261,0,0,0,.295,3.48375A2.20665,2.20665,0,0,0,46.80284,68.6475Z"/><path d="M53.46743,56.83624A2.65048,2.65048,0,0,1,55.901,60.5a2.38432,2.38432,0,0,1-2.30688,1.55449A2.80709,2.80709,0,0,1,51.38225,59.87a2.304,2.304,0,0,1,1.14634-2.73747A2.66266,2.66266,0,0,1,53.46743,56.83624ZM53.70786,61.305a2.37118,2.37118,0,0,0,1.81-1.91735,2.36623,2.36623,0,0,0-1.60525-1.88447A1.90417,1.90417,0,0,0,53.70786,61.305Z"/><path d="M41.60223,31.77652c0.03931-1.32108.70293-2.09031,1.79524-2.081a1.9989,1.9989,0,0,1,2.013,2.187,2.10454,2.10454,0,0,1-2.14722,1.83076A1.69918,1.69918,0,0,1,41.60223,31.77652Zm1.67884,1.172a1.37272,1.37272,0,0,0,1.43482-1.17911,1.48621,1.48621,0,0,0-1.18809-1.44749A1.334,1.334,0,0,0,42.302,31.71679,0.96989,0.96989,0,0,0,43.28107,32.94853Z"/><path d="M58.14134,18.44866a1.87509,1.87509,0,1,1-3.69227-.21809,2.35894,2.35894,0,0,1,1.91938-1.82746A1.99276,1.99276,0,0,1,58.14134,18.44866ZM56.67586,17.145c-0.3726.16528-.67021,0.31179-0.97857,0.43036a0.67188,0.67188,0,0,0-.50263.78513,1.41753,1.41753,0,0,0,.72375,1.31313,0.92464,0.92464,0,0,0,1.02881-.28038C57.65136,18.752,57.56531,18.04308,56.67586,17.145Z"/><path d="M59.6368,38.45535a1.8375,1.8375,0,0,1-1.79289,1.84132,2.21471,2.21471,0,0,1-2.08546-1.90751A2.1805,2.1805,0,0,1,57.42525,36.442,2.21188,2.21188,0,0,1,59.6368,38.45535Zm-0.67844-.14414a1.00632,1.00632,0,0,0-1.088-.9365,1.3335,1.3335,0,0,0-1.43443,1.054,1.50975,1.50975,0,0,0,1.38605,1.14569A1.43148,1.43148,0,0,0,58.95835,38.3112Z"/><path d="M36.7468,45.76228a1.73628,1.73628,0,0,1-1.75244-1.61443,1.90833,1.90833,0,0,1,1.83946-1.952c0.94629,0.00755,1.62555.86676,1.66477,2.1058C38.53,45.29485,37.99221,45.74327,36.7468,45.76228Zm0.99813-1.418a1.36085,1.36085,0,0,0-.85916-1.42409,1.42236,1.42236,0,0,0-1.18863,1.16571A1.22767,1.22767,0,0,0,36.848,45.137,0.783,0.783,0,0,0,37.74493,44.34426Z"/><path d="M60.36907,56.77721a1.78419,1.78419,0,0,1-1.82172,1.824,1.52326,1.52326,0,0,1-1.588-1.35574,2.41421,2.41421,0,0,1,2.18806-2.13727C59.85285,55.09747,60.34592,55.77112,60.36907,56.77721Zm-2.07631,1.099a1.28828,1.28828,0,0,0,1.41214-1.26368,0.63158,0.63158,0,0,0-.66318-0.74322c-0.55957.03815-1.48117,0.937-1.33738,1.36218A1.966,1.966,0,0,0,58.29275,57.87625Z"/><path d="M62.17635,75.26812a1.41676,1.41676,0,0,1,1.47223-1.638,1.54486,1.54486,0,1,1,.04839,3.02741A1.25869,1.25869,0,0,1,62.17635,75.26812Zm2.56271-.38108a1.1345,1.1345,0,0,0-1.39335-.28777,0.84375,0.84375,0,0,0-.45273.66735,0.86373,0.86373,0,0,0,.534.57867C64.01356,76.03442,64.341,75.76829,64.73906,74.887Z"/><path d="M41.16819,27.61653a1.76222,1.76222,0,0,1-1.48874,1.73691,1.85956,1.85956,0,0,1-1.67605-1.95969,1.35938,1.35938,0,0,1,1.38492-1.58424A2.18483,2.18483,0,0,1,41.16819,27.61653Zm-2.43341-.482a1.22892,1.22892,0,0,0,.81018,1.4366,1.02986,1.02986,0,0,0,.89735-0.874,1.066,1.066,0,0,0-1.05044-1.09523A1.85329,1.85329,0,0,0,38.73478,27.1345Z"/><path d="M39.42927,66.72582a1.29948,1.29948,0,0,1-1.367-1.2552,1.58873,1.58873,0,0,1,1.90154-1.516,1.11125,1.11125,0,0,1,1.15179,1.0299A1.85254,1.85254,0,0,1,39.42927,66.72582ZM40.518,64.69729c-0.51656,0-.70221-0.01693-0.883.00528a1.69654,1.69654,0,0,0-.43648.12945,0.6054,0.6054,0,0,0-.38242.82567,0.65054,0.65054,0,0,0,.97152.2176A6.71992,6.71992,0,0,0,40.518,64.69729Z"/><path d="M59.99053,15.92141a1.24772,1.24772,0,0,1-1.32881-1.14474A1.58529,1.58529,0,0,1,59.95324,13.285a1.33431,1.33431,0,0,1,1.5112,1.21238A1.45405,1.45405,0,0,1,59.99053,15.92141ZM59.89824,13.606c-0.18064.62675-.29718,0.98032-0.36325,1.3431a0.69527,0.69527,0,0,0,.45619.17252,1.41251,1.41251,0,0,0,.653-0.64693A2.69233,2.69233,0,0,0,59.89824,13.606Z"/><path d="M62.45876,37.42425a1.38091,1.38091,0,0,1-1.50169-1.10493,1.45584,1.45584,0,0,1,1.44563-1.18325,1.32875,1.32875,0,0,1,1.2148,1.14708A1.13541,1.13541,0,0,1,62.45876,37.42425Zm-0.64455-1.07436c0.62446,0.3628.76825,0.39316,0.91986,0.13107a0.42939,0.42939,0,0,0-.0206-0.39688A0.55262,0.55262,0,0,0,61.81421,36.34989Z"/><path d="M36.38644,60.21858A1.23374,1.23374,0,0,1,37.638,61.44173a1.22022,1.22022,0,0,1-1.42821,1.13088A1.18509,1.18509,0,0,1,34.95462,61.387,1.30125,1.30125,0,0,1,36.38644,60.21858Zm0.742,1.21127a2.45725,2.45725,0,0,0-.6748-0.48292,0.58858,0.58858,0,0,0-.78489.45944,0.68073,0.68073,0,0,0,.46847.482A3.45482,3.45482,0,0,0,37.12847,61.42986Z"/><path d="M63.67386,55.35988a1.17054,1.17054,0,0,1-1.32576-1.235,1.78808,1.78808,0,0,1,1.21976-1.07272,1.44972,1.44972,0,0,1,1.25926,1.28433A1.04618,1.04618,0,0,1,63.67386,55.35988Zm-0.54724-.91069c0.40953,0.2359.73137,0.28309,0.9177-.117a0.505,0.505,0,0,0-.21474-0.44379C63.39317,53.70723,63.24089,54.00961,63.12663,54.44919Z"/><path d="M36.81465,24.48939a1.22134,1.22134,0,0,1-1.3441-1.24927,0.93113,0.93113,0,0,1,.97284-0.91175,1.296,1.296,0,0,1,1.4533,1.27834A0.86487,0.86487,0,0,1,36.81465,24.48939Zm0.2918-.89273a0.64251,0.64251,0,0,0-.87416-0.34252C36.38876,23.7693,36.6525,23.85319,37.10645,23.59666Z"/><path d="M69.258,73.186a1.14787,1.14787,0,0,1-1.25083-1.04976,1.20842,1.20842,0,0,1,1.1417-1.03419,1.22809,1.22809,0,0,1,1.30124,1.15883A1.00837,1.00837,0,0,1,69.258,73.186Zm0.32986-.8214,0.0044-.28558a4.722,4.722,0,0,0-.56957-0.01564,1.467,1.467,0,0,0-.03647.30122h0.60164Z"/><path d="M32.49294,39.6898a1.18434,1.18434,0,0,1,1.19066,1.15227,1.155,1.155,0,0,1-1.0748,1.1189,1.06016,1.06016,0,0,1-1.05666-1.104A0.96691,0.96691,0,0,1,32.49294,39.6898Zm0.00738,0.7295c-0.19539.243-.40963,0.462-0.13038,0.75637a0.40439,0.40439,0,0,0,.39031-0.04616C33.01869,40.81994,32.85789,40.60577,32.50032,40.4193Z"/></g><text x="0" y="115" fill="#000000" font-size="5px" font-weight="bold" font-family="'Helvetica Neue', Helvetica, Arial-Unicode, Arial, Sans-serif">Created by Alex Muravev</text><text x="0" y="120" fill="#000000" font-size="5px" font-weight="bold" font-family="'Helvetica Neue', Helvetica, Arial-Unicode, Arial, Sans-serif">from the Noun Project</text></svg>