<?xml version="1.0" encoding="UTF-8"?>
<svg width="1200pt" height="1200pt" version="1.1" viewBox="0 0 1200 1200" xmlns="http://www.w3.org/2000/svg">
 <path d="m1119.6 927.6v-204-2.3984-1.1992c0-2.3984-1.1992-4.8008-2.3984-6v-1.1992c-1.1992-2.3984-2.3984-3.6016-3.6016-4.8008l-214.8-219.61c-2.3984 20.398-7.1992 36-18 50.398l144 147.6-792-150c21.602-19.199 55.199-36 90-38.398 63.602-4.8008 133.2-24 189.6-46.801 0-6 0-12 1.1992-16.801 2.3984-19.199 10.801-34.801 22.801-46.801-52.801 27.602-140.4 56.402-217.2 62.402-70.801 4.8008-130.8 50.398-152.4 91.199v1.1992c0 1.1992-1.1992 2.3984-1.1992 3.6016v1.1992 3.6016 1.1992c0 7.1992 3.6016 180 16.801 231.6 9.6016 34.801 79.199 60 716.4 151.2 91.199 13.199 178.8 25.199 189.6 28.801 3.6016 1.1992 13.199 4.8008 10.801 18-1.1992 8.3984-7.1992 18-16.801 18-36 0-675.6-96-867.6-130.8-91.199-16.801-98.398-116.4-98.398-210 0-55.199-2.3984-92.398-6-105.6-10.801-36-10.801-62.398-2.3984-78 9.6016-16.801 32.398-22.801 56.398-28.801s48-12 62.398-32.398c36-50.398 64.801-49.199 100.8-46.801 32.398 1.1992 72 2.3984 106.8-37.199 42-48 72-42 103.2-34.801 22.801 4.8008 50.398 10.801 75.602-9.6016 19.199-14.398 37.199-33.602 44.398-81.602-26.398 8.3984-50.398 25.199-73.199 43.199-7.1992 6-15.602 4.8008-37.199 1.1992-34.801-7.1992-87.602-18-148.8 50.398-20.398 22.801-39.602 22.801-69.602 21.602-40.801-1.1992-91.199-3.6016-141.6 67.199-3.6016 4.8008-21.602 9.6016-34.801 13.199-30 7.1992-67.199 16.801-86.398 51.602-15.602 27.602-16.801 66-2.3984 115.2 0 2.3984 4.8008 20.398 4.8008 91.199 0 75.602 0 232.8 138 256.8 168 30 829.2 132 876 132 31.199 0 58.801-24 63.602-57.602 3.5977-25.191-6.0039-47.992-26.402-62.391zm-48-14.402c-30-4.8008-80.398-12-166.8-25.199-204-28.801-622.8-90-678-121.2-7.1992-37.199-12-128.4-13.199-184.8l858 162z"/>
 <path d="m900 458.4c-1.1992-42-26.398-76.801-42-93.602 31.199-116.4-154.8-206.4-163.2-210-7.1992-3.6016-15.602-3.6016-22.801 1.1992-7.1992 4.8008-10.801 12-12 20.398 0 10.801-1.1992 20.398-2.3984 30-6 48-25.199 67.199-44.398 81.602-3.6016 2.3984-7.1992 4.8008-9.6016 7.1992-25.199 18-45.602 36-38.398 75.602-10.801 4.8008-20.398 10.801-28.801 19.199-12 12-20.398 27.602-22.801 46.801-1.1992 6-1.1992 12-1.1992 16.801 0 33.602 16.801 66 43.199 84 28.801 19.199 106.8 48 184.8 48 15.602 0 30-1.1992 45.602-3.6016 49.199-8.3984 78-21.602 93.602-40.801 10.801-13.199 16.801-30 18-50.398 2.3945-11.996 2.3945-21.598 2.3945-32.398zm-48 1.2031c0 19.199 1.1992 33.602-4.8008 44.398-7.1992 13.199-26.398 21.602-67.199 28.801-74.398 12-166.8-16.801-196.8-37.199-15.602-9.6016-24-32.398-20.398-52.801 1.1992-7.1992 3.6016-12 7.1992-16.801 4.8008-6 10.801-10.801 19.199-13.199h1.1992c1.1992 1.1992 1.1992 1.1992 2.3984 2.3984 9.6016 9.6016 25.199 25.199 66 37.199 13.199 3.6016 26.398-3.6016 30-16.801 3.6016-13.199-3.6016-26.398-16.801-30-19.199-4.8008-28.801-10.801-36-16.801-3.6016-2.3984-6-6-9.6016-8.3984-2.3984-2.3984-4.8008-4.8008-8.3984-7.1992-6-15.602-7.1992-22.801 1.1992-28.801 3.6016-3.6016 7.1992-6 14.398-10.801 21.602-14.398 50.398-34.801 66-82.801 3.6016-10.801 6-21.602 8.3984-34.801 19.199 10.801 43.199 27.602 63.602 46.801 30 27.602 52.801 61.199 42 94.801-9.6016 6-22.801 8.3984-32.398 8.3984h-7.1992c-13.199-1.1992-25.199 7.1992-26.398 20.398-1.1992 13.199 7.1992 25.199 20.398 26.398 1.1992 0 6 1.1992 13.199 1.1992 10.801 0 25.199-1.1992 40.801-7.1992 2.3984-1.1992 6-2.3984 8.3984-3.6016 6 8.3984 14.398 19.199 19.199 32.398 0.007812 7.2109 2.4062 15.609 2.4062 24.012z"/>
</svg>
