<?xml version="1.0" encoding="UTF-8"?>
<svg width="1200pt" height="1200pt" version="1.1" viewBox="0 0 1200 1200" xmlns="http://www.w3.org/2000/svg">
 <path d="m963.6 368.4c-64.801-40.797-136.8-44.398-171.6-28.797h-1.1992c-31.199-9.6016-61.199-9.6016-86.398-6-9.6016-24-9.6016-45.602-1.1992-62.398 16.801-33.602 61.199-45.602 62.398-45.602 12-3.6016 20.398-15.602 18-27.602l-10.801-52.801c-2.3984-10.801-12-19.199-22.801-19.199-86.398-2.3984-153.6 20.398-198 68.398-44.398 46.801-56.398 105.6-58.801 139.2-24-2.3984-52.801-2.3984-81.602 7.1992h-1.1992c-36-16.801-108-12-171.6 28.801-64.797 39.602-140.4 128.4-139.2 320.4 2.3984 242.4 84 357.6 259.2 362.4 7.1992 3.6016 13.199 7.1992 21.602 9.6016 22.801 7.1992 49.199 9.6016 73.199 9.6016 34.801 0 67.199-4.8008 80.398-7.1992 15.602 4.8008 32.398 8.3984 54 9.6016h1.1992c2.3984 0 3.6016 0 4.8008-1.1992 1.1992 0 3.6016 1.1992 4.8008 1.1992h1.1992c20.398-1.1992 38.398-4.8008 54-9.6016 13.199 2.3984 45.602 7.1992 80.398 7.1992 24 0 50.398-2.3984 73.199-9.6016 8.3984-2.3984 15.602-6 21.602-9.6016h3.6016c180-2.3984 264-117.6 266.4-362.4 2.4023-192-73.199-280.8-135.6-321.6zm-379.2-141.6c32.398-33.602 80.398-51.602 142.8-52.801l2.3984 13.199c-21.602 9.6016-54 28.801-72 63.602-13.199 27.602-14.398 60-2.3984 94.801-7.1992 2.3984-12 4.8008-13.199 4.8008-1.1992 1.1992-2.3984 1.1992-3.6016 2.3984-21.602-3.6016-37.199-4.8008-38.398-4.8008h-1.1992-1.1992c-1.1992 0-18 0-38.398 4.8008-1.1992-1.1992-2.3984-1.1992-4.8008-2.3984-1.1992 0-7.1992-3.6016-18-6 3.5977-26.402 10.797-78.004 47.996-117.6zm292.8 774c18-32.398 26.398-68.398 30-88.801l1.1992-4.8008c2.3984-13.199-4.8008-25.199-18-28.801-13.199-2.3984-25.199 4.8008-28.801 18l-1.1992 4.8008c-6 30-21.602 100.8-67.199 115.2-24 7.1992-54 8.3984-79.199 7.1992 19.199-24 25.199-50.398 25.199-68.398 0-13.199-10.801-24-24-24s-24 10.801-24 24c0 2.3984 0 66-93.602 70.801-1.1992 0-2.3984 0-3.6016 1.1992-1.1992 0-2.3984 0-3.6016-1.1992-90-4.8008-93.602-64.801-93.602-70.801 0-13.199-10.801-24-24-24s-24 10.801-24 24c0 18 6 45.602 25.199 68.398-25.199 1.1992-54 1.1992-79.199-7.1992-4.8008-1.1992-9.6016-3.6016-14.398-7.1992-1.1992-1.1992-1.1992-1.1992-2.3984-1.1992-32.398-24-45.602-80.398-50.398-106.8l-1.1992-4.8008c-2.3984-13.199-15.602-21.602-28.801-18-13.199 2.3984-21.602 15.602-18 28.801l1.1992 4.8008c4.8008 20.398 12 55.199 28.801 86.398-111.6-24-160.8-120-162-309.6-1.1992-170.4 61.199-246 115.2-280.8 27.602-18 55.199-26.398 78-28.801-26.398 25.199-46.801 58.801-61.199 100.8-3.6016 12 2.3984 26.398 15.602 30 2.3984 1.1992 4.8008 1.1992 7.1992 1.1992 9.6016 0 19.199-6 22.801-16.801 18-52.801 45.602-87.602 82.801-104.4 27.602-12 56.398-13.199 80.398-9.6016-20.398 14.398-39.602 34.801-49.199 63.602-4.8008 12 2.3984 26.398 14.398 31.199 2.3984 1.1992 6 1.1992 8.3984 1.1992 9.6016 0 19.199-6 22.801-15.602 22.801-64.801 114-66 115.2-66h1.1992 1.1992c1.1992 0 91.199 1.1992 115.2 66 3.6016 9.6016 13.199 15.602 22.801 15.602 2.3984 0 6 0 8.3984-1.1992 12-4.8008 19.199-18 14.398-31.199-10.801-28.801-28.801-49.199-49.199-63.602 24-2.3984 52.801-2.3984 79.199 9.6016 37.199 16.801 64.801 51.602 82.801 104.4 3.6016 9.6016 13.199 16.801 22.801 16.801 2.3984 0 4.8008 0 7.1992-1.1992 12-3.6016 19.199-18 15.602-30-14.398-43.199-34.801-76.801-61.199-100.8 22.801 2.3984 50.398 10.801 78 28.801 52.801 33.602 116.4 110.4 115.2 280.8-3.5938 198-56.395 294-176.39 312z"/>
 <path d="m848.4 670.8c-7.1992-4.8008-16.801-4.8008-24 0-38.398 22.801-79.199 39.602-121.2 50.398-10.801 2.3984-18 12-18 22.801v45.602c-8.3984 1.1992-19.199 2.3984-28.801 4.8008v-37.199c0-7.1992-2.3984-13.199-8.3984-18-4.8008-4.8008-12-7.1992-18-6-15.602 1.1992-21.602 1.1992-37.199 1.1992-82.801 1.1992-160.8-20.402-232.8-63.602-7.1992-4.8008-16.801-4.8008-24 0s-12 12-12 20.398c0 2.3984 3.6016 234 268.8 234s268.8-231.6 268.8-234c-1.2031-7.1992-6-15.598-13.203-20.398zm-256.8 207.6c-152.4 0-199.2-87.602-213.6-142.8 68.398 32.398 139.2 48 213.6 48h16.801v39.602c0 7.1992 3.6016 13.199 8.3984 18 4.8008 4.8008 12 6 19.199 4.8008 1.1992 0 10.801-1.1992 22.801-3.6016 36-6 51.602-8.3984 54-8.3984 10.801-2.3984 19.199-12 19.199-24v-48c25.199-7.1992 49.199-16.801 73.199-27.602-13.199 56.402-60 144-213.6 144z"/>
 <path d="m376.8 655.2 148.8 33.602h4.8008c13.199 0 24-10.801 24-24 0-3.6016-1.1992-7.1992-2.3984-9.6016l-42-146.4c-2.3984-8.3984-9.6016-14.398-18-16.801-8.3984-2.3984-16.801 1.1992-22.801 7.1992l-106.8 117.6c-6 6-7.1992 15.602-4.8008 24 2.3984 8.3984 10.797 12 19.199 14.398zm100.8-92.398 19.199 69.602-69.602-15.602z"/>
 <path d="m652.8 688.8h4.8008l148.8-33.602c8.3984-2.3984 15.602-8.3984 18-15.602 2.3984-7.1992 1.1992-16.801-4.8008-24l-106.8-117.6c-6-6-14.398-9.6016-22.801-7.1992-8.3984 2.3984-15.602 8.3984-18 16.801l-42 150c-2.3984 8.3984 0 16.801 6 22.801 3.6016 4.8008 9.6016 8.4023 16.801 8.4023zm52.801-126 49.199 54-69.602 15.602z"/>
</svg>
